<?xml version="1.0" encoding="utf-8" standalone="no"?>
<!DOCTYPE svg PUBLIC "-//W3C//DTD SVG 1.1//EN"
  "http://www.w3.org/Graphics/SVG/1.1/DTD/svg11.dtd">
<!-- Created with matplotlib (https://matplotlib.org/) -->
<svg height="248.518125pt" version="1.1" viewBox="0 0 368.925 248.518125" width="368.925pt" xmlns="http://www.w3.org/2000/svg" xmlns:xlink="http://www.w3.org/1999/xlink">
 <metadata>
  <rdf:RDF xmlns:cc="http://creativecommons.org/ns#" xmlns:dc="http://purl.org/dc/elements/1.1/" xmlns:rdf="http://www.w3.org/1999/02/22-rdf-syntax-ns#">
   <cc:Work>
    <dc:type rdf:resource="http://purl.org/dc/dcmitype/StillImage"/>
    <dc:date>2020-10-14T14:29:08.224624</dc:date>
    <dc:format>image/svg+xml</dc:format>
    <dc:creator>
     <cc:Agent>
      <dc:title>Matplotlib v3.3.2, https://matplotlib.org/</dc:title>
     </cc:Agent>
    </dc:creator>
   </cc:Work>
  </rdf:RDF>
 </metadata>
 <defs>
  <style type="text/css">*{stroke-linecap:butt;stroke-linejoin:round;}</style>
 </defs>
 <g id="figure_1">
  <g id="patch_1">
   <path d="M -0 248.518125 
L 368.925 248.518125 
L 368.925 0 
L -0 0 
z
" style="fill:none;"/>
  </g>
  <g id="axes_1">
   <g id="patch_2">
    <path d="M 26.925 224.64 
L 361.725 224.64 
L 361.725 7.2 
L 26.925 7.2 
z
" style="fill:#ffffff;"/>
   </g>
   <g id="PathCollection_1">
    <defs>
     <path d="M 0 3 
C 0.795609 3 1.55874 2.683901 2.12132 2.12132 
C 2.683901 1.55874 3 0.795609 3 0 
C 3 -0.795609 2.683901 -1.55874 2.12132 -2.12132 
C 1.55874 -2.683901 0.795609 -3 0 -3 
C -0.795609 -3 -1.55874 -2.683901 -2.12132 -2.12132 
C -2.683901 -1.55874 -3 -0.795609 -3 0 
C -3 0.795609 -2.683901 1.55874 -2.12132 2.12132 
C -1.55874 2.683901 -0.795609 3 0 3 
z
" id="m3148d5e70d" style="stroke:#1f77b4;"/>
    </defs>
    <g clip-path="url(#pdcd8765aab)">
     <use style="fill:#1f77b4;stroke:#1f77b4;" x="85.740422" xlink:href="#m3148d5e70d" y="201.123762"/>
     <use style="fill:#1f77b4;stroke:#1f77b4;" x="96.420785" xlink:href="#m3148d5e70d" y="132.960752"/>
     <use style="fill:#1f77b4;stroke:#1f77b4;" x="208.932326" xlink:href="#m3148d5e70d" y="47.756991"/>
     <use style="fill:#1f77b4;stroke:#1f77b4;" x="240.229959" xlink:href="#m3148d5e70d" y="184.083009"/>
     <use style="fill:#1f77b4;stroke:#1f77b4;" x="187.657784" xlink:href="#m3148d5e70d" y="177.266708"/>
     <use style="fill:#1f77b4;stroke:#1f77b4;" x="92.949667" xlink:href="#m3148d5e70d" y="201.123762"/>
     <use style="fill:#1f77b4;stroke:#1f77b4;" x="346.506818" xlink:href="#m3148d5e70d" y="143.185204"/>
     <use style="fill:#1f77b4;stroke:#1f77b4;" x="242.7646" xlink:href="#m3148d5e70d" y="81.838495"/>
     <use style="fill:#1f77b4;stroke:#1f77b4;" x="228.536872" xlink:href="#m3148d5e70d" y="197.715611"/>
     <use style="fill:#1f77b4;stroke:#1f77b4;" x="125.674299" xlink:href="#m3148d5e70d" y="180.674859"/>
     <use style="fill:#1f77b4;stroke:#1f77b4;" x="139.063492" xlink:href="#m3148d5e70d" y="92.062947"/>
     <use style="fill:#1f77b4;stroke:#1f77b4;" x="161.533616" xlink:href="#m3148d5e70d" y="201.123762"/>
     <use style="fill:#1f77b4;stroke:#1f77b4;" x="106.812778" xlink:href="#m3148d5e70d" y="156.817806"/>
     <use style="fill:#1f77b4;stroke:#1f77b4;" x="137.935355" xlink:href="#m3148d5e70d" y="163.634107"/>
     <use style="fill:#1f77b4;stroke:#1f77b4;" x="261.914979" xlink:href="#m3148d5e70d" y="92.062947"/>
     <use style="fill:#1f77b4;stroke:#1f77b4;" x="219.820831" xlink:href="#m3148d5e70d" y="173.858558"/>
     <use style="fill:#1f77b4;stroke:#1f77b4;" x="251.410292" xlink:href="#m3148d5e70d" y="146.593354"/>
     <use style="fill:#1f77b4;stroke:#1f77b4;" x="85.179703" xlink:href="#m3148d5e70d" y="201.123762"/>
     <use style="fill:#1f77b4;stroke:#1f77b4;" x="91.603942" xlink:href="#m3148d5e70d" y="190.89931"/>
     <use style="fill:#1f77b4;stroke:#1f77b4;" x="128.707023" xlink:href="#m3148d5e70d" y="92.062947"/>
     <use style="fill:#1f77b4;stroke:#1f77b4;" x="110.748492" xlink:href="#m3148d5e70d" y="167.042257"/>
     <use style="fill:#1f77b4;stroke:#1f77b4;" x="130.966418" xlink:href="#m3148d5e70d" y="194.307461"/>
     <use style="fill:#1f77b4;stroke:#1f77b4;" x="204.836785" xlink:href="#m3148d5e70d" y="170.450408"/>
     <use style="fill:#1f77b4;stroke:#1f77b4;" x="245.86042" xlink:href="#m3148d5e70d" y="190.89931"/>
     <use style="fill:#1f77b4;stroke:#1f77b4;" x="151.664961" xlink:href="#m3148d5e70d" y="184.083009"/>
     <use style="fill:#1f77b4;stroke:#1f77b4;" x="118.598558" xlink:href="#m3148d5e70d" y="170.450408"/>
     <use style="fill:#1f77b4;stroke:#1f77b4;" x="127.361796" xlink:href="#m3148d5e70d" y="190.89931"/>
     <use style="fill:#1f77b4;stroke:#1f77b4;" x="220.034384" xlink:href="#m3148d5e70d" y="194.307461"/>
     <use style="fill:#1f77b4;stroke:#1f77b4;" x="195.924384" xlink:href="#m3148d5e70d" y="167.042257"/>
     <use style="fill:#1f77b4;stroke:#1f77b4;" x="131.366932" xlink:href="#m3148d5e70d" y="167.042257"/>
     <use style="fill:#1f77b4;stroke:#1f77b4;" x="250.741835" xlink:href="#m3148d5e70d" y="119.32815"/>
     <use style="fill:#1f77b4;stroke:#1f77b4;" x="333.875827" xlink:href="#m3148d5e70d" y="98.879248"/>
     <use style="fill:#1f77b4;stroke:#1f77b4;" x="141.502596" xlink:href="#m3148d5e70d" y="177.266708"/>
     <use style="fill:#1f77b4;stroke:#1f77b4;" x="173.511643" xlink:href="#m3148d5e70d" y="177.266708"/>
     <use style="fill:#1f77b4;stroke:#1f77b4;" x="213.321538" xlink:href="#m3148d5e70d" y="139.777053"/>
     <use style="fill:#1f77b4;stroke:#1f77b4;" x="245.636051" xlink:href="#m3148d5e70d" y="126.144451"/>
     <use style="fill:#1f77b4;stroke:#1f77b4;" x="219.010793" xlink:href="#m3148d5e70d" y="112.51185"/>
     <use style="fill:#1f77b4;stroke:#1f77b4;" x="233.680337" xlink:href="#m3148d5e70d" y="156.817806"/>
     <use style="fill:#1f77b4;stroke:#1f77b4;" x="233.530091" xlink:href="#m3148d5e70d" y="115.92"/>
     <use style="fill:#1f77b4;stroke:#1f77b4;" x="119.137917" xlink:href="#m3148d5e70d" y="184.083009"/>
     <use style="fill:#1f77b4;stroke:#1f77b4;" x="158.628558" xlink:href="#m3148d5e70d" y="163.634107"/>
     <use style="fill:#1f77b4;stroke:#1f77b4;" x="42.143182" xlink:href="#m3148d5e70d" y="75.022194"/>
     <use style="fill:#1f77b4;stroke:#1f77b4;" x="331.477605" xlink:href="#m3148d5e70d" y="98.879248"/>
     <use style="fill:#1f77b4;stroke:#1f77b4;" x="113.557427" xlink:href="#m3148d5e70d" y="204.531912"/>
     <use style="fill:#1f77b4;stroke:#1f77b4;" x="147.766629" xlink:href="#m3148d5e70d" y="150.001505"/>
     <use style="fill:#1f77b4;stroke:#1f77b4;" x="167.493259" xlink:href="#m3148d5e70d" y="150.001505"/>
     <use style="fill:#1f77b4;stroke:#1f77b4;" x="121.711884" xlink:href="#m3148d5e70d" y="150.001505"/>
     <use style="fill:#1f77b4;stroke:#1f77b4;" x="334.661347" xlink:href="#m3148d5e70d" y="98.879248"/>
     <use style="fill:#1f77b4;stroke:#1f77b4;" x="269.227076" xlink:href="#m3148d5e70d" y="132.960752"/>
     <use style="fill:#1f77b4;stroke:#1f77b4;" x="109.696476" xlink:href="#m3148d5e70d" y="180.674859"/>
     <use style="fill:#1f77b4;stroke:#1f77b4;" x="215.601406" xlink:href="#m3148d5e70d" y="85.246646"/>
     <use style="fill:#1f77b4;stroke:#1f77b4;" x="257.256799" xlink:href="#m3148d5e70d" y="92.062947"/>
     <use style="fill:#1f77b4;stroke:#1f77b4;" x="126.00539" xlink:href="#m3148d5e70d" y="207.940063"/>
     <use style="fill:#1f77b4;stroke:#1f77b4;" x="82.018316" xlink:href="#m3148d5e70d" y="207.940063"/>
     <use style="fill:#1f77b4;stroke:#1f77b4;" x="169.014994" xlink:href="#m3148d5e70d" y="47.756991"/>
     <use style="fill:#1f77b4;stroke:#1f77b4;" x="143.953739" xlink:href="#m3148d5e70d" y="170.450408"/>
     <use style="fill:#1f77b4;stroke:#1f77b4;" x="257.845247" xlink:href="#m3148d5e70d" y="119.32815"/>
     <use style="fill:#1f77b4;stroke:#1f77b4;" x="155.111281" xlink:href="#m3148d5e70d" y="17.083636"/>
     <use style="fill:#1f77b4;stroke:#1f77b4;" x="176.607489" xlink:href="#m3148d5e70d" y="75.022194"/>
     <use style="fill:#1f77b4;stroke:#1f77b4;" x="259.748671" xlink:href="#m3148d5e70d" y="98.879248"/>
     <use style="fill:#1f77b4;stroke:#1f77b4;" x="132.531091" xlink:href="#m3148d5e70d" y="112.51185"/>
     <use style="fill:#1f77b4;stroke:#1f77b4;" x="153.790353" xlink:href="#m3148d5e70d" y="184.083009"/>
     <use style="fill:#1f77b4;stroke:#1f77b4;" x="221.691625" xlink:href="#m3148d5e70d" y="160.225956"/>
     <use style="fill:#1f77b4;stroke:#1f77b4;" x="117.995118" xlink:href="#m3148d5e70d" y="194.307461"/>
     <use style="fill:#1f77b4;stroke:#1f77b4;" x="87.508022" xlink:href="#m3148d5e70d" y="184.083009"/>
     <use style="fill:#1f77b4;stroke:#1f77b4;" x="221.645906" xlink:href="#m3148d5e70d" y="177.266708"/>
     <use style="fill:#1f77b4;stroke:#1f77b4;" x="95.053699" xlink:href="#m3148d5e70d" y="167.042257"/>
     <use style="fill:#1f77b4;stroke:#1f77b4;" x="109.696476" xlink:href="#m3148d5e70d" y="160.225956"/>
     <use style="fill:#1f77b4;stroke:#1f77b4;" x="118.66264" xlink:href="#m3148d5e70d" y="190.89931"/>
     <use style="fill:#1f77b4;stroke:#1f77b4;" x="254.288011" xlink:href="#m3148d5e70d" y="126.144451"/>
     <use style="fill:#1f77b4;stroke:#1f77b4;" x="160.844733" xlink:href="#m3148d5e70d" y="170.450408"/>
     <use style="fill:#1f77b4;stroke:#1f77b4;" x="42.143182" xlink:href="#m3148d5e70d" y="190.89931"/>
     <use style="fill:#1f77b4;stroke:#1f77b4;" x="235.295805" xlink:href="#m3148d5e70d" y="187.49116"/>
     <use style="fill:#1f77b4;stroke:#1f77b4;" x="217.363617" xlink:href="#m3148d5e70d" y="190.89931"/>
     <use style="fill:#1f77b4;stroke:#1f77b4;" x="110.588286" xlink:href="#m3148d5e70d" y="211.348213"/>
     <use style="fill:#1f77b4;stroke:#1f77b4;" x="85.932669" xlink:href="#m3148d5e70d" y="207.940063"/>
     <use style="fill:#1f77b4;stroke:#1f77b4;" x="266.508636" xlink:href="#m3148d5e70d" y="95.471097"/>
     <use style="fill:#1f77b4;stroke:#1f77b4;" x="227.635469" xlink:href="#m3148d5e70d" y="180.674859"/>
     <use style="fill:#1f77b4;stroke:#1f77b4;" x="226.955398" xlink:href="#m3148d5e70d" y="156.817806"/>
     <use style="fill:#1f77b4;stroke:#1f77b4;" x="226.836676" xlink:href="#m3148d5e70d" y="105.695549"/>
     <use style="fill:#1f77b4;stroke:#1f77b4;" x="140.63066" xlink:href="#m3148d5e70d" y="146.593354"/>
     <use style="fill:#1f77b4;stroke:#1f77b4;" x="150.377978" xlink:href="#m3148d5e70d" y="177.266708"/>
     <use style="fill:#1f77b4;stroke:#1f77b4;" x="189.68461" xlink:href="#m3148d5e70d" y="173.858558"/>
     <use style="fill:#1f77b4;stroke:#1f77b4;" x="219.494899" xlink:href="#m3148d5e70d" y="146.593354"/>
     <use style="fill:#1f77b4;stroke:#1f77b4;" x="130.42706" xlink:href="#m3148d5e70d" y="98.879248"/>
     <use style="fill:#1f77b4;stroke:#1f77b4;" x="218.235662" xlink:href="#m3148d5e70d" y="194.307461"/>
     <use style="fill:#1f77b4;stroke:#1f77b4;" x="243.169619" xlink:href="#m3148d5e70d" y="71.614044"/>
     <use style="fill:#1f77b4;stroke:#1f77b4;" x="203.075495" xlink:href="#m3148d5e70d" y="180.674859"/>
     <use style="fill:#1f77b4;stroke:#1f77b4;" x="190.242431" xlink:href="#m3148d5e70d" y="153.409655"/>
     <use style="fill:#1f77b4;stroke:#1f77b4;" x="113.461304" xlink:href="#m3148d5e70d" y="190.89931"/>
     <use style="fill:#1f77b4;stroke:#1f77b4;" x="83.946121" xlink:href="#m3148d5e70d" y="139.777053"/>
     <use style="fill:#1f77b4;stroke:#1f77b4;" x="204.82683" xlink:href="#m3148d5e70d" y="68.205893"/>
     <use style="fill:#1f77b4;stroke:#1f77b4;" x="102.74356" xlink:href="#m3148d5e70d" y="170.450408"/>
     <use style="fill:#1f77b4;stroke:#1f77b4;" x="114.24631" xlink:href="#m3148d5e70d" y="190.89931"/>
     <use style="fill:#1f77b4;stroke:#1f77b4;" x="249.068942" xlink:href="#m3148d5e70d" y="211.348213"/>
     <use style="fill:#1f77b4;stroke:#1f77b4;" x="233.915385" xlink:href="#m3148d5e70d" y="156.817806"/>
     <use style="fill:#1f77b4;stroke:#1f77b4;" x="174.339371" xlink:href="#m3148d5e70d" y="143.185204"/>
     <use style="fill:#1f77b4;stroke:#1f77b4;" x="167.947174" xlink:href="#m3148d5e70d" y="156.817806"/>
     <use style="fill:#1f77b4;stroke:#1f77b4;" x="97.317936" xlink:href="#m3148d5e70d" y="57.981442"/>
     <use style="fill:#1f77b4;stroke:#1f77b4;" x="136.589629" xlink:href="#m3148d5e70d" y="194.307461"/>
     <use style="fill:#1f77b4;stroke:#1f77b4;" x="122.096377" xlink:href="#m3148d5e70d" y="190.89931"/>
     <use style="fill:#1f77b4;stroke:#1f77b4;" x="100.902657" xlink:href="#m3148d5e70d" y="170.450408"/>
     <use style="fill:#1f77b4;stroke:#1f77b4;" x="216.18967" xlink:href="#m3148d5e70d" y="177.266708"/>
     <use style="fill:#1f77b4;stroke:#1f77b4;" x="139.825779" xlink:href="#m3148d5e70d" y="190.89931"/>
     <use style="fill:#1f77b4;stroke:#1f77b4;" x="191.86161" xlink:href="#m3148d5e70d" y="139.777053"/>
     <use style="fill:#1f77b4;stroke:#1f77b4;" x="176.028443" xlink:href="#m3148d5e70d" y="136.368903"/>
     <use style="fill:#1f77b4;stroke:#1f77b4;" x="126.555429" xlink:href="#m3148d5e70d" y="187.49116"/>
     <use style="fill:#1f77b4;stroke:#1f77b4;" x="232.984412" xlink:href="#m3148d5e70d" y="81.838495"/>
     <use style="fill:#1f77b4;stroke:#1f77b4;" x="199.321741" xlink:href="#m3148d5e70d" y="132.960752"/>
     <use style="fill:#1f77b4;stroke:#1f77b4;" x="247.470712" xlink:href="#m3148d5e70d" y="146.593354"/>
     <use style="fill:#1f77b4;stroke:#1f77b4;" x="84.821911" xlink:href="#m3148d5e70d" y="204.531912"/>
     <use style="fill:#1f77b4;stroke:#1f77b4;" x="126.694273" xlink:href="#m3148d5e70d" y="122.736301"/>
     <use style="fill:#1f77b4;stroke:#1f77b4;" x="264.098063" xlink:href="#m3148d5e70d" y="75.022194"/>
     <use style="fill:#1f77b4;stroke:#1f77b4;" x="213.600092" xlink:href="#m3148d5e70d" y="163.634107"/>
     <use style="fill:#1f77b4;stroke:#1f77b4;" x="90.359679" xlink:href="#m3148d5e70d" y="197.715611"/>
     <use style="fill:#1f77b4;stroke:#1f77b4;" x="142.485189" xlink:href="#m3148d5e70d" y="194.307461"/>
     <use style="fill:#1f77b4;stroke:#1f77b4;" x="121.396813" xlink:href="#m3148d5e70d" y="173.858558"/>
     <use style="fill:#1f77b4;stroke:#1f77b4;" x="265.397369" xlink:href="#m3148d5e70d" y="95.471097"/>
     <use style="fill:#1f77b4;stroke:#1f77b4;" x="223.511761" xlink:href="#m3148d5e70d" y="201.123762"/>
     <use style="fill:#1f77b4;stroke:#1f77b4;" x="195.589371" xlink:href="#m3148d5e70d" y="177.266708"/>
     <use style="fill:#1f77b4;stroke:#1f77b4;" x="168.929768" xlink:href="#m3148d5e70d" y="204.531912"/>
     <use style="fill:#1f77b4;stroke:#1f77b4;" x="238.752639" xlink:href="#m3148d5e70d" y="214.756364"/>
     <use style="fill:#1f77b4;stroke:#1f77b4;" x="141.993893" xlink:href="#m3148d5e70d" y="194.307461"/>
     <use style="fill:#1f77b4;stroke:#1f77b4;" x="229.607471" xlink:href="#m3148d5e70d" y="81.838495"/>
     <use style="fill:#1f77b4;stroke:#1f77b4;" x="88.90715" xlink:href="#m3148d5e70d" y="211.348213"/>
     <use style="fill:#1f77b4;stroke:#1f77b4;" x="110.807234" xlink:href="#m3148d5e70d" y="194.307461"/>
     <use style="fill:#1f77b4;stroke:#1f77b4;" x="91.523839" xlink:href="#m3148d5e70d" y="122.736301"/>
     <use style="fill:#1f77b4;stroke:#1f77b4;" x="219.009988" xlink:href="#m3148d5e70d" y="201.123762"/>
     <use style="fill:#1f77b4;stroke:#1f77b4;" x="208.965878" xlink:href="#m3148d5e70d" y="98.879248"/>
     <use style="fill:#1f77b4;stroke:#1f77b4;" x="295.716353" xlink:href="#m3148d5e70d" y="211.348213"/>
     <use style="fill:#1f77b4;stroke:#1f77b4;" x="287.365552" xlink:href="#m3148d5e70d" y="190.89931"/>
     <use style="fill:#1f77b4;stroke:#1f77b4;" x="233.290619" xlink:href="#m3148d5e70d" y="177.266708"/>
     <use style="fill:#1f77b4;stroke:#1f77b4;" x="157.699366" xlink:href="#m3148d5e70d" y="190.89931"/>
     <use style="fill:#1f77b4;stroke:#1f77b4;" x="107.576424" xlink:href="#m3148d5e70d" y="190.89931"/>
     <use style="fill:#1f77b4;stroke:#1f77b4;" x="198.367725" xlink:href="#m3148d5e70d" y="115.92"/>
     <use style="fill:#1f77b4;stroke:#1f77b4;" x="118.545156" xlink:href="#m3148d5e70d" y="180.674859"/>
     <use style="fill:#1f77b4;stroke:#1f77b4;" x="122.737199" xlink:href="#m3148d5e70d" y="153.409655"/>
     <use style="fill:#1f77b4;stroke:#1f77b4;" x="121.364772" xlink:href="#m3148d5e70d" y="197.715611"/>
     <use style="fill:#1f77b4;stroke:#1f77b4;" x="143.606628" xlink:href="#m3148d5e70d" y="177.266708"/>
     <use style="fill:#1f77b4;stroke:#1f77b4;" x="109.247901" xlink:href="#m3148d5e70d" y="207.940063"/>
     <use style="fill:#1f77b4;stroke:#1f77b4;" x="195.620342" xlink:href="#m3148d5e70d" y="23.899937"/>
     <use style="fill:#1f77b4;stroke:#1f77b4;" x="260.400351" xlink:href="#m3148d5e70d" y="68.205893"/>
     <use style="fill:#1f77b4;stroke:#1f77b4;" x="202.425474" xlink:href="#m3148d5e70d" y="122.736301"/>
     <use style="fill:#1f77b4;stroke:#1f77b4;" x="118.801485" xlink:href="#m3148d5e70d" y="197.715611"/>
     <use style="fill:#1f77b4;stroke:#1f77b4;" x="90.594647" xlink:href="#m3148d5e70d" y="184.083009"/>
     <use style="fill:#1f77b4;stroke:#1f77b4;" x="100.650209" xlink:href="#m3148d5e70d" y="177.266708"/>
     <use style="fill:#1f77b4;stroke:#1f77b4;" x="147.334074" xlink:href="#m3148d5e70d" y="132.960752"/>
     <use style="fill:#1f77b4;stroke:#1f77b4;" x="170.125968" xlink:href="#m3148d5e70d" y="173.858558"/>
     <use style="fill:#1f77b4;stroke:#1f77b4;" x="82.263964" xlink:href="#m3148d5e70d" y="126.144451"/>
     <use style="fill:#1f77b4;stroke:#1f77b4;" x="244.525375" xlink:href="#m3148d5e70d" y="163.634107"/>
     <use style="fill:#1f77b4;stroke:#1f77b4;" x="90.594647" xlink:href="#m3148d5e70d" y="184.083009"/>
     <use style="fill:#1f77b4;stroke:#1f77b4;" x="97.264534" xlink:href="#m3148d5e70d" y="194.307461"/>
     <use style="fill:#1f77b4;stroke:#1f77b4;" x="225.405928" xlink:href="#m3148d5e70d" y="88.654796"/>
     <use style="fill:#1f77b4;stroke:#1f77b4;" x="277.724365" xlink:href="#m3148d5e70d" y="190.89931"/>
     <use style="fill:#1f77b4;stroke:#1f77b4;" x="216.13584" xlink:href="#m3148d5e70d" y="146.593354"/>
     <use style="fill:#1f77b4;stroke:#1f77b4;" x="171.090786" xlink:href="#m3148d5e70d" y="122.736301"/>
     <use style="fill:#1f77b4;stroke:#1f77b4;" x="205.398871" xlink:href="#m3148d5e70d" y="88.654796"/>
     <use style="fill:#1f77b4;stroke:#1f77b4;" x="204.441974" xlink:href="#m3148d5e70d" y="190.89931"/>
     <use style="fill:#1f77b4;stroke:#1f77b4;" x="87.385198" xlink:href="#m3148d5e70d" y="143.185204"/>
     <use style="fill:#1f77b4;stroke:#1f77b4;" x="221.105979" xlink:href="#m3148d5e70d" y="129.552602"/>
     <use style="fill:#1f77b4;stroke:#1f77b4;" x="103.32564" xlink:href="#m3148d5e70d" y="190.89931"/>
     <use style="fill:#1f77b4;stroke:#1f77b4;" x="229.467918" xlink:href="#m3148d5e70d" y="78.430345"/>
     <use style="fill:#1f77b4;stroke:#1f77b4;" x="225.966171" xlink:href="#m3148d5e70d" y="119.32815"/>
     <use style="fill:#1f77b4;stroke:#1f77b4;" x="255.96837" xlink:href="#m3148d5e70d" y="112.51185"/>
     <use style="fill:#1f77b4;stroke:#1f77b4;" x="206.753113" xlink:href="#m3148d5e70d" y="129.552602"/>
     <use style="fill:#1f77b4;stroke:#1f77b4;" x="163.166829" xlink:href="#m3148d5e70d" y="132.960752"/>
     <use style="fill:#1f77b4;stroke:#1f77b4;" x="218.703296" xlink:href="#m3148d5e70d" y="40.94069"/>
     <use style="fill:#1f77b4;stroke:#1f77b4;" x="107.838093" xlink:href="#m3148d5e70d" y="132.960752"/>
     <use style="fill:#1f77b4;stroke:#1f77b4;" x="222.03802" xlink:href="#m3148d5e70d" y="150.001505"/>
     <use style="fill:#1f77b4;stroke:#1f77b4;" x="246.115732" xlink:href="#m3148d5e70d" y="109.103699"/>
     <use style="fill:#1f77b4;stroke:#1f77b4;" x="78.483116" xlink:href="#m3148d5e70d" y="194.307461"/>
     <use style="fill:#1f77b4;stroke:#1f77b4;" x="100.457962" xlink:href="#m3148d5e70d" y="197.715611"/>
     <use style="fill:#1f77b4;stroke:#1f77b4;" x="218.450182" xlink:href="#m3148d5e70d" y="177.266708"/>
     <use style="fill:#1f77b4;stroke:#1f77b4;" x="215.704416" xlink:href="#m3148d5e70d" y="180.674859"/>
     <use style="fill:#1f77b4;stroke:#1f77b4;" x="327.793351" xlink:href="#m3148d5e70d" y="115.92"/>
     <use style="fill:#1f77b4;stroke:#1f77b4;" x="195.219379" xlink:href="#m3148d5e70d" y="160.225956"/>
     <use style="fill:#1f77b4;stroke:#1f77b4;" x="200.855541" xlink:href="#m3148d5e70d" y="98.879248"/>
     <use style="fill:#1f77b4;stroke:#1f77b4;" x="192.474627" xlink:href="#m3148d5e70d" y="177.266708"/>
     <use style="fill:#1f77b4;stroke:#1f77b4;" x="261.75404" xlink:href="#m3148d5e70d" y="75.022194"/>
     <use style="fill:#1f77b4;stroke:#1f77b4;" x="299.275362" xlink:href="#m3148d5e70d" y="51.165141"/>
     <use style="fill:#1f77b4;stroke:#1f77b4;" x="100.708951" xlink:href="#m3148d5e70d" y="197.715611"/>
     <use style="fill:#1f77b4;stroke:#1f77b4;" x="129.615352" xlink:href="#m3148d5e70d" y="156.817806"/>
     <use style="fill:#1f77b4;stroke:#1f77b4;" x="67.156843" xlink:href="#m3148d5e70d" y="17.083636"/>
     <use style="fill:#1f77b4;stroke:#1f77b4;" x="194.950042" xlink:href="#m3148d5e70d" y="129.552602"/>
     <use style="fill:#1f77b4;stroke:#1f77b4;" x="102.262944" xlink:href="#m3148d5e70d" y="190.89931"/>
     <use style="fill:#1f77b4;stroke:#1f77b4;" x="81.927533" xlink:href="#m3148d5e70d" y="160.225956"/>
     <use style="fill:#1f77b4;stroke:#1f77b4;" x="92.381218" xlink:href="#m3148d5e70d" y="129.552602"/>
     <use style="fill:#1f77b4;stroke:#1f77b4;" x="126.8972" xlink:href="#m3148d5e70d" y="109.103699"/>
     <use style="fill:#1f77b4;stroke:#1f77b4;" x="98.887949" xlink:href="#m3148d5e70d" y="180.674859"/>
     <use style="fill:#1f77b4;stroke:#1f77b4;" x="206.639921" xlink:href="#m3148d5e70d" y="122.736301"/>
     <use style="fill:#1f77b4;stroke:#1f77b4;" x="83.994183" xlink:href="#m3148d5e70d" y="204.531912"/>
     <use style="fill:#1f77b4;stroke:#1f77b4;" x="346.506818" xlink:href="#m3148d5e70d" y="190.89931"/>
     <use style="fill:#1f77b4;stroke:#1f77b4;" x="223.143289" xlink:href="#m3148d5e70d" y="153.409655"/>
     <use style="fill:#1f77b4;stroke:#1f77b4;" x="192.741886" xlink:href="#m3148d5e70d" y="95.471097"/>
     <use style="fill:#1f77b4;stroke:#1f77b4;" x="114.652164" xlink:href="#m3148d5e70d" y="177.266708"/>
     <use style="fill:#1f77b4;stroke:#1f77b4;" x="118.748083" xlink:href="#m3148d5e70d" y="194.307461"/>
     <use style="fill:#1f77b4;stroke:#1f77b4;" x="256.709461" xlink:href="#m3148d5e70d" y="85.246646"/>
     <use style="fill:#1f77b4;stroke:#1f77b4;" x="101.456576" xlink:href="#m3148d5e70d" y="184.083009"/>
     <use style="fill:#1f77b4;stroke:#1f77b4;" x="105.418991" xlink:href="#m3148d5e70d" y="163.634107"/>
     <use style="fill:#1f77b4;stroke:#1f77b4;" x="229.04557" xlink:href="#m3148d5e70d" y="109.103699"/>
     <use style="fill:#1f77b4;stroke:#1f77b4;" x="124.179048" xlink:href="#m3148d5e70d" y="211.348213"/>
     <use style="fill:#1f77b4;stroke:#1f77b4;" x="221.693469" xlink:href="#m3148d5e70d" y="194.307461"/>
     <use style="fill:#1f77b4;stroke:#1f77b4;" x="112.825003" xlink:href="#m3148d5e70d" y="122.736301"/>
     <use style="fill:#1f77b4;stroke:#1f77b4;" x="170.475976" xlink:href="#m3148d5e70d" y="51.165141"/>
     <use style="fill:#1f77b4;stroke:#1f77b4;" x="219.298196" xlink:href="#m3148d5e70d" y="57.981442"/>
    </g>
   </g>
   <g id="matplotlib.axis_1">
    <g id="xtick_1">
     <g id="line2d_1">
      <defs>
       <path d="M 0 0 
L 0 3.5 
" id="md67af10fdb" style="stroke:#000000;stroke-width:0.8;"/>
      </defs>
      <g>
       <use style="stroke:#000000;stroke-width:0.8;" x="42.143182" xlink:href="#md67af10fdb" y="224.64"/>
      </g>
     </g>
     <g id="text_1">
      <!-- −1.00 -->
      <g transform="translate(26.820526 239.238437)scale(0.1 -0.1)">
       <defs>
        <path d="M 10.59375 35.5 
L 73.1875 35.5 
L 73.1875 27.203125 
L 10.59375 27.203125 
z
" id="DejaVuSans-8722"/>
        <path d="M 12.40625 8.296875 
L 28.515625 8.296875 
L 28.515625 63.921875 
L 10.984375 60.40625 
L 10.984375 69.390625 
L 28.421875 72.90625 
L 38.28125 72.90625 
L 38.28125 8.296875 
L 54.390625 8.296875 
L 54.390625 0 
L 12.40625 0 
z
" id="DejaVuSans-49"/>
        <path d="M 10.6875 12.40625 
L 21 12.40625 
L 21 0 
L 10.6875 0 
z
" id="DejaVuSans-46"/>
        <path d="M 31.78125 66.40625 
Q 24.171875 66.40625 20.328125 58.90625 
Q 16.5 51.421875 16.5 36.375 
Q 16.5 21.390625 20.328125 13.890625 
Q 24.171875 6.390625 31.78125 6.390625 
Q 39.453125 6.390625 43.28125 13.890625 
Q 47.125 21.390625 47.125 36.375 
Q 47.125 51.421875 43.28125 58.90625 
Q 39.453125 66.40625 31.78125 66.40625 
z
M 31.78125 74.21875 
Q 44.046875 74.21875 50.515625 64.515625 
Q 56.984375 54.828125 56.984375 36.375 
Q 56.984375 17.96875 50.515625 8.265625 
Q 44.046875 -1.421875 31.78125 -1.421875 
Q 19.53125 -1.421875 13.0625 8.265625 
Q 6.59375 17.96875 6.59375 36.375 
Q 6.59375 54.828125 13.0625 64.515625 
Q 19.53125 74.21875 31.78125 74.21875 
z
" id="DejaVuSans-48"/>
       </defs>
       <use xlink:href="#DejaVuSans-8722"/>
       <use x="83.789062" xlink:href="#DejaVuSans-49"/>
       <use x="147.412109" xlink:href="#DejaVuSans-46"/>
       <use x="179.199219" xlink:href="#DejaVuSans-48"/>
       <use x="242.822266" xlink:href="#DejaVuSans-48"/>
      </g>
     </g>
    </g>
    <g id="xtick_2">
     <g id="line2d_2">
      <g>
       <use style="stroke:#000000;stroke-width:0.8;" x="80.188636" xlink:href="#md67af10fdb" y="224.64"/>
      </g>
     </g>
     <g id="text_2">
      <!-- −0.75 -->
      <g transform="translate(64.86598 239.238437)scale(0.1 -0.1)">
       <defs>
        <path d="M 8.203125 72.90625 
L 55.078125 72.90625 
L 55.078125 68.703125 
L 28.609375 0 
L 18.3125 0 
L 43.21875 64.59375 
L 8.203125 64.59375 
z
" id="DejaVuSans-55"/>
        <path d="M 10.796875 72.90625 
L 49.515625 72.90625 
L 49.515625 64.59375 
L 19.828125 64.59375 
L 19.828125 46.734375 
Q 21.96875 47.46875 24.109375 47.828125 
Q 26.265625 48.1875 28.421875 48.1875 
Q 40.625 48.1875 47.75 41.5 
Q 54.890625 34.8125 54.890625 23.390625 
Q 54.890625 11.625 47.5625 5.09375 
Q 40.234375 -1.421875 26.90625 -1.421875 
Q 22.3125 -1.421875 17.546875 -0.640625 
Q 12.796875 0.140625 7.71875 1.703125 
L 7.71875 11.625 
Q 12.109375 9.234375 16.796875 8.0625 
Q 21.484375 6.890625 26.703125 6.890625 
Q 35.15625 6.890625 40.078125 11.328125 
Q 45.015625 15.765625 45.015625 23.390625 
Q 45.015625 31 40.078125 35.4375 
Q 35.15625 39.890625 26.703125 39.890625 
Q 22.75 39.890625 18.8125 39.015625 
Q 14.890625 38.140625 10.796875 36.28125 
z
" id="DejaVuSans-53"/>
       </defs>
       <use xlink:href="#DejaVuSans-8722"/>
       <use x="83.789062" xlink:href="#DejaVuSans-48"/>
       <use x="147.412109" xlink:href="#DejaVuSans-46"/>
       <use x="179.199219" xlink:href="#DejaVuSans-55"/>
       <use x="242.822266" xlink:href="#DejaVuSans-53"/>
      </g>
     </g>
    </g>
    <g id="xtick_3">
     <g id="line2d_3">
      <g>
       <use style="stroke:#000000;stroke-width:0.8;" x="118.234091" xlink:href="#md67af10fdb" y="224.64"/>
      </g>
     </g>
     <g id="text_3">
      <!-- −0.50 -->
      <g transform="translate(102.911435 239.238437)scale(0.1 -0.1)">
       <use xlink:href="#DejaVuSans-8722"/>
       <use x="83.789062" xlink:href="#DejaVuSans-48"/>
       <use x="147.412109" xlink:href="#DejaVuSans-46"/>
       <use x="179.199219" xlink:href="#DejaVuSans-53"/>
       <use x="242.822266" xlink:href="#DejaVuSans-48"/>
      </g>
     </g>
    </g>
    <g id="xtick_4">
     <g id="line2d_4">
      <g>
       <use style="stroke:#000000;stroke-width:0.8;" x="156.279545" xlink:href="#md67af10fdb" y="224.64"/>
      </g>
     </g>
     <g id="text_4">
      <!-- −0.25 -->
      <g transform="translate(140.956889 239.238437)scale(0.1 -0.1)">
       <defs>
        <path d="M 19.1875 8.296875 
L 53.609375 8.296875 
L 53.609375 0 
L 7.328125 0 
L 7.328125 8.296875 
Q 12.9375 14.109375 22.625 23.890625 
Q 32.328125 33.6875 34.8125 36.53125 
Q 39.546875 41.84375 41.421875 45.53125 
Q 43.3125 49.21875 43.3125 52.78125 
Q 43.3125 58.59375 39.234375 62.25 
Q 35.15625 65.921875 28.609375 65.921875 
Q 23.96875 65.921875 18.8125 64.3125 
Q 13.671875 62.703125 7.8125 59.421875 
L 7.8125 69.390625 
Q 13.765625 71.78125 18.9375 73 
Q 24.125 74.21875 28.421875 74.21875 
Q 39.75 74.21875 46.484375 68.546875 
Q 53.21875 62.890625 53.21875 53.421875 
Q 53.21875 48.921875 51.53125 44.890625 
Q 49.859375 40.875 45.40625 35.40625 
Q 44.1875 33.984375 37.640625 27.21875 
Q 31.109375 20.453125 19.1875 8.296875 
z
" id="DejaVuSans-50"/>
       </defs>
       <use xlink:href="#DejaVuSans-8722"/>
       <use x="83.789062" xlink:href="#DejaVuSans-48"/>
       <use x="147.412109" xlink:href="#DejaVuSans-46"/>
       <use x="179.199219" xlink:href="#DejaVuSans-50"/>
       <use x="242.822266" xlink:href="#DejaVuSans-53"/>
      </g>
     </g>
    </g>
    <g id="xtick_5">
     <g id="line2d_5">
      <g>
       <use style="stroke:#000000;stroke-width:0.8;" x="194.325" xlink:href="#md67af10fdb" y="224.64"/>
      </g>
     </g>
     <g id="text_5">
      <!-- 0.00 -->
      <g transform="translate(183.192188 239.238437)scale(0.1 -0.1)">
       <use xlink:href="#DejaVuSans-48"/>
       <use x="63.623047" xlink:href="#DejaVuSans-46"/>
       <use x="95.410156" xlink:href="#DejaVuSans-48"/>
       <use x="159.033203" xlink:href="#DejaVuSans-48"/>
      </g>
     </g>
    </g>
    <g id="xtick_6">
     <g id="line2d_6">
      <g>
       <use style="stroke:#000000;stroke-width:0.8;" x="232.370455" xlink:href="#md67af10fdb" y="224.64"/>
      </g>
     </g>
     <g id="text_6">
      <!-- 0.25 -->
      <g transform="translate(221.237642 239.238437)scale(0.1 -0.1)">
       <use xlink:href="#DejaVuSans-48"/>
       <use x="63.623047" xlink:href="#DejaVuSans-46"/>
       <use x="95.410156" xlink:href="#DejaVuSans-50"/>
       <use x="159.033203" xlink:href="#DejaVuSans-53"/>
      </g>
     </g>
    </g>
    <g id="xtick_7">
     <g id="line2d_7">
      <g>
       <use style="stroke:#000000;stroke-width:0.8;" x="270.415909" xlink:href="#md67af10fdb" y="224.64"/>
      </g>
     </g>
     <g id="text_7">
      <!-- 0.50 -->
      <g transform="translate(259.283097 239.238437)scale(0.1 -0.1)">
       <use xlink:href="#DejaVuSans-48"/>
       <use x="63.623047" xlink:href="#DejaVuSans-46"/>
       <use x="95.410156" xlink:href="#DejaVuSans-53"/>
       <use x="159.033203" xlink:href="#DejaVuSans-48"/>
      </g>
     </g>
    </g>
    <g id="xtick_8">
     <g id="line2d_8">
      <g>
       <use style="stroke:#000000;stroke-width:0.8;" x="308.461364" xlink:href="#md67af10fdb" y="224.64"/>
      </g>
     </g>
     <g id="text_8">
      <!-- 0.75 -->
      <g transform="translate(297.328551 239.238437)scale(0.1 -0.1)">
       <use xlink:href="#DejaVuSans-48"/>
       <use x="63.623047" xlink:href="#DejaVuSans-46"/>
       <use x="95.410156" xlink:href="#DejaVuSans-55"/>
       <use x="159.033203" xlink:href="#DejaVuSans-53"/>
      </g>
     </g>
    </g>
    <g id="xtick_9">
     <g id="line2d_9">
      <g>
       <use style="stroke:#000000;stroke-width:0.8;" x="346.506818" xlink:href="#md67af10fdb" y="224.64"/>
      </g>
     </g>
     <g id="text_9">
      <!-- 1.00 -->
      <g transform="translate(335.374006 239.238437)scale(0.1 -0.1)">
       <use xlink:href="#DejaVuSans-49"/>
       <use x="63.623047" xlink:href="#DejaVuSans-46"/>
       <use x="95.410156" xlink:href="#DejaVuSans-48"/>
       <use x="159.033203" xlink:href="#DejaVuSans-48"/>
      </g>
     </g>
    </g>
   </g>
   <g id="matplotlib.axis_2">
    <g id="ytick_1">
     <g id="line2d_10">
      <defs>
       <path d="M 0 0 
L -3.5 0 
" id="m865c3a676a" style="stroke:#000000;stroke-width:0.8;"/>
      </defs>
      <g>
       <use style="stroke:#000000;stroke-width:0.8;" x="26.925" xlink:href="#m865c3a676a" y="221.572665"/>
      </g>
     </g>
     <g id="text_10">
      <!-- 4 -->
      <g transform="translate(13.5625 225.371883)scale(0.1 -0.1)">
       <defs>
        <path d="M 37.796875 64.3125 
L 12.890625 25.390625 
L 37.796875 25.390625 
z
M 35.203125 72.90625 
L 47.609375 72.90625 
L 47.609375 25.390625 
L 58.015625 25.390625 
L 58.015625 17.1875 
L 47.609375 17.1875 
L 47.609375 0 
L 37.796875 0 
L 37.796875 17.1875 
L 4.890625 17.1875 
L 4.890625 26.703125 
z
" id="DejaVuSans-52"/>
       </defs>
       <use xlink:href="#DejaVuSans-52"/>
      </g>
     </g>
    </g>
    <g id="ytick_2">
     <g id="line2d_11">
      <g>
       <use style="stroke:#000000;stroke-width:0.8;" x="26.925" xlink:href="#m865c3a676a" y="187.49116"/>
      </g>
     </g>
     <g id="text_11">
      <!-- 5 -->
      <g transform="translate(13.5625 191.290379)scale(0.1 -0.1)">
       <use xlink:href="#DejaVuSans-53"/>
      </g>
     </g>
    </g>
    <g id="ytick_3">
     <g id="line2d_12">
      <g>
       <use style="stroke:#000000;stroke-width:0.8;" x="26.925" xlink:href="#m865c3a676a" y="153.409655"/>
      </g>
     </g>
     <g id="text_12">
      <!-- 6 -->
      <g transform="translate(13.5625 157.208874)scale(0.1 -0.1)">
       <defs>
        <path d="M 33.015625 40.375 
Q 26.375 40.375 22.484375 35.828125 
Q 18.609375 31.296875 18.609375 23.390625 
Q 18.609375 15.53125 22.484375 10.953125 
Q 26.375 6.390625 33.015625 6.390625 
Q 39.65625 6.390625 43.53125 10.953125 
Q 47.40625 15.53125 47.40625 23.390625 
Q 47.40625 31.296875 43.53125 35.828125 
Q 39.65625 40.375 33.015625 40.375 
z
M 52.59375 71.296875 
L 52.59375 62.3125 
Q 48.875 64.0625 45.09375 64.984375 
Q 41.3125 65.921875 37.59375 65.921875 
Q 27.828125 65.921875 22.671875 59.328125 
Q 17.53125 52.734375 16.796875 39.40625 
Q 19.671875 43.65625 24.015625 45.921875 
Q 28.375 48.1875 33.59375 48.1875 
Q 44.578125 48.1875 50.953125 41.515625 
Q 57.328125 34.859375 57.328125 23.390625 
Q 57.328125 12.15625 50.6875 5.359375 
Q 44.046875 -1.421875 33.015625 -1.421875 
Q 20.359375 -1.421875 13.671875 8.265625 
Q 6.984375 17.96875 6.984375 36.375 
Q 6.984375 53.65625 15.1875 63.9375 
Q 23.390625 74.21875 37.203125 74.21875 
Q 40.921875 74.21875 44.703125 73.484375 
Q 48.484375 72.75 52.59375 71.296875 
z
" id="DejaVuSans-54"/>
       </defs>
       <use xlink:href="#DejaVuSans-54"/>
      </g>
     </g>
    </g>
    <g id="ytick_4">
     <g id="line2d_13">
      <g>
       <use style="stroke:#000000;stroke-width:0.8;" x="26.925" xlink:href="#m865c3a676a" y="119.32815"/>
      </g>
     </g>
     <g id="text_13">
      <!-- 7 -->
      <g transform="translate(13.5625 123.127369)scale(0.1 -0.1)">
       <use xlink:href="#DejaVuSans-55"/>
      </g>
     </g>
    </g>
    <g id="ytick_5">
     <g id="line2d_14">
      <g>
       <use style="stroke:#000000;stroke-width:0.8;" x="26.925" xlink:href="#m865c3a676a" y="85.246646"/>
      </g>
     </g>
     <g id="text_14">
      <!-- 8 -->
      <g transform="translate(13.5625 89.045865)scale(0.1 -0.1)">
       <defs>
        <path d="M 31.78125 34.625 
Q 24.75 34.625 20.71875 30.859375 
Q 16.703125 27.09375 16.703125 20.515625 
Q 16.703125 13.921875 20.71875 10.15625 
Q 24.75 6.390625 31.78125 6.390625 
Q 38.8125 6.390625 42.859375 10.171875 
Q 46.921875 13.96875 46.921875 20.515625 
Q 46.921875 27.09375 42.890625 30.859375 
Q 38.875 34.625 31.78125 34.625 
z
M 21.921875 38.8125 
Q 15.578125 40.375 12.03125 44.71875 
Q 8.5 49.078125 8.5 55.328125 
Q 8.5 64.0625 14.71875 69.140625 
Q 20.953125 74.21875 31.78125 74.21875 
Q 42.671875 74.21875 48.875 69.140625 
Q 55.078125 64.0625 55.078125 55.328125 
Q 55.078125 49.078125 51.53125 44.71875 
Q 48 40.375 41.703125 38.8125 
Q 48.828125 37.15625 52.796875 32.3125 
Q 56.78125 27.484375 56.78125 20.515625 
Q 56.78125 9.90625 50.3125 4.234375 
Q 43.84375 -1.421875 31.78125 -1.421875 
Q 19.734375 -1.421875 13.25 4.234375 
Q 6.78125 9.90625 6.78125 20.515625 
Q 6.78125 27.484375 10.78125 32.3125 
Q 14.796875 37.15625 21.921875 38.8125 
z
M 18.3125 54.390625 
Q 18.3125 48.734375 21.84375 45.5625 
Q 25.390625 42.390625 31.78125 42.390625 
Q 38.140625 42.390625 41.71875 45.5625 
Q 45.3125 48.734375 45.3125 54.390625 
Q 45.3125 60.0625 41.71875 63.234375 
Q 38.140625 66.40625 31.78125 66.40625 
Q 25.390625 66.40625 21.84375 63.234375 
Q 18.3125 60.0625 18.3125 54.390625 
z
" id="DejaVuSans-56"/>
       </defs>
       <use xlink:href="#DejaVuSans-56"/>
      </g>
     </g>
    </g>
    <g id="ytick_6">
     <g id="line2d_15">
      <g>
       <use style="stroke:#000000;stroke-width:0.8;" x="26.925" xlink:href="#m865c3a676a" y="51.165141"/>
      </g>
     </g>
     <g id="text_15">
      <!-- 9 -->
      <g transform="translate(13.5625 54.96436)scale(0.1 -0.1)">
       <defs>
        <path d="M 10.984375 1.515625 
L 10.984375 10.5 
Q 14.703125 8.734375 18.5 7.8125 
Q 22.3125 6.890625 25.984375 6.890625 
Q 35.75 6.890625 40.890625 13.453125 
Q 46.046875 20.015625 46.78125 33.40625 
Q 43.953125 29.203125 39.59375 26.953125 
Q 35.25 24.703125 29.984375 24.703125 
Q 19.046875 24.703125 12.671875 31.3125 
Q 6.296875 37.9375 6.296875 49.421875 
Q 6.296875 60.640625 12.9375 67.421875 
Q 19.578125 74.21875 30.609375 74.21875 
Q 43.265625 74.21875 49.921875 64.515625 
Q 56.59375 54.828125 56.59375 36.375 
Q 56.59375 19.140625 48.40625 8.859375 
Q 40.234375 -1.421875 26.421875 -1.421875 
Q 22.703125 -1.421875 18.890625 -0.6875 
Q 15.09375 0.046875 10.984375 1.515625 
z
M 30.609375 32.421875 
Q 37.25 32.421875 41.125 36.953125 
Q 45.015625 41.5 45.015625 49.421875 
Q 45.015625 57.28125 41.125 61.84375 
Q 37.25 66.40625 30.609375 66.40625 
Q 23.96875 66.40625 20.09375 61.84375 
Q 16.21875 57.28125 16.21875 49.421875 
Q 16.21875 41.5 20.09375 36.953125 
Q 23.96875 32.421875 30.609375 32.421875 
z
" id="DejaVuSans-57"/>
       </defs>
       <use xlink:href="#DejaVuSans-57"/>
      </g>
     </g>
    </g>
    <g id="ytick_7">
     <g id="line2d_16">
      <g>
       <use style="stroke:#000000;stroke-width:0.8;" x="26.925" xlink:href="#m865c3a676a" y="17.083636"/>
      </g>
     </g>
     <g id="text_16">
      <!-- 10 -->
      <g transform="translate(7.2 20.882855)scale(0.1 -0.1)">
       <use xlink:href="#DejaVuSans-49"/>
       <use x="63.623047" xlink:href="#DejaVuSans-48"/>
      </g>
     </g>
    </g>
   </g>
   <g id="patch_3">
    <path d="M 26.925 224.64 
L 26.925 7.2 
" style="fill:none;stroke:#000000;stroke-linecap:square;stroke-linejoin:miter;stroke-width:0.8;"/>
   </g>
   <g id="patch_4">
    <path d="M 361.725 224.64 
L 361.725 7.2 
" style="fill:none;stroke:#000000;stroke-linecap:square;stroke-linejoin:miter;stroke-width:0.8;"/>
   </g>
   <g id="patch_5">
    <path d="M 26.925 224.64 
L 361.725 224.64 
" style="fill:none;stroke:#000000;stroke-linecap:square;stroke-linejoin:miter;stroke-width:0.8;"/>
   </g>
   <g id="patch_6">
    <path d="M 26.925 7.2 
L 361.725 7.2 
" style="fill:none;stroke:#000000;stroke-linecap:square;stroke-linejoin:miter;stroke-width:0.8;"/>
   </g>
  </g>
 </g>
 <defs>
  <clipPath id="pdcd8765aab">
   <rect height="217.44" width="334.8" x="26.925" y="7.2"/>
  </clipPath>
 </defs>
</svg>
