<?xml version="1.0" encoding="utf-8" standalone="no"?>
<!DOCTYPE svg PUBLIC "-//W3C//DTD SVG 1.1//EN"
  "http://www.w3.org/Graphics/SVG/1.1/DTD/svg11.dtd">
<!-- Created with matplotlib (https://matplotlib.org/) -->
<svg height="262.19625pt" version="1.1" viewBox="0 0 392.14375 262.19625" width="392.14375pt" xmlns="http://www.w3.org/2000/svg" xmlns:xlink="http://www.w3.org/1999/xlink">
 <metadata>
  <rdf:RDF xmlns:cc="http://creativecommons.org/ns#" xmlns:dc="http://purl.org/dc/elements/1.1/" xmlns:rdf="http://www.w3.org/1999/02/22-rdf-syntax-ns#">
   <cc:Work>
    <dc:type rdf:resource="http://purl.org/dc/dcmitype/StillImage"/>
    <dc:date>2020-10-14T16:00:33.199916</dc:date>
    <dc:format>image/svg+xml</dc:format>
    <dc:creator>
     <cc:Agent>
      <dc:title>Matplotlib v3.3.2, https://matplotlib.org/</dc:title>
     </cc:Agent>
    </dc:creator>
   </cc:Work>
  </rdf:RDF>
 </metadata>
 <defs>
  <style type="text/css">*{stroke-linecap:butt;stroke-linejoin:round;}</style>
 </defs>
 <g id="figure_1">
  <g id="patch_1">
   <path d="M -0 262.19625 
L 392.14375 262.19625 
L 392.14375 0 
L -0 0 
z
" style="fill:none;"/>
  </g>
  <g id="axes_1">
   <g id="patch_2">
    <path d="M 50.14375 224.64 
L 384.94375 224.64 
L 384.94375 7.2 
L 50.14375 7.2 
z
" style="fill:#ffffff;"/>
   </g>
   <g id="PathCollection_1">
    <defs>
     <path d="M 0 1.936492 
C 0.513564 1.936492 1.006162 1.732451 1.369306 1.369306 
C 1.732451 1.006162 1.936492 0.513564 1.936492 0 
C 1.936492 -0.513564 1.732451 -1.006162 1.369306 -1.369306 
C 1.006162 -1.732451 0.513564 -1.936492 0 -1.936492 
C -0.513564 -1.936492 -1.006162 -1.732451 -1.369306 -1.369306 
C -1.732451 -1.006162 -1.936492 -0.513564 -1.936492 0 
C -1.936492 0.513564 -1.732451 1.006162 -1.369306 1.369306 
C -1.006162 1.732451 -0.513564 1.936492 0 1.936492 
z
" id="m14649c5a50" style="stroke:#1f77b4;"/>
    </defs>
    <g clip-path="url(#p14b97ae665)">
     <use style="fill:#1f77b4;stroke:#1f77b4;" x="149.499865" xlink:href="#m14649c5a50" y="171.256051"/>
     <use style="fill:#1f77b4;stroke:#1f77b4;" x="123.908138" xlink:href="#m14649c5a50" y="161.876469"/>
     <use style="fill:#1f77b4;stroke:#1f77b4;" x="172.0808" xlink:href="#m14649c5a50" y="163.459761"/>
     <use style="fill:#1f77b4;stroke:#1f77b4;" x="137.4567" xlink:href="#m14649c5a50" y="158.889089"/>
     <use style="fill:#1f77b4;stroke:#1f77b4;" x="128.424326" xlink:href="#m14649c5a50" y="164.118826"/>
     <use style="fill:#1f77b4;stroke:#1f77b4;" x="128.424326" xlink:href="#m14649c5a50" y="164.010983"/>
     <use style="fill:#1f77b4;stroke:#1f77b4;" x="117.886556" xlink:href="#m14649c5a50" y="175.330784"/>
     <use style="fill:#1f77b4;stroke:#1f77b4;" x="154.016052" xlink:href="#m14649c5a50" y="168.23956"/>
     <use style="fill:#1f77b4;stroke:#1f77b4;" x="158.532239" xlink:href="#m14649c5a50" y="165.516694"/>
     <use style="fill:#1f77b4;stroke:#1f77b4;" x="146.489074" xlink:href="#m14649c5a50" y="164.349378"/>
     <use style="fill:#1f77b4;stroke:#1f77b4;" x="129.929721" xlink:href="#m14649c5a50" y="166.493142"/>
     <use style="fill:#1f77b4;stroke:#1f77b4;" x="158.532239" xlink:href="#m14649c5a50" y="170.716284"/>
     <use style="fill:#1f77b4;stroke:#1f77b4;" x="125.413534" xlink:href="#m14649c5a50" y="159.751684"/>
     <use style="fill:#1f77b4;stroke:#1f77b4;" x="123.908138" xlink:href="#m14649c5a50" y="160.330011"/>
     <use style="fill:#1f77b4;stroke:#1f77b4;" x="146.489074" xlink:href="#m14649c5a50" y="168.468872"/>
     <use style="fill:#1f77b4;stroke:#1f77b4;" x="164.553822" xlink:href="#m14649c5a50" y="149.548638"/>
     <use style="fill:#1f77b4;stroke:#1f77b4;" x="154.016052" xlink:href="#m14649c5a50" y="159.516596"/>
     <use style="fill:#1f77b4;stroke:#1f77b4;" x="120.897347" xlink:href="#m14649c5a50" y="165.060941"/>
     <use style="fill:#1f77b4;stroke:#1f77b4;" x="152.510656" xlink:href="#m14649c5a50" y="153.833809"/>
     <use style="fill:#1f77b4;stroke:#1f77b4;" x="175.091592" xlink:href="#m14649c5a50" y="162.342685"/>
     <use style="fill:#1f77b4;stroke:#1f77b4;" x="164.553822" xlink:href="#m14649c5a50" y="147.869308"/>
     <use style="fill:#1f77b4;stroke:#1f77b4;" x="185.629362" xlink:href="#m14649c5a50" y="144.634583"/>
     <use style="fill:#1f77b4;stroke:#1f77b4;" x="135.951304" xlink:href="#m14649c5a50" y="169.236996"/>
     <use style="fill:#1f77b4;stroke:#1f77b4;" x="135.951304" xlink:href="#m14649c5a50" y="167.011948"/>
     <use style="fill:#1f77b4;stroke:#1f77b4;" x="151.005261" xlink:href="#m14649c5a50" y="157.338895"/>
     <use style="fill:#1f77b4;stroke:#1f77b4;" x="132.940513" xlink:href="#m14649c5a50" y="176.359372"/>
     <use style="fill:#1f77b4;stroke:#1f77b4;" x="126.91893" xlink:href="#m14649c5a50" y="170.477687"/>
     <use style="fill:#1f77b4;stroke:#1f77b4;" x="154.016052" xlink:href="#m14649c5a50" y="159.869365"/>
     <use style="fill:#1f77b4;stroke:#1f77b4;" x="151.005261" xlink:href="#m14649c5a50" y="161.43419"/>
     <use style="fill:#1f77b4;stroke:#1f77b4;" x="164.553822" xlink:href="#m14649c5a50" y="168.455948"/>
     <use style="fill:#1f77b4;stroke:#1f77b4;" x="143.478282" xlink:href="#m14649c5a50" y="159.847583"/>
     <use style="fill:#1f77b4;stroke:#1f77b4;" x="129.929721" xlink:href="#m14649c5a50" y="163.464872"/>
     <use style="fill:#1f77b4;stroke:#1f77b4;" x="138.962095" xlink:href="#m14649c5a50" y="152.251769"/>
     <use style="fill:#1f77b4;stroke:#1f77b4;" x="122.402743" xlink:href="#m14649c5a50" y="169.431976"/>
     <use style="fill:#1f77b4;stroke:#1f77b4;" x="137.4567" xlink:href="#m14649c5a50" y="174.5942"/>
     <use style="fill:#1f77b4;stroke:#1f77b4;" x="138.962095" xlink:href="#m14649c5a50" y="160.902892"/>
     <use style="fill:#1f77b4;stroke:#1f77b4;" x="132.940513" xlink:href="#m14649c5a50" y="164.100167"/>
     <use style="fill:#1f77b4;stroke:#1f77b4;" x="141.972887" xlink:href="#m14649c5a50" y="168.800168"/>
     <use style="fill:#1f77b4;stroke:#1f77b4;" x="128.424326" xlink:href="#m14649c5a50" y="151.558971"/>
     <use style="fill:#1f77b4;stroke:#1f77b4;" x="122.402743" xlink:href="#m14649c5a50" y="173.538101"/>
     <use style="fill:#1f77b4;stroke:#1f77b4;" x="119.391951" xlink:href="#m14649c5a50" y="172.242388"/>
     <use style="fill:#1f77b4;stroke:#1f77b4;" x="131.435117" xlink:href="#m14649c5a50" y="162.481119"/>
     <use style="fill:#1f77b4;stroke:#1f77b4;" x="155.521448" xlink:href="#m14649c5a50" y="162.845287"/>
     <use style="fill:#1f77b4;stroke:#1f77b4;" x="122.402743" xlink:href="#m14649c5a50" y="169.216074"/>
     <use style="fill:#1f77b4;stroke:#1f77b4;" x="175.091592" xlink:href="#m14649c5a50" y="166.563376"/>
     <use style="fill:#1f77b4;stroke:#1f77b4;" x="135.951304" xlink:href="#m14649c5a50" y="174.17353"/>
     <use style="fill:#1f77b4;stroke:#1f77b4;" x="126.91893" xlink:href="#m14649c5a50" y="162.941999"/>
     <use style="fill:#1f77b4;stroke:#1f77b4;" x="123.908138" xlink:href="#m14649c5a50" y="173.672807"/>
     <use style="fill:#1f77b4;stroke:#1f77b4;" x="132.940513" xlink:href="#m14649c5a50" y="169.998665"/>
     <use style="fill:#1f77b4;stroke:#1f77b4;" x="123.908138" xlink:href="#m14649c5a50" y="160.819221"/>
     <use style="fill:#1f77b4;stroke:#1f77b4;" x="123.908138" xlink:href="#m14649c5a50" y="167.993285"/>
     <use style="fill:#1f77b4;stroke:#1f77b4;" x="120.897347" xlink:href="#m14649c5a50" y="168.52487"/>
     <use style="fill:#1f77b4;stroke:#1f77b4;" x="122.402743" xlink:href="#m14649c5a50" y="167.269935"/>
     <use style="fill:#1f77b4;stroke:#1f77b4;" x="131.435117" xlink:href="#m14649c5a50" y="163.122505"/>
     <use style="fill:#1f77b4;stroke:#1f77b4;" x="116.38116" xlink:href="#m14649c5a50" y="169.62951"/>
     <use style="fill:#1f77b4;stroke:#1f77b4;" x="144.983678" xlink:href="#m14649c5a50" y="175.524908"/>
     <use style="fill:#1f77b4;stroke:#1f77b4;" x="140.467491" xlink:href="#m14649c5a50" y="169.699169"/>
     <use style="fill:#1f77b4;stroke:#1f77b4;" x="178.102383" xlink:href="#m14649c5a50" y="164.951466"/>
     <use style="fill:#1f77b4;stroke:#1f77b4;" x="126.91893" xlink:href="#m14649c5a50" y="174.120665"/>
     <use style="fill:#1f77b4;stroke:#1f77b4;" x="119.391951" xlink:href="#m14649c5a50" y="174.175524"/>
     <use style="fill:#1f77b4;stroke:#1f77b4;" x="128.424326" xlink:href="#m14649c5a50" y="165.313811"/>
     <use style="fill:#1f77b4;stroke:#1f77b4;" x="175.091592" xlink:href="#m14649c5a50" y="158.045555"/>
     <use style="fill:#1f77b4;stroke:#1f77b4;" x="129.929721" xlink:href="#m14649c5a50" y="164.401248"/>
     <use style="fill:#1f77b4;stroke:#1f77b4;" x="167.564613" xlink:href="#m14649c5a50" y="159.117581"/>
     <use style="fill:#1f77b4;stroke:#1f77b4;" x="144.983678" xlink:href="#m14649c5a50" y="168.63825"/>
     <use style="fill:#1f77b4;stroke:#1f77b4;" x="137.4567" xlink:href="#m14649c5a50" y="163.051812"/>
     <use style="fill:#1f77b4;stroke:#1f77b4;" x="167.564613" xlink:href="#m14649c5a50" y="157.704467"/>
     <use style="fill:#1f77b4;stroke:#1f77b4;" x="120.897347" xlink:href="#m14649c5a50" y="167.074583"/>
     <use style="fill:#1f77b4;stroke:#1f77b4;" x="114.875764" xlink:href="#m14649c5a50" y="173.574778"/>
     <use style="fill:#1f77b4;stroke:#1f77b4;" x="143.478282" xlink:href="#m14649c5a50" y="165.419984"/>
     <use style="fill:#1f77b4;stroke:#1f77b4;" x="166.059218" xlink:href="#m14649c5a50" y="156.393566"/>
     <use style="fill:#1f77b4;stroke:#1f77b4;" x="164.553822" xlink:href="#m14649c5a50" y="164.587206"/>
     <use style="fill:#1f77b4;stroke:#1f77b4;" x="123.908138" xlink:href="#m14649c5a50" y="167.084157"/>
     <use style="fill:#1f77b4;stroke:#1f77b4;" x="176.596987" xlink:href="#m14649c5a50" y="163.026081"/>
     <use style="fill:#1f77b4;stroke:#1f77b4;" x="137.4567" xlink:href="#m14649c5a50" y="170.726008"/>
     <use style="fill:#1f77b4;stroke:#1f77b4;" x="200.683318" xlink:href="#m14649c5a50" y="161.570711"/>
     <use style="fill:#1f77b4;stroke:#1f77b4;" x="129.929721" xlink:href="#m14649c5a50" y="171.246551"/>
     <use style="fill:#1f77b4;stroke:#1f77b4;" x="141.972887" xlink:href="#m14649c5a50" y="165.380304"/>
     <use style="fill:#1f77b4;stroke:#1f77b4;" x="116.38116" xlink:href="#m14649c5a50" y="170.269525"/>
     <use style="fill:#1f77b4;stroke:#1f77b4;" x="123.908138" xlink:href="#m14649c5a50" y="174.933393"/>
     <use style="fill:#1f77b4;stroke:#1f77b4;" x="123.908138" xlink:href="#m14649c5a50" y="157.768562"/>
     <use style="fill:#1f77b4;stroke:#1f77b4;" x="141.972887" xlink:href="#m14649c5a50" y="152.331725"/>
    </g>
   </g>
   <g id="matplotlib.axis_1">
    <g id="xtick_1">
     <g id="line2d_1">
      <defs>
       <path d="M 0 0 
L 0 3.5 
" id="m8b0ed4e84f" style="stroke:#000000;stroke-width:0.8;"/>
      </defs>
      <g>
       <use style="stroke:#000000;stroke-width:0.8;" x="50.14375" xlink:href="#m8b0ed4e84f" y="224.64"/>
      </g>
     </g>
     <g id="text_1">
      <!-- 0.0 -->
      <g transform="translate(42.192188 239.238437)scale(0.1 -0.1)">
       <defs>
        <path d="M 31.78125 66.40625 
Q 24.171875 66.40625 20.328125 58.90625 
Q 16.5 51.421875 16.5 36.375 
Q 16.5 21.390625 20.328125 13.890625 
Q 24.171875 6.390625 31.78125 6.390625 
Q 39.453125 6.390625 43.28125 13.890625 
Q 47.125 21.390625 47.125 36.375 
Q 47.125 51.421875 43.28125 58.90625 
Q 39.453125 66.40625 31.78125 66.40625 
z
M 31.78125 74.21875 
Q 44.046875 74.21875 50.515625 64.515625 
Q 56.984375 54.828125 56.984375 36.375 
Q 56.984375 17.96875 50.515625 8.265625 
Q 44.046875 -1.421875 31.78125 -1.421875 
Q 19.53125 -1.421875 13.0625 8.265625 
Q 6.59375 17.96875 6.59375 36.375 
Q 6.59375 54.828125 13.0625 64.515625 
Q 19.53125 74.21875 31.78125 74.21875 
z
" id="DejaVuSans-48"/>
        <path d="M 10.6875 12.40625 
L 21 12.40625 
L 21 0 
L 10.6875 0 
z
" id="DejaVuSans-46"/>
       </defs>
       <use xlink:href="#DejaVuSans-48"/>
       <use x="63.623047" xlink:href="#DejaVuSans-46"/>
       <use x="95.410156" xlink:href="#DejaVuSans-48"/>
      </g>
     </g>
    </g>
    <g id="xtick_2">
     <g id="line2d_2">
      <g>
       <use style="stroke:#000000;stroke-width:0.8;" x="87.778642" xlink:href="#m8b0ed4e84f" y="224.64"/>
      </g>
     </g>
     <g id="text_2">
      <!-- 2.5 -->
      <g transform="translate(79.82708 239.238437)scale(0.1 -0.1)">
       <defs>
        <path d="M 19.1875 8.296875 
L 53.609375 8.296875 
L 53.609375 0 
L 7.328125 0 
L 7.328125 8.296875 
Q 12.9375 14.109375 22.625 23.890625 
Q 32.328125 33.6875 34.8125 36.53125 
Q 39.546875 41.84375 41.421875 45.53125 
Q 43.3125 49.21875 43.3125 52.78125 
Q 43.3125 58.59375 39.234375 62.25 
Q 35.15625 65.921875 28.609375 65.921875 
Q 23.96875 65.921875 18.8125 64.3125 
Q 13.671875 62.703125 7.8125 59.421875 
L 7.8125 69.390625 
Q 13.765625 71.78125 18.9375 73 
Q 24.125 74.21875 28.421875 74.21875 
Q 39.75 74.21875 46.484375 68.546875 
Q 53.21875 62.890625 53.21875 53.421875 
Q 53.21875 48.921875 51.53125 44.890625 
Q 49.859375 40.875 45.40625 35.40625 
Q 44.1875 33.984375 37.640625 27.21875 
Q 31.109375 20.453125 19.1875 8.296875 
z
" id="DejaVuSans-50"/>
        <path d="M 10.796875 72.90625 
L 49.515625 72.90625 
L 49.515625 64.59375 
L 19.828125 64.59375 
L 19.828125 46.734375 
Q 21.96875 47.46875 24.109375 47.828125 
Q 26.265625 48.1875 28.421875 48.1875 
Q 40.625 48.1875 47.75 41.5 
Q 54.890625 34.8125 54.890625 23.390625 
Q 54.890625 11.625 47.5625 5.09375 
Q 40.234375 -1.421875 26.90625 -1.421875 
Q 22.3125 -1.421875 17.546875 -0.640625 
Q 12.796875 0.140625 7.71875 1.703125 
L 7.71875 11.625 
Q 12.109375 9.234375 16.796875 8.0625 
Q 21.484375 6.890625 26.703125 6.890625 
Q 35.15625 6.890625 40.078125 11.328125 
Q 45.015625 15.765625 45.015625 23.390625 
Q 45.015625 31 40.078125 35.4375 
Q 35.15625 39.890625 26.703125 39.890625 
Q 22.75 39.890625 18.8125 39.015625 
Q 14.890625 38.140625 10.796875 36.28125 
z
" id="DejaVuSans-53"/>
       </defs>
       <use xlink:href="#DejaVuSans-50"/>
       <use x="63.623047" xlink:href="#DejaVuSans-46"/>
       <use x="95.410156" xlink:href="#DejaVuSans-53"/>
      </g>
     </g>
    </g>
    <g id="xtick_3">
     <g id="line2d_3">
      <g>
       <use style="stroke:#000000;stroke-width:0.8;" x="125.413534" xlink:href="#m8b0ed4e84f" y="224.64"/>
      </g>
     </g>
     <g id="text_3">
      <!-- 5.0 -->
      <g transform="translate(117.461972 239.238437)scale(0.1 -0.1)">
       <use xlink:href="#DejaVuSans-53"/>
       <use x="63.623047" xlink:href="#DejaVuSans-46"/>
       <use x="95.410156" xlink:href="#DejaVuSans-48"/>
      </g>
     </g>
    </g>
    <g id="xtick_4">
     <g id="line2d_4">
      <g>
       <use style="stroke:#000000;stroke-width:0.8;" x="163.048426" xlink:href="#m8b0ed4e84f" y="224.64"/>
      </g>
     </g>
     <g id="text_4">
      <!-- 7.5 -->
      <g transform="translate(155.096864 239.238437)scale(0.1 -0.1)">
       <defs>
        <path d="M 8.203125 72.90625 
L 55.078125 72.90625 
L 55.078125 68.703125 
L 28.609375 0 
L 18.3125 0 
L 43.21875 64.59375 
L 8.203125 64.59375 
z
" id="DejaVuSans-55"/>
       </defs>
       <use xlink:href="#DejaVuSans-55"/>
       <use x="63.623047" xlink:href="#DejaVuSans-46"/>
       <use x="95.410156" xlink:href="#DejaVuSans-53"/>
      </g>
     </g>
    </g>
    <g id="xtick_5">
     <g id="line2d_5">
      <g>
       <use style="stroke:#000000;stroke-width:0.8;" x="200.683318" xlink:href="#m8b0ed4e84f" y="224.64"/>
      </g>
     </g>
     <g id="text_5">
      <!-- 10.0 -->
      <g transform="translate(189.550506 239.238437)scale(0.1 -0.1)">
       <defs>
        <path d="M 12.40625 8.296875 
L 28.515625 8.296875 
L 28.515625 63.921875 
L 10.984375 60.40625 
L 10.984375 69.390625 
L 28.421875 72.90625 
L 38.28125 72.90625 
L 38.28125 8.296875 
L 54.390625 8.296875 
L 54.390625 0 
L 12.40625 0 
z
" id="DejaVuSans-49"/>
       </defs>
       <use xlink:href="#DejaVuSans-49"/>
       <use x="63.623047" xlink:href="#DejaVuSans-48"/>
       <use x="127.246094" xlink:href="#DejaVuSans-46"/>
       <use x="159.033203" xlink:href="#DejaVuSans-48"/>
      </g>
     </g>
    </g>
    <g id="xtick_6">
     <g id="line2d_6">
      <g>
       <use style="stroke:#000000;stroke-width:0.8;" x="238.31821" xlink:href="#m8b0ed4e84f" y="224.64"/>
      </g>
     </g>
     <g id="text_6">
      <!-- 12.5 -->
      <g transform="translate(227.185398 239.238437)scale(0.1 -0.1)">
       <use xlink:href="#DejaVuSans-49"/>
       <use x="63.623047" xlink:href="#DejaVuSans-50"/>
       <use x="127.246094" xlink:href="#DejaVuSans-46"/>
       <use x="159.033203" xlink:href="#DejaVuSans-53"/>
      </g>
     </g>
    </g>
    <g id="xtick_7">
     <g id="line2d_7">
      <g>
       <use style="stroke:#000000;stroke-width:0.8;" x="275.953103" xlink:href="#m8b0ed4e84f" y="224.64"/>
      </g>
     </g>
     <g id="text_7">
      <!-- 15.0 -->
      <g transform="translate(264.82029 239.238437)scale(0.1 -0.1)">
       <use xlink:href="#DejaVuSans-49"/>
       <use x="63.623047" xlink:href="#DejaVuSans-53"/>
       <use x="127.246094" xlink:href="#DejaVuSans-46"/>
       <use x="159.033203" xlink:href="#DejaVuSans-48"/>
      </g>
     </g>
    </g>
    <g id="xtick_8">
     <g id="line2d_8">
      <g>
       <use style="stroke:#000000;stroke-width:0.8;" x="313.587995" xlink:href="#m8b0ed4e84f" y="224.64"/>
      </g>
     </g>
     <g id="text_8">
      <!-- 17.5 -->
      <g transform="translate(302.455182 239.238437)scale(0.1 -0.1)">
       <use xlink:href="#DejaVuSans-49"/>
       <use x="63.623047" xlink:href="#DejaVuSans-55"/>
       <use x="127.246094" xlink:href="#DejaVuSans-46"/>
       <use x="159.033203" xlink:href="#DejaVuSans-53"/>
      </g>
     </g>
    </g>
    <g id="xtick_9">
     <g id="line2d_9">
      <g>
       <use style="stroke:#000000;stroke-width:0.8;" x="351.222887" xlink:href="#m8b0ed4e84f" y="224.64"/>
      </g>
     </g>
     <g id="text_9">
      <!-- 20.0 -->
      <g transform="translate(340.090074 239.238437)scale(0.1 -0.1)">
       <use xlink:href="#DejaVuSans-50"/>
       <use x="63.623047" xlink:href="#DejaVuSans-48"/>
       <use x="127.246094" xlink:href="#DejaVuSans-46"/>
       <use x="159.033203" xlink:href="#DejaVuSans-48"/>
      </g>
     </g>
    </g>
    <g id="text_10">
     <!-- Reference values of Blood Glucose(mmol/L) -->
     <g transform="translate(108.333594 252.916562)scale(0.1 -0.1)">
      <defs>
       <path d="M 44.390625 34.1875 
Q 47.5625 33.109375 50.5625 29.59375 
Q 53.5625 26.078125 56.59375 19.921875 
L 66.609375 0 
L 56 0 
L 46.6875 18.703125 
Q 43.0625 26.03125 39.671875 28.421875 
Q 36.28125 30.8125 30.421875 30.8125 
L 19.671875 30.8125 
L 19.671875 0 
L 9.8125 0 
L 9.8125 72.90625 
L 32.078125 72.90625 
Q 44.578125 72.90625 50.734375 67.671875 
Q 56.890625 62.453125 56.890625 51.90625 
Q 56.890625 45.015625 53.6875 40.46875 
Q 50.484375 35.9375 44.390625 34.1875 
z
M 19.671875 64.796875 
L 19.671875 38.921875 
L 32.078125 38.921875 
Q 39.203125 38.921875 42.84375 42.21875 
Q 46.484375 45.515625 46.484375 51.90625 
Q 46.484375 58.296875 42.84375 61.546875 
Q 39.203125 64.796875 32.078125 64.796875 
z
" id="DejaVuSans-82"/>
       <path d="M 56.203125 29.59375 
L 56.203125 25.203125 
L 14.890625 25.203125 
Q 15.484375 15.921875 20.484375 11.0625 
Q 25.484375 6.203125 34.421875 6.203125 
Q 39.59375 6.203125 44.453125 7.46875 
Q 49.3125 8.734375 54.109375 11.28125 
L 54.109375 2.78125 
Q 49.265625 0.734375 44.1875 -0.34375 
Q 39.109375 -1.421875 33.890625 -1.421875 
Q 20.796875 -1.421875 13.15625 6.1875 
Q 5.515625 13.8125 5.515625 26.8125 
Q 5.515625 40.234375 12.765625 48.109375 
Q 20.015625 56 32.328125 56 
Q 43.359375 56 49.78125 48.890625 
Q 56.203125 41.796875 56.203125 29.59375 
z
M 47.21875 32.234375 
Q 47.125 39.59375 43.09375 43.984375 
Q 39.0625 48.390625 32.421875 48.390625 
Q 24.90625 48.390625 20.390625 44.140625 
Q 15.875 39.890625 15.1875 32.171875 
z
" id="DejaVuSans-101"/>
       <path d="M 37.109375 75.984375 
L 37.109375 68.5 
L 28.515625 68.5 
Q 23.6875 68.5 21.796875 66.546875 
Q 19.921875 64.59375 19.921875 59.515625 
L 19.921875 54.6875 
L 34.71875 54.6875 
L 34.71875 47.703125 
L 19.921875 47.703125 
L 19.921875 0 
L 10.890625 0 
L 10.890625 47.703125 
L 2.296875 47.703125 
L 2.296875 54.6875 
L 10.890625 54.6875 
L 10.890625 58.5 
Q 10.890625 67.625 15.140625 71.796875 
Q 19.390625 75.984375 28.609375 75.984375 
z
" id="DejaVuSans-102"/>
       <path d="M 41.109375 46.296875 
Q 39.59375 47.171875 37.8125 47.578125 
Q 36.03125 48 33.890625 48 
Q 26.265625 48 22.1875 43.046875 
Q 18.109375 38.09375 18.109375 28.8125 
L 18.109375 0 
L 9.078125 0 
L 9.078125 54.6875 
L 18.109375 54.6875 
L 18.109375 46.1875 
Q 20.953125 51.171875 25.484375 53.578125 
Q 30.03125 56 36.53125 56 
Q 37.453125 56 38.578125 55.875 
Q 39.703125 55.765625 41.0625 55.515625 
z
" id="DejaVuSans-114"/>
       <path d="M 54.890625 33.015625 
L 54.890625 0 
L 45.90625 0 
L 45.90625 32.71875 
Q 45.90625 40.484375 42.875 44.328125 
Q 39.84375 48.1875 33.796875 48.1875 
Q 26.515625 48.1875 22.3125 43.546875 
Q 18.109375 38.921875 18.109375 30.90625 
L 18.109375 0 
L 9.078125 0 
L 9.078125 54.6875 
L 18.109375 54.6875 
L 18.109375 46.1875 
Q 21.34375 51.125 25.703125 53.5625 
Q 30.078125 56 35.796875 56 
Q 45.21875 56 50.046875 50.171875 
Q 54.890625 44.34375 54.890625 33.015625 
z
" id="DejaVuSans-110"/>
       <path d="M 48.78125 52.59375 
L 48.78125 44.1875 
Q 44.96875 46.296875 41.140625 47.34375 
Q 37.3125 48.390625 33.40625 48.390625 
Q 24.65625 48.390625 19.8125 42.84375 
Q 14.984375 37.3125 14.984375 27.296875 
Q 14.984375 17.28125 19.8125 11.734375 
Q 24.65625 6.203125 33.40625 6.203125 
Q 37.3125 6.203125 41.140625 7.25 
Q 44.96875 8.296875 48.78125 10.40625 
L 48.78125 2.09375 
Q 45.015625 0.34375 40.984375 -0.53125 
Q 36.96875 -1.421875 32.421875 -1.421875 
Q 20.0625 -1.421875 12.78125 6.34375 
Q 5.515625 14.109375 5.515625 27.296875 
Q 5.515625 40.671875 12.859375 48.328125 
Q 20.21875 56 33.015625 56 
Q 37.15625 56 41.109375 55.140625 
Q 45.0625 54.296875 48.78125 52.59375 
z
" id="DejaVuSans-99"/>
       <path id="DejaVuSans-32"/>
       <path d="M 2.984375 54.6875 
L 12.5 54.6875 
L 29.59375 8.796875 
L 46.6875 54.6875 
L 56.203125 54.6875 
L 35.6875 0 
L 23.484375 0 
z
" id="DejaVuSans-118"/>
       <path d="M 34.28125 27.484375 
Q 23.390625 27.484375 19.1875 25 
Q 14.984375 22.515625 14.984375 16.5 
Q 14.984375 11.71875 18.140625 8.90625 
Q 21.296875 6.109375 26.703125 6.109375 
Q 34.1875 6.109375 38.703125 11.40625 
Q 43.21875 16.703125 43.21875 25.484375 
L 43.21875 27.484375 
z
M 52.203125 31.203125 
L 52.203125 0 
L 43.21875 0 
L 43.21875 8.296875 
Q 40.140625 3.328125 35.546875 0.953125 
Q 30.953125 -1.421875 24.3125 -1.421875 
Q 15.921875 -1.421875 10.953125 3.296875 
Q 6 8.015625 6 15.921875 
Q 6 25.140625 12.171875 29.828125 
Q 18.359375 34.515625 30.609375 34.515625 
L 43.21875 34.515625 
L 43.21875 35.40625 
Q 43.21875 41.609375 39.140625 45 
Q 35.0625 48.390625 27.6875 48.390625 
Q 23 48.390625 18.546875 47.265625 
Q 14.109375 46.140625 10.015625 43.890625 
L 10.015625 52.203125 
Q 14.9375 54.109375 19.578125 55.046875 
Q 24.21875 56 28.609375 56 
Q 40.484375 56 46.34375 49.84375 
Q 52.203125 43.703125 52.203125 31.203125 
z
" id="DejaVuSans-97"/>
       <path d="M 9.421875 75.984375 
L 18.40625 75.984375 
L 18.40625 0 
L 9.421875 0 
z
" id="DejaVuSans-108"/>
       <path d="M 8.5 21.578125 
L 8.5 54.6875 
L 17.484375 54.6875 
L 17.484375 21.921875 
Q 17.484375 14.15625 20.5 10.265625 
Q 23.53125 6.390625 29.59375 6.390625 
Q 36.859375 6.390625 41.078125 11.03125 
Q 45.3125 15.671875 45.3125 23.6875 
L 45.3125 54.6875 
L 54.296875 54.6875 
L 54.296875 0 
L 45.3125 0 
L 45.3125 8.40625 
Q 42.046875 3.421875 37.71875 1 
Q 33.40625 -1.421875 27.6875 -1.421875 
Q 18.265625 -1.421875 13.375 4.4375 
Q 8.5 10.296875 8.5 21.578125 
z
M 31.109375 56 
z
" id="DejaVuSans-117"/>
       <path d="M 44.28125 53.078125 
L 44.28125 44.578125 
Q 40.484375 46.53125 36.375 47.5 
Q 32.28125 48.484375 27.875 48.484375 
Q 21.1875 48.484375 17.84375 46.4375 
Q 14.5 44.390625 14.5 40.28125 
Q 14.5 37.15625 16.890625 35.375 
Q 19.28125 33.59375 26.515625 31.984375 
L 29.59375 31.296875 
Q 39.15625 29.25 43.1875 25.515625 
Q 47.21875 21.78125 47.21875 15.09375 
Q 47.21875 7.46875 41.1875 3.015625 
Q 35.15625 -1.421875 24.609375 -1.421875 
Q 20.21875 -1.421875 15.453125 -0.5625 
Q 10.6875 0.296875 5.421875 2 
L 5.421875 11.28125 
Q 10.40625 8.6875 15.234375 7.390625 
Q 20.0625 6.109375 24.8125 6.109375 
Q 31.15625 6.109375 34.5625 8.28125 
Q 37.984375 10.453125 37.984375 14.40625 
Q 37.984375 18.0625 35.515625 20.015625 
Q 33.0625 21.96875 24.703125 23.78125 
L 21.578125 24.515625 
Q 13.234375 26.265625 9.515625 29.90625 
Q 5.8125 33.546875 5.8125 39.890625 
Q 5.8125 47.609375 11.28125 51.796875 
Q 16.75 56 26.8125 56 
Q 31.78125 56 36.171875 55.265625 
Q 40.578125 54.546875 44.28125 53.078125 
z
" id="DejaVuSans-115"/>
       <path d="M 30.609375 48.390625 
Q 23.390625 48.390625 19.1875 42.75 
Q 14.984375 37.109375 14.984375 27.296875 
Q 14.984375 17.484375 19.15625 11.84375 
Q 23.34375 6.203125 30.609375 6.203125 
Q 37.796875 6.203125 41.984375 11.859375 
Q 46.1875 17.53125 46.1875 27.296875 
Q 46.1875 37.015625 41.984375 42.703125 
Q 37.796875 48.390625 30.609375 48.390625 
z
M 30.609375 56 
Q 42.328125 56 49.015625 48.375 
Q 55.71875 40.765625 55.71875 27.296875 
Q 55.71875 13.875 49.015625 6.21875 
Q 42.328125 -1.421875 30.609375 -1.421875 
Q 18.84375 -1.421875 12.171875 6.21875 
Q 5.515625 13.875 5.515625 27.296875 
Q 5.515625 40.765625 12.171875 48.375 
Q 18.84375 56 30.609375 56 
z
" id="DejaVuSans-111"/>
       <path d="M 19.671875 34.8125 
L 19.671875 8.109375 
L 35.5 8.109375 
Q 43.453125 8.109375 47.28125 11.40625 
Q 51.125 14.703125 51.125 21.484375 
Q 51.125 28.328125 47.28125 31.5625 
Q 43.453125 34.8125 35.5 34.8125 
z
M 19.671875 64.796875 
L 19.671875 42.828125 
L 34.28125 42.828125 
Q 41.5 42.828125 45.03125 45.53125 
Q 48.578125 48.25 48.578125 53.8125 
Q 48.578125 59.328125 45.03125 62.0625 
Q 41.5 64.796875 34.28125 64.796875 
z
M 9.8125 72.90625 
L 35.015625 72.90625 
Q 46.296875 72.90625 52.390625 68.21875 
Q 58.5 63.53125 58.5 54.890625 
Q 58.5 48.1875 55.375 44.234375 
Q 52.25 40.28125 46.1875 39.3125 
Q 53.46875 37.75 57.5 32.78125 
Q 61.53125 27.828125 61.53125 20.40625 
Q 61.53125 10.640625 54.890625 5.3125 
Q 48.25 0 35.984375 0 
L 9.8125 0 
z
" id="DejaVuSans-66"/>
       <path d="M 45.40625 46.390625 
L 45.40625 75.984375 
L 54.390625 75.984375 
L 54.390625 0 
L 45.40625 0 
L 45.40625 8.203125 
Q 42.578125 3.328125 38.25 0.953125 
Q 33.9375 -1.421875 27.875 -1.421875 
Q 17.96875 -1.421875 11.734375 6.484375 
Q 5.515625 14.40625 5.515625 27.296875 
Q 5.515625 40.1875 11.734375 48.09375 
Q 17.96875 56 27.875 56 
Q 33.9375 56 38.25 53.625 
Q 42.578125 51.265625 45.40625 46.390625 
z
M 14.796875 27.296875 
Q 14.796875 17.390625 18.875 11.75 
Q 22.953125 6.109375 30.078125 6.109375 
Q 37.203125 6.109375 41.296875 11.75 
Q 45.40625 17.390625 45.40625 27.296875 
Q 45.40625 37.203125 41.296875 42.84375 
Q 37.203125 48.484375 30.078125 48.484375 
Q 22.953125 48.484375 18.875 42.84375 
Q 14.796875 37.203125 14.796875 27.296875 
z
" id="DejaVuSans-100"/>
       <path d="M 59.515625 10.40625 
L 59.515625 29.984375 
L 43.40625 29.984375 
L 43.40625 38.09375 
L 69.28125 38.09375 
L 69.28125 6.78125 
Q 63.578125 2.734375 56.6875 0.65625 
Q 49.8125 -1.421875 42 -1.421875 
Q 24.90625 -1.421875 15.25 8.5625 
Q 5.609375 18.5625 5.609375 36.375 
Q 5.609375 54.25 15.25 64.234375 
Q 24.90625 74.21875 42 74.21875 
Q 49.125 74.21875 55.546875 72.453125 
Q 61.96875 70.703125 67.390625 67.28125 
L 67.390625 56.78125 
Q 61.921875 61.421875 55.765625 63.765625 
Q 49.609375 66.109375 42.828125 66.109375 
Q 29.4375 66.109375 22.71875 58.640625 
Q 16.015625 51.171875 16.015625 36.375 
Q 16.015625 21.625 22.71875 14.15625 
Q 29.4375 6.6875 42.828125 6.6875 
Q 48.046875 6.6875 52.140625 7.59375 
Q 56.25 8.5 59.515625 10.40625 
z
" id="DejaVuSans-71"/>
       <path d="M 31 75.875 
Q 24.46875 64.65625 21.28125 53.65625 
Q 18.109375 42.671875 18.109375 31.390625 
Q 18.109375 20.125 21.3125 9.0625 
Q 24.515625 -2 31 -13.1875 
L 23.1875 -13.1875 
Q 15.875 -1.703125 12.234375 9.375 
Q 8.59375 20.453125 8.59375 31.390625 
Q 8.59375 42.28125 12.203125 53.3125 
Q 15.828125 64.359375 23.1875 75.875 
z
" id="DejaVuSans-40"/>
       <path d="M 52 44.1875 
Q 55.375 50.25 60.0625 53.125 
Q 64.75 56 71.09375 56 
Q 79.640625 56 84.28125 50.015625 
Q 88.921875 44.046875 88.921875 33.015625 
L 88.921875 0 
L 79.890625 0 
L 79.890625 32.71875 
Q 79.890625 40.578125 77.09375 44.375 
Q 74.3125 48.1875 68.609375 48.1875 
Q 61.625 48.1875 57.5625 43.546875 
Q 53.515625 38.921875 53.515625 30.90625 
L 53.515625 0 
L 44.484375 0 
L 44.484375 32.71875 
Q 44.484375 40.625 41.703125 44.40625 
Q 38.921875 48.1875 33.109375 48.1875 
Q 26.21875 48.1875 22.15625 43.53125 
Q 18.109375 38.875 18.109375 30.90625 
L 18.109375 0 
L 9.078125 0 
L 9.078125 54.6875 
L 18.109375 54.6875 
L 18.109375 46.1875 
Q 21.1875 51.21875 25.484375 53.609375 
Q 29.78125 56 35.6875 56 
Q 41.65625 56 45.828125 52.96875 
Q 50 49.953125 52 44.1875 
z
" id="DejaVuSans-109"/>
       <path d="M 25.390625 72.90625 
L 33.6875 72.90625 
L 8.296875 -9.28125 
L 0 -9.28125 
z
" id="DejaVuSans-47"/>
       <path d="M 9.8125 72.90625 
L 19.671875 72.90625 
L 19.671875 8.296875 
L 55.171875 8.296875 
L 55.171875 0 
L 9.8125 0 
z
" id="DejaVuSans-76"/>
       <path d="M 8.015625 75.875 
L 15.828125 75.875 
Q 23.140625 64.359375 26.78125 53.3125 
Q 30.421875 42.28125 30.421875 31.390625 
Q 30.421875 20.453125 26.78125 9.375 
Q 23.140625 -1.703125 15.828125 -13.1875 
L 8.015625 -13.1875 
Q 14.5 -2 17.703125 9.0625 
Q 20.90625 20.125 20.90625 31.390625 
Q 20.90625 42.671875 17.703125 53.65625 
Q 14.5 64.65625 8.015625 75.875 
z
" id="DejaVuSans-41"/>
      </defs>
      <use xlink:href="#DejaVuSans-82"/>
      <use x="64.982422" xlink:href="#DejaVuSans-101"/>
      <use x="126.505859" xlink:href="#DejaVuSans-102"/>
      <use x="161.710938" xlink:href="#DejaVuSans-101"/>
      <use x="223.234375" xlink:href="#DejaVuSans-114"/>
      <use x="262.097656" xlink:href="#DejaVuSans-101"/>
      <use x="323.621094" xlink:href="#DejaVuSans-110"/>
      <use x="387" xlink:href="#DejaVuSans-99"/>
      <use x="441.980469" xlink:href="#DejaVuSans-101"/>
      <use x="503.503906" xlink:href="#DejaVuSans-32"/>
      <use x="535.291016" xlink:href="#DejaVuSans-118"/>
      <use x="594.470703" xlink:href="#DejaVuSans-97"/>
      <use x="655.75" xlink:href="#DejaVuSans-108"/>
      <use x="683.533203" xlink:href="#DejaVuSans-117"/>
      <use x="746.912109" xlink:href="#DejaVuSans-101"/>
      <use x="808.435547" xlink:href="#DejaVuSans-115"/>
      <use x="860.535156" xlink:href="#DejaVuSans-32"/>
      <use x="892.322266" xlink:href="#DejaVuSans-111"/>
      <use x="953.503906" xlink:href="#DejaVuSans-102"/>
      <use x="988.708984" xlink:href="#DejaVuSans-32"/>
      <use x="1020.496094" xlink:href="#DejaVuSans-66"/>
      <use x="1089.099609" xlink:href="#DejaVuSans-108"/>
      <use x="1116.882812" xlink:href="#DejaVuSans-111"/>
      <use x="1178.064453" xlink:href="#DejaVuSans-111"/>
      <use x="1239.246094" xlink:href="#DejaVuSans-100"/>
      <use x="1302.722656" xlink:href="#DejaVuSans-32"/>
      <use x="1334.509766" xlink:href="#DejaVuSans-71"/>
      <use x="1412" xlink:href="#DejaVuSans-108"/>
      <use x="1439.783203" xlink:href="#DejaVuSans-117"/>
      <use x="1503.162109" xlink:href="#DejaVuSans-99"/>
      <use x="1558.142578" xlink:href="#DejaVuSans-111"/>
      <use x="1619.324219" xlink:href="#DejaVuSans-115"/>
      <use x="1671.423828" xlink:href="#DejaVuSans-101"/>
      <use x="1732.947266" xlink:href="#DejaVuSans-40"/>
      <use x="1771.960938" xlink:href="#DejaVuSans-109"/>
      <use x="1869.373047" xlink:href="#DejaVuSans-109"/>
      <use x="1966.785156" xlink:href="#DejaVuSans-111"/>
      <use x="2027.966797" xlink:href="#DejaVuSans-108"/>
      <use x="2055.75" xlink:href="#DejaVuSans-47"/>
      <use x="2089.441406" xlink:href="#DejaVuSans-76"/>
      <use x="2145.154297" xlink:href="#DejaVuSans-41"/>
     </g>
    </g>
   </g>
   <g id="matplotlib.axis_2">
    <g id="ytick_1">
     <g id="line2d_10">
      <defs>
       <path d="M 0 0 
L -3.5 0 
" id="m23889eaf08" style="stroke:#000000;stroke-width:0.8;"/>
      </defs>
      <g>
       <use style="stroke:#000000;stroke-width:0.8;" x="50.14375" xlink:href="#m23889eaf08" y="224.64"/>
      </g>
     </g>
     <g id="text_11">
      <!-- 0.0 -->
      <g transform="translate(27.240625 228.439219)scale(0.1 -0.1)">
       <use xlink:href="#DejaVuSans-48"/>
       <use x="63.623047" xlink:href="#DejaVuSans-46"/>
       <use x="95.410156" xlink:href="#DejaVuSans-48"/>
      </g>
     </g>
    </g>
    <g id="ytick_2">
     <g id="line2d_11">
      <g>
       <use style="stroke:#000000;stroke-width:0.8;" x="50.14375" xlink:href="#m23889eaf08" y="200.197554"/>
      </g>
     </g>
     <g id="text_12">
      <!-- 2.5 -->
      <g transform="translate(27.240625 203.996773)scale(0.1 -0.1)">
       <use xlink:href="#DejaVuSans-50"/>
       <use x="63.623047" xlink:href="#DejaVuSans-46"/>
       <use x="95.410156" xlink:href="#DejaVuSans-53"/>
      </g>
     </g>
    </g>
    <g id="ytick_3">
     <g id="line2d_12">
      <g>
       <use style="stroke:#000000;stroke-width:0.8;" x="50.14375" xlink:href="#m23889eaf08" y="175.755108"/>
      </g>
     </g>
     <g id="text_13">
      <!-- 5.0 -->
      <g transform="translate(27.240625 179.554327)scale(0.1 -0.1)">
       <use xlink:href="#DejaVuSans-53"/>
       <use x="63.623047" xlink:href="#DejaVuSans-46"/>
       <use x="95.410156" xlink:href="#DejaVuSans-48"/>
      </g>
     </g>
    </g>
    <g id="ytick_4">
     <g id="line2d_13">
      <g>
       <use style="stroke:#000000;stroke-width:0.8;" x="50.14375" xlink:href="#m23889eaf08" y="151.312662"/>
      </g>
     </g>
     <g id="text_14">
      <!-- 7.5 -->
      <g transform="translate(27.240625 155.111881)scale(0.1 -0.1)">
       <use xlink:href="#DejaVuSans-55"/>
       <use x="63.623047" xlink:href="#DejaVuSans-46"/>
       <use x="95.410156" xlink:href="#DejaVuSans-53"/>
      </g>
     </g>
    </g>
    <g id="ytick_5">
     <g id="line2d_14">
      <g>
       <use style="stroke:#000000;stroke-width:0.8;" x="50.14375" xlink:href="#m23889eaf08" y="126.870216"/>
      </g>
     </g>
     <g id="text_15">
      <!-- 10.0 -->
      <g transform="translate(20.878125 130.669435)scale(0.1 -0.1)">
       <use xlink:href="#DejaVuSans-49"/>
       <use x="63.623047" xlink:href="#DejaVuSans-48"/>
       <use x="127.246094" xlink:href="#DejaVuSans-46"/>
       <use x="159.033203" xlink:href="#DejaVuSans-48"/>
      </g>
     </g>
    </g>
    <g id="ytick_6">
     <g id="line2d_15">
      <g>
       <use style="stroke:#000000;stroke-width:0.8;" x="50.14375" xlink:href="#m23889eaf08" y="102.42777"/>
      </g>
     </g>
     <g id="text_16">
      <!-- 12.5 -->
      <g transform="translate(20.878125 106.226989)scale(0.1 -0.1)">
       <use xlink:href="#DejaVuSans-49"/>
       <use x="63.623047" xlink:href="#DejaVuSans-50"/>
       <use x="127.246094" xlink:href="#DejaVuSans-46"/>
       <use x="159.033203" xlink:href="#DejaVuSans-53"/>
      </g>
     </g>
    </g>
    <g id="ytick_7">
     <g id="line2d_16">
      <g>
       <use style="stroke:#000000;stroke-width:0.8;" x="50.14375" xlink:href="#m23889eaf08" y="77.985324"/>
      </g>
     </g>
     <g id="text_17">
      <!-- 15.0 -->
      <g transform="translate(20.878125 81.784542)scale(0.1 -0.1)">
       <use xlink:href="#DejaVuSans-49"/>
       <use x="63.623047" xlink:href="#DejaVuSans-53"/>
       <use x="127.246094" xlink:href="#DejaVuSans-46"/>
       <use x="159.033203" xlink:href="#DejaVuSans-48"/>
      </g>
     </g>
    </g>
    <g id="ytick_8">
     <g id="line2d_17">
      <g>
       <use style="stroke:#000000;stroke-width:0.8;" x="50.14375" xlink:href="#m23889eaf08" y="53.542878"/>
      </g>
     </g>
     <g id="text_18">
      <!-- 17.5 -->
      <g transform="translate(20.878125 57.342096)scale(0.1 -0.1)">
       <use xlink:href="#DejaVuSans-49"/>
       <use x="63.623047" xlink:href="#DejaVuSans-55"/>
       <use x="127.246094" xlink:href="#DejaVuSans-46"/>
       <use x="159.033203" xlink:href="#DejaVuSans-53"/>
      </g>
     </g>
    </g>
    <g id="ytick_9">
     <g id="line2d_18">
      <g>
       <use style="stroke:#000000;stroke-width:0.8;" x="50.14375" xlink:href="#m23889eaf08" y="29.100432"/>
      </g>
     </g>
     <g id="text_19">
      <!-- 20.0 -->
      <g transform="translate(20.878125 32.89965)scale(0.1 -0.1)">
       <use xlink:href="#DejaVuSans-50"/>
       <use x="63.623047" xlink:href="#DejaVuSans-48"/>
       <use x="127.246094" xlink:href="#DejaVuSans-46"/>
       <use x="159.033203" xlink:href="#DejaVuSans-48"/>
      </g>
     </g>
    </g>
    <g id="text_20">
     <!-- Predicted values of Blood Glucose(mmol/L) -->
     <g transform="translate(14.798438 223.423906)rotate(-90)scale(0.1 -0.1)">
      <defs>
       <path d="M 19.671875 64.796875 
L 19.671875 37.40625 
L 32.078125 37.40625 
Q 38.96875 37.40625 42.71875 40.96875 
Q 46.484375 44.53125 46.484375 51.125 
Q 46.484375 57.671875 42.71875 61.234375 
Q 38.96875 64.796875 32.078125 64.796875 
z
M 9.8125 72.90625 
L 32.078125 72.90625 
Q 44.34375 72.90625 50.609375 67.359375 
Q 56.890625 61.8125 56.890625 51.125 
Q 56.890625 40.328125 50.609375 34.8125 
Q 44.34375 29.296875 32.078125 29.296875 
L 19.671875 29.296875 
L 19.671875 0 
L 9.8125 0 
z
" id="DejaVuSans-80"/>
       <path d="M 9.421875 54.6875 
L 18.40625 54.6875 
L 18.40625 0 
L 9.421875 0 
z
M 9.421875 75.984375 
L 18.40625 75.984375 
L 18.40625 64.59375 
L 9.421875 64.59375 
z
" id="DejaVuSans-105"/>
       <path d="M 18.3125 70.21875 
L 18.3125 54.6875 
L 36.8125 54.6875 
L 36.8125 47.703125 
L 18.3125 47.703125 
L 18.3125 18.015625 
Q 18.3125 11.328125 20.140625 9.421875 
Q 21.96875 7.515625 27.59375 7.515625 
L 36.8125 7.515625 
L 36.8125 0 
L 27.59375 0 
Q 17.1875 0 13.234375 3.875 
Q 9.28125 7.765625 9.28125 18.015625 
L 9.28125 47.703125 
L 2.6875 47.703125 
L 2.6875 54.6875 
L 9.28125 54.6875 
L 9.28125 70.21875 
z
" id="DejaVuSans-116"/>
      </defs>
      <use xlink:href="#DejaVuSans-80"/>
      <use x="58.552734" xlink:href="#DejaVuSans-114"/>
      <use x="97.416016" xlink:href="#DejaVuSans-101"/>
      <use x="158.939453" xlink:href="#DejaVuSans-100"/>
      <use x="222.416016" xlink:href="#DejaVuSans-105"/>
      <use x="250.199219" xlink:href="#DejaVuSans-99"/>
      <use x="305.179688" xlink:href="#DejaVuSans-116"/>
      <use x="344.388672" xlink:href="#DejaVuSans-101"/>
      <use x="405.912109" xlink:href="#DejaVuSans-100"/>
      <use x="469.388672" xlink:href="#DejaVuSans-32"/>
      <use x="501.175781" xlink:href="#DejaVuSans-118"/>
      <use x="560.355469" xlink:href="#DejaVuSans-97"/>
      <use x="621.634766" xlink:href="#DejaVuSans-108"/>
      <use x="649.417969" xlink:href="#DejaVuSans-117"/>
      <use x="712.796875" xlink:href="#DejaVuSans-101"/>
      <use x="774.320312" xlink:href="#DejaVuSans-115"/>
      <use x="826.419922" xlink:href="#DejaVuSans-32"/>
      <use x="858.207031" xlink:href="#DejaVuSans-111"/>
      <use x="919.388672" xlink:href="#DejaVuSans-102"/>
      <use x="954.59375" xlink:href="#DejaVuSans-32"/>
      <use x="986.380859" xlink:href="#DejaVuSans-66"/>
      <use x="1054.984375" xlink:href="#DejaVuSans-108"/>
      <use x="1082.767578" xlink:href="#DejaVuSans-111"/>
      <use x="1143.949219" xlink:href="#DejaVuSans-111"/>
      <use x="1205.130859" xlink:href="#DejaVuSans-100"/>
      <use x="1268.607422" xlink:href="#DejaVuSans-32"/>
      <use x="1300.394531" xlink:href="#DejaVuSans-71"/>
      <use x="1377.884766" xlink:href="#DejaVuSans-108"/>
      <use x="1405.667969" xlink:href="#DejaVuSans-117"/>
      <use x="1469.046875" xlink:href="#DejaVuSans-99"/>
      <use x="1524.027344" xlink:href="#DejaVuSans-111"/>
      <use x="1585.208984" xlink:href="#DejaVuSans-115"/>
      <use x="1637.308594" xlink:href="#DejaVuSans-101"/>
      <use x="1698.832031" xlink:href="#DejaVuSans-40"/>
      <use x="1737.845703" xlink:href="#DejaVuSans-109"/>
      <use x="1835.257812" xlink:href="#DejaVuSans-109"/>
      <use x="1932.669922" xlink:href="#DejaVuSans-111"/>
      <use x="1993.851562" xlink:href="#DejaVuSans-108"/>
      <use x="2021.634766" xlink:href="#DejaVuSans-47"/>
      <use x="2055.326172" xlink:href="#DejaVuSans-76"/>
      <use x="2111.039062" xlink:href="#DejaVuSans-41"/>
     </g>
    </g>
   </g>
   <g id="line2d_19">
    <path clip-path="url(#p14b97ae665)" d="M 50.14375 224.64 
L 384.94375 7.2 
" style="fill:none;stroke:#000000;stroke-dasharray:1.5,2.475;stroke-dashoffset:0;stroke-width:1.5;"/>
   </g>
   <g id="line2d_20">
    <path clip-path="url(#p14b97ae665)" d="M 50.14375 186.588 
L 98.96875 186.588 
" style="fill:none;stroke:#000000;stroke-linecap:square;"/>
   </g>
   <g id="line2d_21">
    <path clip-path="url(#p14b97ae665)" d="M 98.96875 186.588 
L 329.14375 7.2 
" style="fill:none;stroke:#000000;stroke-linecap:square;"/>
   </g>
   <g id="line2d_22">
    <path clip-path="url(#p14b97ae665)" d="M 108.73375 178.9776 
L 108.73375 7.2 
" style="fill:none;stroke:#000000;stroke-linecap:square;"/>
   </g>
   <g id="line2d_23">
    <path clip-path="url(#p14b97ae665)" d="M 50.14375 126.792 
L 108.73375 126.792 
" style="fill:none;stroke:#000000;stroke-linecap:square;"/>
   </g>
   <g id="line2d_24">
    <path clip-path="url(#p14b97ae665)" d="M 108.73375 126.792 
L 292.87375 7.2 
" style="fill:none;stroke:#000000;stroke-linecap:square;"/>
   </g>
   <g id="line2d_25">
    <path clip-path="url(#p14b97ae665)" d="M 108.73375 224.64 
L 108.73375 194.1984 
" style="fill:none;stroke:#000000;stroke-linecap:square;"/>
   </g>
   <g id="line2d_26">
    <path clip-path="url(#p14b97ae665)" d="M 108.73375 194.1984 
L 384.94375 50.688 
" style="fill:none;stroke:#000000;stroke-linecap:square;"/>
   </g>
   <g id="line2d_27">
    <path clip-path="url(#p14b97ae665)" d="M 200.80375 224.64 
L 200.80375 186.588 
" style="fill:none;stroke:#000000;stroke-linecap:square;"/>
   </g>
   <g id="line2d_28">
    <path clip-path="url(#p14b97ae665)" d="M 200.80375 186.588 
L 384.94375 186.588 
" style="fill:none;stroke:#000000;stroke-linecap:square;"/>
   </g>
   <g id="line2d_29">
    <path clip-path="url(#p14b97ae665)" d="M 251.02375 186.588 
L 251.02375 126.792 
" style="fill:none;stroke:#000000;stroke-linecap:square;"/>
   </g>
   <g id="line2d_30">
    <path clip-path="url(#p14b97ae665)" d="M 251.02375 126.792 
L 384.94375 126.792 
" style="fill:none;stroke:#000000;stroke-linecap:square;"/>
   </g>
   <g id="line2d_31">
    <path clip-path="url(#p14b97ae665)" d="M 158.95375 224.64 
L 200.80375 186.588 
" style="fill:none;stroke:#000000;stroke-linecap:square;"/>
   </g>
   <g id="patch_3">
    <path d="M 50.14375 224.64 
L 50.14375 7.2 
" style="fill:none;stroke:#000000;stroke-linecap:square;stroke-linejoin:miter;stroke-width:0.8;"/>
   </g>
   <g id="patch_4">
    <path d="M 384.94375 224.64 
L 384.94375 7.2 
" style="fill:none;stroke:#000000;stroke-linecap:square;stroke-linejoin:miter;stroke-width:0.8;"/>
   </g>
   <g id="patch_5">
    <path d="M 50.14375 224.64 
L 384.94375 224.64 
" style="fill:none;stroke:#000000;stroke-linecap:square;stroke-linejoin:miter;stroke-width:0.8;"/>
   </g>
   <g id="patch_6">
    <path d="M 50.14375 7.2 
L 384.94375 7.2 
" style="fill:none;stroke:#000000;stroke-linecap:square;stroke-linejoin:miter;stroke-width:0.8;"/>
   </g>
   <g id="text_21">
    <!-- A -->
    <g transform="translate(75.25375 213.768)scale(0.09 -0.09)">
     <defs>
      <path d="M 34.1875 63.1875 
L 20.796875 26.90625 
L 47.609375 26.90625 
z
M 28.609375 72.90625 
L 39.796875 72.90625 
L 67.578125 0 
L 57.328125 0 
L 50.6875 18.703125 
L 17.828125 18.703125 
L 11.1875 0 
L 0.78125 0 
z
" id="DejaVuSans-65"/>
     </defs>
     <use xlink:href="#DejaVuSans-65"/>
    </g>
   </g>
   <g id="text_22">
    <!-- D -->
    <g transform="translate(75.25375 143.1)scale(0.09 -0.09)">
     <defs>
      <path d="M 19.671875 64.796875 
L 19.671875 8.109375 
L 31.59375 8.109375 
Q 46.6875 8.109375 53.6875 14.9375 
Q 60.6875 21.78125 60.6875 36.53125 
Q 60.6875 51.171875 53.6875 57.984375 
Q 46.6875 64.796875 31.59375 64.796875 
z
M 9.8125 72.90625 
L 30.078125 72.90625 
Q 51.265625 72.90625 61.171875 64.09375 
Q 71.09375 55.28125 71.09375 36.53125 
Q 71.09375 17.671875 61.125 8.828125 
Q 51.171875 0 30.078125 0 
L 9.8125 0 
z
" id="DejaVuSans-68"/>
     </defs>
     <use xlink:href="#DejaVuSans-68"/>
    </g>
   </g>
   <g id="text_23">
    <!-- E -->
    <g transform="translate(75.25375 18.072)scale(0.09 -0.09)">
     <defs>
      <path d="M 9.8125 72.90625 
L 55.90625 72.90625 
L 55.90625 64.59375 
L 19.671875 64.59375 
L 19.671875 43.015625 
L 54.390625 43.015625 
L 54.390625 34.71875 
L 19.671875 34.71875 
L 19.671875 8.296875 
L 56.78125 8.296875 
L 56.78125 0 
L 9.8125 0 
z
" id="DejaVuSans-69"/>
     </defs>
     <use xlink:href="#DejaVuSans-69"/>
    </g>
   </g>
   <g id="text_24">
    <!-- C -->
    <g transform="translate(175.69375 18.072)scale(0.09 -0.09)">
     <defs>
      <path d="M 64.40625 67.28125 
L 64.40625 56.890625 
Q 59.421875 61.53125 53.78125 63.8125 
Q 48.140625 66.109375 41.796875 66.109375 
Q 29.296875 66.109375 22.65625 58.46875 
Q 16.015625 50.828125 16.015625 36.375 
Q 16.015625 21.96875 22.65625 14.328125 
Q 29.296875 6.6875 41.796875 6.6875 
Q 48.140625 6.6875 53.78125 8.984375 
Q 59.421875 11.28125 64.40625 15.921875 
L 64.40625 5.609375 
Q 59.234375 2.09375 53.4375 0.328125 
Q 47.65625 -1.421875 41.21875 -1.421875 
Q 24.65625 -1.421875 15.125 8.703125 
Q 5.609375 18.84375 5.609375 36.375 
Q 5.609375 53.953125 15.125 64.078125 
Q 24.65625 74.21875 41.21875 74.21875 
Q 47.75 74.21875 53.53125 72.484375 
Q 59.328125 70.75 64.40625 67.28125 
z
" id="DejaVuSans-67"/>
     </defs>
     <use xlink:href="#DejaVuSans-67"/>
    </g>
   </g>
   <g id="text_25">
    <!-- C -->
    <g transform="translate(184.06375 213.768)scale(0.09 -0.09)">
     <use xlink:href="#DejaVuSans-67"/>
    </g>
   </g>
   <g id="text_26">
    <!-- E -->
    <g transform="translate(368.20375 213.768)scale(0.09 -0.09)">
     <use xlink:href="#DejaVuSans-69"/>
    </g>
   </g>
   <g id="text_27">
    <!-- D -->
    <g transform="translate(368.20375 159.408)scale(0.09 -0.09)">
     <use xlink:href="#DejaVuSans-68"/>
    </g>
   </g>
   <g id="text_28">
    <!-- B -->
    <g transform="translate(368.20375 83.304)scale(0.09 -0.09)">
     <use xlink:href="#DejaVuSans-66"/>
    </g>
   </g>
   <g id="text_29">
    <!-- B -->
    <g transform="translate(284.50375 18.072)scale(0.09 -0.09)">
     <use xlink:href="#DejaVuSans-66"/>
    </g>
   </g>
  </g>
 </g>
 <defs>
  <clipPath id="p14b97ae665">
   <rect height="217.44" width="334.8" x="50.14375" y="7.2"/>
  </clipPath>
 </defs>
</svg>
