<?xml version="1.0" encoding="utf-8" standalone="no"?>
<!DOCTYPE svg PUBLIC "-//W3C//DTD SVG 1.1//EN"
  "http://www.w3.org/Graphics/SVG/1.1/DTD/svg11.dtd">
<!-- Created with matplotlib (https://matplotlib.org/) -->
<svg height="248.518125pt" version="1.1" viewBox="0 0 372.103125 248.518125" width="372.103125pt" xmlns="http://www.w3.org/2000/svg" xmlns:xlink="http://www.w3.org/1999/xlink">
 <metadata>
  <rdf:RDF xmlns:cc="http://creativecommons.org/ns#" xmlns:dc="http://purl.org/dc/elements/1.1/" xmlns:rdf="http://www.w3.org/1999/02/22-rdf-syntax-ns#">
   <cc:Work>
    <dc:type rdf:resource="http://purl.org/dc/dcmitype/StillImage"/>
    <dc:date>2020-10-14T14:42:20.781876</dc:date>
    <dc:format>image/svg+xml</dc:format>
    <dc:creator>
     <cc:Agent>
      <dc:title>Matplotlib v3.3.2, https://matplotlib.org/</dc:title>
     </cc:Agent>
    </dc:creator>
   </cc:Work>
  </rdf:RDF>
 </metadata>
 <defs>
  <style type="text/css">*{stroke-linecap:butt;stroke-linejoin:round;}</style>
 </defs>
 <g id="figure_1">
  <g id="patch_1">
   <path d="M 0 248.518125 
L 372.103125 248.518125 
L 372.103125 0 
L 0 0 
z
" style="fill:none;"/>
  </g>
  <g id="axes_1">
   <g id="patch_2">
    <path d="M 30.103125 224.64 
L 364.903125 224.64 
L 364.903125 7.2 
L 30.103125 7.2 
z
" style="fill:#ffffff;"/>
   </g>
   <g id="PathCollection_1">
    <defs>
     <path d="M 0 3 
C 0.795609 3 1.55874 2.683901 2.12132 2.12132 
C 2.683901 1.55874 3 0.795609 3 0 
C 3 -0.795609 2.683901 -1.55874 2.12132 -2.12132 
C 1.55874 -2.683901 0.795609 -3 0 -3 
C -0.795609 -3 -1.55874 -2.683901 -2.12132 -2.12132 
C -2.683901 -1.55874 -3 -0.795609 -3 0 
C -3 0.795609 -2.683901 1.55874 -2.12132 2.12132 
C -1.55874 2.683901 -0.795609 3 0 3 
z
" id="m44e27a30fa" style="stroke:#1f77b4;"/>
    </defs>
    <g clip-path="url(#p2900020e5d)">
     <use style="fill:#1f77b4;stroke:#1f77b4;" x="168.134704" xlink:href="#m44e27a30fa" y="182.958283"/>
     <use style="fill:#1f77b4;stroke:#1f77b4;" x="77.359584" xlink:href="#m44e27a30fa" y="124.51542"/>
     <use style="fill:#1f77b4;stroke:#1f77b4;" x="248.230398" xlink:href="#m44e27a30fa" y="134.38069"/>
     <use style="fill:#1f77b4;stroke:#1f77b4;" x="125.417001" xlink:href="#m44e27a30fa" y="105.901471"/>
     <use style="fill:#1f77b4;stroke:#1f77b4;" x="93.378723" xlink:href="#m44e27a30fa" y="138.487233"/>
     <use style="fill:#1f77b4;stroke:#1f77b4;" x="93.378723" xlink:href="#m44e27a30fa" y="137.815275"/>
     <use style="fill:#1f77b4;stroke:#1f77b4;" x="56.000733" xlink:href="#m44e27a30fa" y="208.347377"/>
     <use style="fill:#1f77b4;stroke:#1f77b4;" x="184.153843" xlink:href="#m44e27a30fa" y="164.162949"/>
     <use style="fill:#1f77b4;stroke:#1f77b4;" x="200.172981" xlink:href="#m44e27a30fa" y="147.197152"/>
     <use style="fill:#1f77b4;stroke:#1f77b4;" x="157.455278" xlink:href="#m44e27a30fa" y="139.923771"/>
     <use style="fill:#1f77b4;stroke:#1f77b4;" x="98.718436" xlink:href="#m44e27a30fa" y="153.281264"/>
     <use style="fill:#1f77b4;stroke:#1f77b4;" x="200.172981" xlink:href="#m44e27a30fa" y="179.595072"/>
     <use style="fill:#1f77b4;stroke:#1f77b4;" x="82.699297" xlink:href="#m44e27a30fa" y="111.276182"/>
     <use style="fill:#1f77b4;stroke:#1f77b4;" x="77.359584" xlink:href="#m44e27a30fa" y="114.879652"/>
     <use style="fill:#1f77b4;stroke:#1f77b4;" x="157.455278" xlink:href="#m44e27a30fa" y="165.59176"/>
     <use style="fill:#1f77b4;stroke:#1f77b4;" x="221.531833" xlink:href="#m44e27a30fa" y="47.702424"/>
     <use style="fill:#1f77b4;stroke:#1f77b4;" x="184.153843" xlink:href="#m44e27a30fa" y="109.81138"/>
     <use style="fill:#1f77b4;stroke:#1f77b4;" x="66.680158" xlink:href="#m44e27a30fa" y="144.35742"/>
     <use style="fill:#1f77b4;stroke:#1f77b4;" x="178.81413" xlink:href="#m44e27a30fa" y="74.40273"/>
     <use style="fill:#1f77b4;stroke:#1f77b4;" x="258.909824" xlink:href="#m44e27a30fa" y="127.420343"/>
     <use style="fill:#1f77b4;stroke:#1f77b4;" x="221.531833" xlink:href="#m44e27a30fa" y="37.238752"/>
     <use style="fill:#1f77b4;stroke:#1f77b4;" x="296.287814" xlink:href="#m44e27a30fa" y="17.083636"/>
     <use style="fill:#1f77b4;stroke:#1f77b4;" x="120.077288" xlink:href="#m44e27a30fa" y="170.377836"/>
     <use style="fill:#1f77b4;stroke:#1f77b4;" x="120.077288" xlink:href="#m44e27a30fa" y="156.51387"/>
     <use style="fill:#1f77b4;stroke:#1f77b4;" x="173.474417" xlink:href="#m44e27a30fa" y="96.242431"/>
     <use style="fill:#1f77b4;stroke:#1f77b4;" x="109.397862" xlink:href="#m44e27a30fa" y="214.756364"/>
     <use style="fill:#1f77b4;stroke:#1f77b4;" x="88.03901" xlink:href="#m44e27a30fa" y="178.108405"/>
     <use style="fill:#1f77b4;stroke:#1f77b4;" x="184.153843" xlink:href="#m44e27a30fa" y="112.009434"/>
     <use style="fill:#1f77b4;stroke:#1f77b4;" x="173.474417" xlink:href="#m44e27a30fa" y="121.759637"/>
     <use style="fill:#1f77b4;stroke:#1f77b4;" x="221.531833" xlink:href="#m44e27a30fa" y="165.511232"/>
     <use style="fill:#1f77b4;stroke:#1f77b4;" x="146.775852" xlink:href="#m44e27a30fa" y="111.87371"/>
     <use style="fill:#1f77b4;stroke:#1f77b4;" x="98.718436" xlink:href="#m44e27a30fa" y="134.412534"/>
     <use style="fill:#1f77b4;stroke:#1f77b4;" x="130.756714" xlink:href="#m44e27a30fa" y="64.545254"/>
     <use style="fill:#1f77b4;stroke:#1f77b4;" x="72.019871" xlink:href="#m44e27a30fa" y="171.592726"/>
     <use style="fill:#1f77b4;stroke:#1f77b4;" x="125.417001" xlink:href="#m44e27a30fa" y="203.757824"/>
     <use style="fill:#1f77b4;stroke:#1f77b4;" x="130.756714" xlink:href="#m44e27a30fa" y="118.449199"/>
     <use style="fill:#1f77b4;stroke:#1f77b4;" x="109.397862" xlink:href="#m44e27a30fa" y="138.370973"/>
     <use style="fill:#1f77b4;stroke:#1f77b4;" x="141.436139" xlink:href="#m44e27a30fa" y="167.65602"/>
     <use style="fill:#1f77b4;stroke:#1f77b4;" x="93.378723" xlink:href="#m44e27a30fa" y="60.228527"/>
     <use style="fill:#1f77b4;stroke:#1f77b4;" x="72.019871" xlink:href="#m44e27a30fa" y="197.177419"/>
     <use style="fill:#1f77b4;stroke:#1f77b4;" x="61.340446" xlink:href="#m44e27a30fa" y="189.104011"/>
     <use style="fill:#1f77b4;stroke:#1f77b4;" x="104.058149" xlink:href="#m44e27a30fa" y="128.282906"/>
     <use style="fill:#1f77b4;stroke:#1f77b4;" x="189.493556" xlink:href="#m44e27a30fa" y="130.551991"/>
     <use style="fill:#1f77b4;stroke:#1f77b4;" x="72.019871" xlink:href="#m44e27a30fa" y="170.247475"/>
     <use style="fill:#1f77b4;stroke:#1f77b4;" x="258.909824" xlink:href="#m44e27a30fa" y="153.718884"/>
     <use style="fill:#1f77b4;stroke:#1f77b4;" x="120.077288" xlink:href="#m44e27a30fa" y="201.136689"/>
     <use style="fill:#1f77b4;stroke:#1f77b4;" x="88.03901" xlink:href="#m44e27a30fa" y="131.154587"/>
     <use style="fill:#1f77b4;stroke:#1f77b4;" x="77.359584" xlink:href="#m44e27a30fa" y="198.016752"/>
     <use style="fill:#1f77b4;stroke:#1f77b4;" x="109.397862" xlink:href="#m44e27a30fa" y="175.123686"/>
     <use style="fill:#1f77b4;stroke:#1f77b4;" x="77.359584" xlink:href="#m44e27a30fa" y="117.927852"/>
     <use style="fill:#1f77b4;stroke:#1f77b4;" x="77.359584" xlink:href="#m44e27a30fa" y="162.628442"/>
     <use style="fill:#1f77b4;stroke:#1f77b4;" x="66.680158" xlink:href="#m44e27a30fa" y="165.94068"/>
     <use style="fill:#1f77b4;stroke:#1f77b4;" x="72.019871" xlink:href="#m44e27a30fa" y="158.121355"/>
     <use style="fill:#1f77b4;stroke:#1f77b4;" x="104.058149" xlink:href="#m44e27a30fa" y="132.279296"/>
     <use style="fill:#1f77b4;stroke:#1f77b4;" x="50.66102" xlink:href="#m44e27a30fa" y="172.823537"/>
     <use style="fill:#1f77b4;stroke:#1f77b4;" x="152.115565" xlink:href="#m44e27a30fa" y="209.556935"/>
     <use style="fill:#1f77b4;stroke:#1f77b4;" x="136.096426" xlink:href="#m44e27a30fa" y="173.257569"/>
     <use style="fill:#1f77b4;stroke:#1f77b4;" x="269.589249" xlink:href="#m44e27a30fa" y="143.675297"/>
     <use style="fill:#1f77b4;stroke:#1f77b4;" x="88.03901" xlink:href="#m44e27a30fa" y="200.807294"/>
     <use style="fill:#1f77b4;stroke:#1f77b4;" x="61.340446" xlink:href="#m44e27a30fa" y="201.149115"/>
     <use style="fill:#1f77b4;stroke:#1f77b4;" x="93.378723" xlink:href="#m44e27a30fa" y="145.933014"/>
     <use style="fill:#1f77b4;stroke:#1f77b4;" x="258.909824" xlink:href="#m44e27a30fa" y="100.645531"/>
     <use style="fill:#1f77b4;stroke:#1f77b4;" x="98.718436" xlink:href="#m44e27a30fa" y="140.246965"/>
     <use style="fill:#1f77b4;stroke:#1f77b4;" x="232.211259" xlink:href="#m44e27a30fa" y="107.325175"/>
     <use style="fill:#1f77b4;stroke:#1f77b4;" x="152.115565" xlink:href="#m44e27a30fa" y="166.647131"/>
     <use style="fill:#1f77b4;stroke:#1f77b4;" x="125.417001" xlink:href="#m44e27a30fa" y="131.838817"/>
     <use style="fill:#1f77b4;stroke:#1f77b4;" x="232.211259" xlink:href="#m44e27a30fa" y="98.520258"/>
     <use style="fill:#1f77b4;stroke:#1f77b4;" x="66.680158" xlink:href="#m44e27a30fa" y="156.90414"/>
     <use style="fill:#1f77b4;stroke:#1f77b4;" x="45.321307" xlink:href="#m44e27a30fa" y="197.40595"/>
     <use style="fill:#1f77b4;stroke:#1f77b4;" x="146.775852" xlink:href="#m44e27a30fa" y="146.594567"/>
     <use style="fill:#1f77b4;stroke:#1f77b4;" x="226.871546" xlink:href="#m44e27a30fa" y="90.352213"/>
     <use style="fill:#1f77b4;stroke:#1f77b4;" x="221.531833" xlink:href="#m44e27a30fa" y="141.405643"/>
     <use style="fill:#1f77b4;stroke:#1f77b4;" x="77.359584" xlink:href="#m44e27a30fa" y="156.963798"/>
     <use style="fill:#1f77b4;stroke:#1f77b4;" x="264.249536" xlink:href="#m44e27a30fa" y="131.678493"/>
     <use style="fill:#1f77b4;stroke:#1f77b4;" x="125.417001" xlink:href="#m44e27a30fa" y="179.655662"/>
     <use style="fill:#1f77b4;stroke:#1f77b4;" x="349.684943" xlink:href="#m44e27a30fa" y="122.610284"/>
     <use style="fill:#1f77b4;stroke:#1f77b4;" x="98.718436" xlink:href="#m44e27a30fa" y="182.899094"/>
     <use style="fill:#1f77b4;stroke:#1f77b4;" x="141.436139" xlink:href="#m44e27a30fa" y="146.347328"/>
     <use style="fill:#1f77b4;stroke:#1f77b4;" x="50.66102" xlink:href="#m44e27a30fa" y="176.811381"/>
     <use style="fill:#1f77b4;stroke:#1f77b4;" x="77.359584" xlink:href="#m44e27a30fa" y="205.871287"/>
     <use style="fill:#1f77b4;stroke:#1f77b4;" x="77.359584" xlink:href="#m44e27a30fa" y="98.919622"/>
     <use style="fill:#1f77b4;stroke:#1f77b4;" x="141.436139" xlink:href="#m44e27a30fa" y="65.043453"/>
    </g>
   </g>
   <g id="matplotlib.axis_1">
    <g id="xtick_1">
     <g id="line2d_1">
      <defs>
       <path d="M 0 0 
L 0 3.5 
" id="m62dd2474f2" style="stroke:#000000;stroke-width:0.8;"/>
      </defs>
      <g>
       <use style="stroke:#000000;stroke-width:0.8;" x="82.699297" xlink:href="#m62dd2474f2" y="224.64"/>
      </g>
     </g>
     <g id="text_1">
      <!-- 5 -->
      <g transform="translate(79.518047 239.238437)scale(0.1 -0.1)">
       <defs>
        <path d="M 10.796875 72.90625 
L 49.515625 72.90625 
L 49.515625 64.59375 
L 19.828125 64.59375 
L 19.828125 46.734375 
Q 21.96875 47.46875 24.109375 47.828125 
Q 26.265625 48.1875 28.421875 48.1875 
Q 40.625 48.1875 47.75 41.5 
Q 54.890625 34.8125 54.890625 23.390625 
Q 54.890625 11.625 47.5625 5.09375 
Q 40.234375 -1.421875 26.90625 -1.421875 
Q 22.3125 -1.421875 17.546875 -0.640625 
Q 12.796875 0.140625 7.71875 1.703125 
L 7.71875 11.625 
Q 12.109375 9.234375 16.796875 8.0625 
Q 21.484375 6.890625 26.703125 6.890625 
Q 35.15625 6.890625 40.078125 11.328125 
Q 45.015625 15.765625 45.015625 23.390625 
Q 45.015625 31 40.078125 35.4375 
Q 35.15625 39.890625 26.703125 39.890625 
Q 22.75 39.890625 18.8125 39.015625 
Q 14.890625 38.140625 10.796875 36.28125 
z
" id="DejaVuSans-53"/>
       </defs>
       <use xlink:href="#DejaVuSans-53"/>
      </g>
     </g>
    </g>
    <g id="xtick_2">
     <g id="line2d_2">
      <g>
       <use style="stroke:#000000;stroke-width:0.8;" x="136.096426" xlink:href="#m62dd2474f2" y="224.64"/>
      </g>
     </g>
     <g id="text_2">
      <!-- 6 -->
      <g transform="translate(132.915176 239.238437)scale(0.1 -0.1)">
       <defs>
        <path d="M 33.015625 40.375 
Q 26.375 40.375 22.484375 35.828125 
Q 18.609375 31.296875 18.609375 23.390625 
Q 18.609375 15.53125 22.484375 10.953125 
Q 26.375 6.390625 33.015625 6.390625 
Q 39.65625 6.390625 43.53125 10.953125 
Q 47.40625 15.53125 47.40625 23.390625 
Q 47.40625 31.296875 43.53125 35.828125 
Q 39.65625 40.375 33.015625 40.375 
z
M 52.59375 71.296875 
L 52.59375 62.3125 
Q 48.875 64.0625 45.09375 64.984375 
Q 41.3125 65.921875 37.59375 65.921875 
Q 27.828125 65.921875 22.671875 59.328125 
Q 17.53125 52.734375 16.796875 39.40625 
Q 19.671875 43.65625 24.015625 45.921875 
Q 28.375 48.1875 33.59375 48.1875 
Q 44.578125 48.1875 50.953125 41.515625 
Q 57.328125 34.859375 57.328125 23.390625 
Q 57.328125 12.15625 50.6875 5.359375 
Q 44.046875 -1.421875 33.015625 -1.421875 
Q 20.359375 -1.421875 13.671875 8.265625 
Q 6.984375 17.96875 6.984375 36.375 
Q 6.984375 53.65625 15.1875 63.9375 
Q 23.390625 74.21875 37.203125 74.21875 
Q 40.921875 74.21875 44.703125 73.484375 
Q 48.484375 72.75 52.59375 71.296875 
z
" id="DejaVuSans-54"/>
       </defs>
       <use xlink:href="#DejaVuSans-54"/>
      </g>
     </g>
    </g>
    <g id="xtick_3">
     <g id="line2d_3">
      <g>
       <use style="stroke:#000000;stroke-width:0.8;" x="189.493556" xlink:href="#m62dd2474f2" y="224.64"/>
      </g>
     </g>
     <g id="text_3">
      <!-- 7 -->
      <g transform="translate(186.312306 239.238437)scale(0.1 -0.1)">
       <defs>
        <path d="M 8.203125 72.90625 
L 55.078125 72.90625 
L 55.078125 68.703125 
L 28.609375 0 
L 18.3125 0 
L 43.21875 64.59375 
L 8.203125 64.59375 
z
" id="DejaVuSans-55"/>
       </defs>
       <use xlink:href="#DejaVuSans-55"/>
      </g>
     </g>
    </g>
    <g id="xtick_4">
     <g id="line2d_4">
      <g>
       <use style="stroke:#000000;stroke-width:0.8;" x="242.890685" xlink:href="#m62dd2474f2" y="224.64"/>
      </g>
     </g>
     <g id="text_4">
      <!-- 8 -->
      <g transform="translate(239.709435 239.238437)scale(0.1 -0.1)">
       <defs>
        <path d="M 31.78125 34.625 
Q 24.75 34.625 20.71875 30.859375 
Q 16.703125 27.09375 16.703125 20.515625 
Q 16.703125 13.921875 20.71875 10.15625 
Q 24.75 6.390625 31.78125 6.390625 
Q 38.8125 6.390625 42.859375 10.171875 
Q 46.921875 13.96875 46.921875 20.515625 
Q 46.921875 27.09375 42.890625 30.859375 
Q 38.875 34.625 31.78125 34.625 
z
M 21.921875 38.8125 
Q 15.578125 40.375 12.03125 44.71875 
Q 8.5 49.078125 8.5 55.328125 
Q 8.5 64.0625 14.71875 69.140625 
Q 20.953125 74.21875 31.78125 74.21875 
Q 42.671875 74.21875 48.875 69.140625 
Q 55.078125 64.0625 55.078125 55.328125 
Q 55.078125 49.078125 51.53125 44.71875 
Q 48 40.375 41.703125 38.8125 
Q 48.828125 37.15625 52.796875 32.3125 
Q 56.78125 27.484375 56.78125 20.515625 
Q 56.78125 9.90625 50.3125 4.234375 
Q 43.84375 -1.421875 31.78125 -1.421875 
Q 19.734375 -1.421875 13.25 4.234375 
Q 6.78125 9.90625 6.78125 20.515625 
Q 6.78125 27.484375 10.78125 32.3125 
Q 14.796875 37.15625 21.921875 38.8125 
z
M 18.3125 54.390625 
Q 18.3125 48.734375 21.84375 45.5625 
Q 25.390625 42.390625 31.78125 42.390625 
Q 38.140625 42.390625 41.71875 45.5625 
Q 45.3125 48.734375 45.3125 54.390625 
Q 45.3125 60.0625 41.71875 63.234375 
Q 38.140625 66.40625 31.78125 66.40625 
Q 25.390625 66.40625 21.84375 63.234375 
Q 18.3125 60.0625 18.3125 54.390625 
z
" id="DejaVuSans-56"/>
       </defs>
       <use xlink:href="#DejaVuSans-56"/>
      </g>
     </g>
    </g>
    <g id="xtick_5">
     <g id="line2d_5">
      <g>
       <use style="stroke:#000000;stroke-width:0.8;" x="296.287814" xlink:href="#m62dd2474f2" y="224.64"/>
      </g>
     </g>
     <g id="text_5">
      <!-- 9 -->
      <g transform="translate(293.106564 239.238437)scale(0.1 -0.1)">
       <defs>
        <path d="M 10.984375 1.515625 
L 10.984375 10.5 
Q 14.703125 8.734375 18.5 7.8125 
Q 22.3125 6.890625 25.984375 6.890625 
Q 35.75 6.890625 40.890625 13.453125 
Q 46.046875 20.015625 46.78125 33.40625 
Q 43.953125 29.203125 39.59375 26.953125 
Q 35.25 24.703125 29.984375 24.703125 
Q 19.046875 24.703125 12.671875 31.3125 
Q 6.296875 37.9375 6.296875 49.421875 
Q 6.296875 60.640625 12.9375 67.421875 
Q 19.578125 74.21875 30.609375 74.21875 
Q 43.265625 74.21875 49.921875 64.515625 
Q 56.59375 54.828125 56.59375 36.375 
Q 56.59375 19.140625 48.40625 8.859375 
Q 40.234375 -1.421875 26.421875 -1.421875 
Q 22.703125 -1.421875 18.890625 -0.6875 
Q 15.09375 0.046875 10.984375 1.515625 
z
M 30.609375 32.421875 
Q 37.25 32.421875 41.125 36.953125 
Q 45.015625 41.5 45.015625 49.421875 
Q 45.015625 57.28125 41.125 61.84375 
Q 37.25 66.40625 30.609375 66.40625 
Q 23.96875 66.40625 20.09375 61.84375 
Q 16.21875 57.28125 16.21875 49.421875 
Q 16.21875 41.5 20.09375 36.953125 
Q 23.96875 32.421875 30.609375 32.421875 
z
" id="DejaVuSans-57"/>
       </defs>
       <use xlink:href="#DejaVuSans-57"/>
      </g>
     </g>
    </g>
    <g id="xtick_6">
     <g id="line2d_6">
      <g>
       <use style="stroke:#000000;stroke-width:0.8;" x="349.684943" xlink:href="#m62dd2474f2" y="224.64"/>
      </g>
     </g>
     <g id="text_6">
      <!-- 10 -->
      <g transform="translate(343.322443 239.238437)scale(0.1 -0.1)">
       <defs>
        <path d="M 12.40625 8.296875 
L 28.515625 8.296875 
L 28.515625 63.921875 
L 10.984375 60.40625 
L 10.984375 69.390625 
L 28.421875 72.90625 
L 38.28125 72.90625 
L 38.28125 8.296875 
L 54.390625 8.296875 
L 54.390625 0 
L 12.40625 0 
z
" id="DejaVuSans-49"/>
        <path d="M 31.78125 66.40625 
Q 24.171875 66.40625 20.328125 58.90625 
Q 16.5 51.421875 16.5 36.375 
Q 16.5 21.390625 20.328125 13.890625 
Q 24.171875 6.390625 31.78125 6.390625 
Q 39.453125 6.390625 43.28125 13.890625 
Q 47.125 21.390625 47.125 36.375 
Q 47.125 51.421875 43.28125 58.90625 
Q 39.453125 66.40625 31.78125 66.40625 
z
M 31.78125 74.21875 
Q 44.046875 74.21875 50.515625 64.515625 
Q 56.984375 54.828125 56.984375 36.375 
Q 56.984375 17.96875 50.515625 8.265625 
Q 44.046875 -1.421875 31.78125 -1.421875 
Q 19.53125 -1.421875 13.0625 8.265625 
Q 6.59375 17.96875 6.59375 36.375 
Q 6.59375 54.828125 13.0625 64.515625 
Q 19.53125 74.21875 31.78125 74.21875 
z
" id="DejaVuSans-48"/>
       </defs>
       <use xlink:href="#DejaVuSans-49"/>
       <use x="63.623047" xlink:href="#DejaVuSans-48"/>
      </g>
     </g>
    </g>
   </g>
   <g id="matplotlib.axis_2">
    <g id="ytick_1">
     <g id="line2d_7">
      <defs>
       <path d="M 0 0 
L -3.5 0 
" id="m3da5657edb" style="stroke:#000000;stroke-width:0.8;"/>
      </defs>
      <g>
       <use style="stroke:#000000;stroke-width:0.8;" x="30.103125" xlink:href="#m3da5657edb" y="210.99128"/>
      </g>
     </g>
     <g id="text_7">
      <!-- 5.0 -->
      <g transform="translate(7.2 214.790499)scale(0.1 -0.1)">
       <defs>
        <path d="M 10.6875 12.40625 
L 21 12.40625 
L 21 0 
L 10.6875 0 
z
" id="DejaVuSans-46"/>
       </defs>
       <use xlink:href="#DejaVuSans-53"/>
       <use x="63.623047" xlink:href="#DejaVuSans-46"/>
       <use x="95.410156" xlink:href="#DejaVuSans-48"/>
      </g>
     </g>
    </g>
    <g id="ytick_2">
     <g id="line2d_8">
      <g>
       <use style="stroke:#000000;stroke-width:0.8;" x="30.103125" xlink:href="#m3da5657edb" y="180.531786"/>
      </g>
     </g>
     <g id="text_8">
      <!-- 5.5 -->
      <g transform="translate(7.2 184.331005)scale(0.1 -0.1)">
       <use xlink:href="#DejaVuSans-53"/>
       <use x="63.623047" xlink:href="#DejaVuSans-46"/>
       <use x="95.410156" xlink:href="#DejaVuSans-53"/>
      </g>
     </g>
    </g>
    <g id="ytick_3">
     <g id="line2d_9">
      <g>
       <use style="stroke:#000000;stroke-width:0.8;" x="30.103125" xlink:href="#m3da5657edb" y="150.072293"/>
      </g>
     </g>
     <g id="text_9">
      <!-- 6.0 -->
      <g transform="translate(7.2 153.871511)scale(0.1 -0.1)">
       <use xlink:href="#DejaVuSans-54"/>
       <use x="63.623047" xlink:href="#DejaVuSans-46"/>
       <use x="95.410156" xlink:href="#DejaVuSans-48"/>
      </g>
     </g>
    </g>
    <g id="ytick_4">
     <g id="line2d_10">
      <g>
       <use style="stroke:#000000;stroke-width:0.8;" x="30.103125" xlink:href="#m3da5657edb" y="119.612799"/>
      </g>
     </g>
     <g id="text_10">
      <!-- 6.5 -->
      <g transform="translate(7.2 123.412018)scale(0.1 -0.1)">
       <use xlink:href="#DejaVuSans-54"/>
       <use x="63.623047" xlink:href="#DejaVuSans-46"/>
       <use x="95.410156" xlink:href="#DejaVuSans-53"/>
      </g>
     </g>
    </g>
    <g id="ytick_5">
     <g id="line2d_11">
      <g>
       <use style="stroke:#000000;stroke-width:0.8;" x="30.103125" xlink:href="#m3da5657edb" y="89.153305"/>
      </g>
     </g>
     <g id="text_11">
      <!-- 7.0 -->
      <g transform="translate(7.2 92.952524)scale(0.1 -0.1)">
       <use xlink:href="#DejaVuSans-55"/>
       <use x="63.623047" xlink:href="#DejaVuSans-46"/>
       <use x="95.410156" xlink:href="#DejaVuSans-48"/>
      </g>
     </g>
    </g>
    <g id="ytick_6">
     <g id="line2d_12">
      <g>
       <use style="stroke:#000000;stroke-width:0.8;" x="30.103125" xlink:href="#m3da5657edb" y="58.693811"/>
      </g>
     </g>
     <g id="text_12">
      <!-- 7.5 -->
      <g transform="translate(7.2 62.49303)scale(0.1 -0.1)">
       <use xlink:href="#DejaVuSans-55"/>
       <use x="63.623047" xlink:href="#DejaVuSans-46"/>
       <use x="95.410156" xlink:href="#DejaVuSans-53"/>
      </g>
     </g>
    </g>
    <g id="ytick_7">
     <g id="line2d_13">
      <g>
       <use style="stroke:#000000;stroke-width:0.8;" x="30.103125" xlink:href="#m3da5657edb" y="28.234318"/>
      </g>
     </g>
     <g id="text_13">
      <!-- 8.0 -->
      <g transform="translate(7.2 32.033536)scale(0.1 -0.1)">
       <use xlink:href="#DejaVuSans-56"/>
       <use x="63.623047" xlink:href="#DejaVuSans-46"/>
       <use x="95.410156" xlink:href="#DejaVuSans-48"/>
      </g>
     </g>
    </g>
   </g>
   <g id="patch_3">
    <path d="M 30.103125 224.64 
L 30.103125 7.2 
" style="fill:none;stroke:#000000;stroke-linecap:square;stroke-linejoin:miter;stroke-width:0.8;"/>
   </g>
   <g id="patch_4">
    <path d="M 364.903125 224.64 
L 364.903125 7.2 
" style="fill:none;stroke:#000000;stroke-linecap:square;stroke-linejoin:miter;stroke-width:0.8;"/>
   </g>
   <g id="patch_5">
    <path d="M 30.103125 224.64 
L 364.903125 224.64 
" style="fill:none;stroke:#000000;stroke-linecap:square;stroke-linejoin:miter;stroke-width:0.8;"/>
   </g>
   <g id="patch_6">
    <path d="M 30.103125 7.2 
L 364.903125 7.2 
" style="fill:none;stroke:#000000;stroke-linecap:square;stroke-linejoin:miter;stroke-width:0.8;"/>
   </g>
  </g>
 </g>
 <defs>
  <clipPath id="p2900020e5d">
   <rect height="217.44" width="334.8" x="30.103125" y="7.2"/>
  </clipPath>
 </defs>
</svg>
