<?xml version="1.0" encoding="utf-8" standalone="no"?>
<!DOCTYPE svg PUBLIC "-//W3C//DTD SVG 1.1//EN"
  "http://www.w3.org/Graphics/SVG/1.1/DTD/svg11.dtd">
<!-- Created with matplotlib (https://matplotlib.org/) -->
<svg height="248.518125pt" version="1.1" viewBox="0 0 368.925 248.518125" width="368.925pt" xmlns="http://www.w3.org/2000/svg" xmlns:xlink="http://www.w3.org/1999/xlink">
 <metadata>
  <rdf:RDF xmlns:cc="http://creativecommons.org/ns#" xmlns:dc="http://purl.org/dc/elements/1.1/" xmlns:rdf="http://www.w3.org/1999/02/22-rdf-syntax-ns#">
   <cc:Work>
    <dc:type rdf:resource="http://purl.org/dc/dcmitype/StillImage"/>
    <dc:date>2020-10-16T19:24:38.191595</dc:date>
    <dc:format>image/svg+xml</dc:format>
    <dc:creator>
     <cc:Agent>
      <dc:title>Matplotlib v3.3.2, https://matplotlib.org/</dc:title>
     </cc:Agent>
    </dc:creator>
   </cc:Work>
  </rdf:RDF>
 </metadata>
 <defs>
  <style type="text/css">*{stroke-linecap:butt;stroke-linejoin:round;}</style>
 </defs>
 <g id="figure_1">
  <g id="patch_1">
   <path d="M -0 248.518125 
L 368.925 248.518125 
L 368.925 0 
L -0 0 
z
" style="fill:none;"/>
  </g>
  <g id="axes_1">
   <g id="patch_2">
    <path d="M 26.925 224.64 
L 361.725 224.64 
L 361.725 7.2 
L 26.925 7.2 
z
" style="fill:#ffffff;"/>
   </g>
   <g id="matplotlib.axis_1">
    <g id="xtick_1">
     <g id="line2d_1">
      <defs>
       <path d="M 0 0 
L 0 3.5 
" id="m17819d95d5" style="stroke:#000000;stroke-width:0.8;"/>
      </defs>
      <g>
       <use style="stroke:#000000;stroke-width:0.8;" x="42.143182" xlink:href="#m17819d95d5" y="224.64"/>
      </g>
     </g>
     <g id="text_1">
      <!-- 0 -->
      <g transform="translate(38.961932 239.238438)scale(0.1 -0.1)">
       <defs>
        <path d="M 31.78125 66.40625 
Q 24.171875 66.40625 20.328125 58.90625 
Q 16.5 51.421875 16.5 36.375 
Q 16.5 21.390625 20.328125 13.890625 
Q 24.171875 6.390625 31.78125 6.390625 
Q 39.453125 6.390625 43.28125 13.890625 
Q 47.125 21.390625 47.125 36.375 
Q 47.125 51.421875 43.28125 58.90625 
Q 39.453125 66.40625 31.78125 66.40625 
z
M 31.78125 74.21875 
Q 44.046875 74.21875 50.515625 64.515625 
Q 56.984375 54.828125 56.984375 36.375 
Q 56.984375 17.96875 50.515625 8.265625 
Q 44.046875 -1.421875 31.78125 -1.421875 
Q 19.53125 -1.421875 13.0625 8.265625 
Q 6.59375 17.96875 6.59375 36.375 
Q 6.59375 54.828125 13.0625 64.515625 
Q 19.53125 74.21875 31.78125 74.21875 
z
" id="DejaVuSans-48"/>
       </defs>
       <use xlink:href="#DejaVuSans-48"/>
      </g>
     </g>
    </g>
    <g id="xtick_2">
     <g id="line2d_2">
      <g>
       <use style="stroke:#000000;stroke-width:0.8;" x="103.076843" xlink:href="#m17819d95d5" y="224.64"/>
      </g>
     </g>
     <g id="text_2">
      <!-- 200 -->
      <g transform="translate(93.533093 239.238438)scale(0.1 -0.1)">
       <defs>
        <path d="M 19.1875 8.296875 
L 53.609375 8.296875 
L 53.609375 0 
L 7.328125 0 
L 7.328125 8.296875 
Q 12.9375 14.109375 22.625 23.890625 
Q 32.328125 33.6875 34.8125 36.53125 
Q 39.546875 41.84375 41.421875 45.53125 
Q 43.3125 49.21875 43.3125 52.78125 
Q 43.3125 58.59375 39.234375 62.25 
Q 35.15625 65.921875 28.609375 65.921875 
Q 23.96875 65.921875 18.8125 64.3125 
Q 13.671875 62.703125 7.8125 59.421875 
L 7.8125 69.390625 
Q 13.765625 71.78125 18.9375 73 
Q 24.125 74.21875 28.421875 74.21875 
Q 39.75 74.21875 46.484375 68.546875 
Q 53.21875 62.890625 53.21875 53.421875 
Q 53.21875 48.921875 51.53125 44.890625 
Q 49.859375 40.875 45.40625 35.40625 
Q 44.1875 33.984375 37.640625 27.21875 
Q 31.109375 20.453125 19.1875 8.296875 
z
" id="DejaVuSans-50"/>
       </defs>
       <use xlink:href="#DejaVuSans-50"/>
       <use x="63.623047" xlink:href="#DejaVuSans-48"/>
       <use x="127.246094" xlink:href="#DejaVuSans-48"/>
      </g>
     </g>
    </g>
    <g id="xtick_3">
     <g id="line2d_3">
      <g>
       <use style="stroke:#000000;stroke-width:0.8;" x="164.010504" xlink:href="#m17819d95d5" y="224.64"/>
      </g>
     </g>
     <g id="text_3">
      <!-- 400 -->
      <g transform="translate(154.466754 239.238438)scale(0.1 -0.1)">
       <defs>
        <path d="M 37.796875 64.3125 
L 12.890625 25.390625 
L 37.796875 25.390625 
z
M 35.203125 72.90625 
L 47.609375 72.90625 
L 47.609375 25.390625 
L 58.015625 25.390625 
L 58.015625 17.1875 
L 47.609375 17.1875 
L 47.609375 0 
L 37.796875 0 
L 37.796875 17.1875 
L 4.890625 17.1875 
L 4.890625 26.703125 
z
" id="DejaVuSans-52"/>
       </defs>
       <use xlink:href="#DejaVuSans-52"/>
       <use x="63.623047" xlink:href="#DejaVuSans-48"/>
       <use x="127.246094" xlink:href="#DejaVuSans-48"/>
      </g>
     </g>
    </g>
    <g id="xtick_4">
     <g id="line2d_4">
      <g>
       <use style="stroke:#000000;stroke-width:0.8;" x="224.944165" xlink:href="#m17819d95d5" y="224.64"/>
      </g>
     </g>
     <g id="text_4">
      <!-- 600 -->
      <g transform="translate(215.400415 239.238438)scale(0.1 -0.1)">
       <defs>
        <path d="M 33.015625 40.375 
Q 26.375 40.375 22.484375 35.828125 
Q 18.609375 31.296875 18.609375 23.390625 
Q 18.609375 15.53125 22.484375 10.953125 
Q 26.375 6.390625 33.015625 6.390625 
Q 39.65625 6.390625 43.53125 10.953125 
Q 47.40625 15.53125 47.40625 23.390625 
Q 47.40625 31.296875 43.53125 35.828125 
Q 39.65625 40.375 33.015625 40.375 
z
M 52.59375 71.296875 
L 52.59375 62.3125 
Q 48.875 64.0625 45.09375 64.984375 
Q 41.3125 65.921875 37.59375 65.921875 
Q 27.828125 65.921875 22.671875 59.328125 
Q 17.53125 52.734375 16.796875 39.40625 
Q 19.671875 43.65625 24.015625 45.921875 
Q 28.375 48.1875 33.59375 48.1875 
Q 44.578125 48.1875 50.953125 41.515625 
Q 57.328125 34.859375 57.328125 23.390625 
Q 57.328125 12.15625 50.6875 5.359375 
Q 44.046875 -1.421875 33.015625 -1.421875 
Q 20.359375 -1.421875 13.671875 8.265625 
Q 6.984375 17.96875 6.984375 36.375 
Q 6.984375 53.65625 15.1875 63.9375 
Q 23.390625 74.21875 37.203125 74.21875 
Q 40.921875 74.21875 44.703125 73.484375 
Q 48.484375 72.75 52.59375 71.296875 
z
" id="DejaVuSans-54"/>
       </defs>
       <use xlink:href="#DejaVuSans-54"/>
       <use x="63.623047" xlink:href="#DejaVuSans-48"/>
       <use x="127.246094" xlink:href="#DejaVuSans-48"/>
      </g>
     </g>
    </g>
    <g id="xtick_5">
     <g id="line2d_5">
      <g>
       <use style="stroke:#000000;stroke-width:0.8;" x="285.877826" xlink:href="#m17819d95d5" y="224.64"/>
      </g>
     </g>
     <g id="text_5">
      <!-- 800 -->
      <g transform="translate(276.334076 239.238438)scale(0.1 -0.1)">
       <defs>
        <path d="M 31.78125 34.625 
Q 24.75 34.625 20.71875 30.859375 
Q 16.703125 27.09375 16.703125 20.515625 
Q 16.703125 13.921875 20.71875 10.15625 
Q 24.75 6.390625 31.78125 6.390625 
Q 38.8125 6.390625 42.859375 10.171875 
Q 46.921875 13.96875 46.921875 20.515625 
Q 46.921875 27.09375 42.890625 30.859375 
Q 38.875 34.625 31.78125 34.625 
z
M 21.921875 38.8125 
Q 15.578125 40.375 12.03125 44.71875 
Q 8.5 49.078125 8.5 55.328125 
Q 8.5 64.0625 14.71875 69.140625 
Q 20.953125 74.21875 31.78125 74.21875 
Q 42.671875 74.21875 48.875 69.140625 
Q 55.078125 64.0625 55.078125 55.328125 
Q 55.078125 49.078125 51.53125 44.71875 
Q 48 40.375 41.703125 38.8125 
Q 48.828125 37.15625 52.796875 32.3125 
Q 56.78125 27.484375 56.78125 20.515625 
Q 56.78125 9.90625 50.3125 4.234375 
Q 43.84375 -1.421875 31.78125 -1.421875 
Q 19.734375 -1.421875 13.25 4.234375 
Q 6.78125 9.90625 6.78125 20.515625 
Q 6.78125 27.484375 10.78125 32.3125 
Q 14.796875 37.15625 21.921875 38.8125 
z
M 18.3125 54.390625 
Q 18.3125 48.734375 21.84375 45.5625 
Q 25.390625 42.390625 31.78125 42.390625 
Q 38.140625 42.390625 41.71875 45.5625 
Q 45.3125 48.734375 45.3125 54.390625 
Q 45.3125 60.0625 41.71875 63.234375 
Q 38.140625 66.40625 31.78125 66.40625 
Q 25.390625 66.40625 21.84375 63.234375 
Q 18.3125 60.0625 18.3125 54.390625 
z
" id="DejaVuSans-56"/>
       </defs>
       <use xlink:href="#DejaVuSans-56"/>
       <use x="63.623047" xlink:href="#DejaVuSans-48"/>
       <use x="127.246094" xlink:href="#DejaVuSans-48"/>
      </g>
     </g>
    </g>
    <g id="xtick_6">
     <g id="line2d_6">
      <g>
       <use style="stroke:#000000;stroke-width:0.8;" x="346.811486" xlink:href="#m17819d95d5" y="224.64"/>
      </g>
     </g>
     <g id="text_6">
      <!-- 1000 -->
      <g transform="translate(334.086486 239.238438)scale(0.1 -0.1)">
       <defs>
        <path d="M 12.40625 8.296875 
L 28.515625 8.296875 
L 28.515625 63.921875 
L 10.984375 60.40625 
L 10.984375 69.390625 
L 28.421875 72.90625 
L 38.28125 72.90625 
L 38.28125 8.296875 
L 54.390625 8.296875 
L 54.390625 0 
L 12.40625 0 
z
" id="DejaVuSans-49"/>
       </defs>
       <use xlink:href="#DejaVuSans-49"/>
       <use x="63.623047" xlink:href="#DejaVuSans-48"/>
       <use x="127.246094" xlink:href="#DejaVuSans-48"/>
       <use x="190.869141" xlink:href="#DejaVuSans-48"/>
      </g>
     </g>
    </g>
   </g>
   <g id="matplotlib.axis_2">
    <g id="ytick_1">
     <g id="line2d_7">
      <defs>
       <path d="M 0 0 
L -3.5 0 
" id="m1cd057acfe" style="stroke:#000000;stroke-width:0.8;"/>
      </defs>
      <g>
       <use style="stroke:#000000;stroke-width:0.8;" x="26.925" xlink:href="#m1cd057acfe" y="214.765645"/>
      </g>
     </g>
     <g id="text_7">
      <!-- 0 -->
      <g transform="translate(13.5625 218.564863)scale(0.1 -0.1)">
       <use xlink:href="#DejaVuSans-48"/>
      </g>
     </g>
    </g>
    <g id="ytick_2">
     <g id="line2d_8">
      <g>
       <use style="stroke:#000000;stroke-width:0.8;" x="26.925" xlink:href="#m1cd057acfe" y="185.778653"/>
      </g>
     </g>
     <g id="text_8">
      <!-- 10 -->
      <g transform="translate(7.2 189.577872)scale(0.1 -0.1)">
       <use xlink:href="#DejaVuSans-49"/>
       <use x="63.623047" xlink:href="#DejaVuSans-48"/>
      </g>
     </g>
    </g>
    <g id="ytick_3">
     <g id="line2d_9">
      <g>
       <use style="stroke:#000000;stroke-width:0.8;" x="26.925" xlink:href="#m1cd057acfe" y="156.791661"/>
      </g>
     </g>
     <g id="text_9">
      <!-- 20 -->
      <g transform="translate(7.2 160.59088)scale(0.1 -0.1)">
       <use xlink:href="#DejaVuSans-50"/>
       <use x="63.623047" xlink:href="#DejaVuSans-48"/>
      </g>
     </g>
    </g>
    <g id="ytick_4">
     <g id="line2d_10">
      <g>
       <use style="stroke:#000000;stroke-width:0.8;" x="26.925" xlink:href="#m1cd057acfe" y="127.804669"/>
      </g>
     </g>
     <g id="text_10">
      <!-- 30 -->
      <g transform="translate(7.2 131.603888)scale(0.1 -0.1)">
       <defs>
        <path d="M 40.578125 39.3125 
Q 47.65625 37.796875 51.625 33 
Q 55.609375 28.21875 55.609375 21.1875 
Q 55.609375 10.40625 48.1875 4.484375 
Q 40.765625 -1.421875 27.09375 -1.421875 
Q 22.515625 -1.421875 17.65625 -0.515625 
Q 12.796875 0.390625 7.625 2.203125 
L 7.625 11.71875 
Q 11.71875 9.328125 16.59375 8.109375 
Q 21.484375 6.890625 26.8125 6.890625 
Q 36.078125 6.890625 40.9375 10.546875 
Q 45.796875 14.203125 45.796875 21.1875 
Q 45.796875 27.640625 41.28125 31.265625 
Q 36.765625 34.90625 28.71875 34.90625 
L 20.21875 34.90625 
L 20.21875 43.015625 
L 29.109375 43.015625 
Q 36.375 43.015625 40.234375 45.921875 
Q 44.09375 48.828125 44.09375 54.296875 
Q 44.09375 59.90625 40.109375 62.90625 
Q 36.140625 65.921875 28.71875 65.921875 
Q 24.65625 65.921875 20.015625 65.03125 
Q 15.375 64.15625 9.8125 62.3125 
L 9.8125 71.09375 
Q 15.4375 72.65625 20.34375 73.4375 
Q 25.25 74.21875 29.59375 74.21875 
Q 40.828125 74.21875 47.359375 69.109375 
Q 53.90625 64.015625 53.90625 55.328125 
Q 53.90625 49.265625 50.4375 45.09375 
Q 46.96875 40.921875 40.578125 39.3125 
z
" id="DejaVuSans-51"/>
       </defs>
       <use xlink:href="#DejaVuSans-51"/>
       <use x="63.623047" xlink:href="#DejaVuSans-48"/>
      </g>
     </g>
    </g>
    <g id="ytick_5">
     <g id="line2d_11">
      <g>
       <use style="stroke:#000000;stroke-width:0.8;" x="26.925" xlink:href="#m1cd057acfe" y="98.817678"/>
      </g>
     </g>
     <g id="text_11">
      <!-- 40 -->
      <g transform="translate(7.2 102.616897)scale(0.1 -0.1)">
       <use xlink:href="#DejaVuSans-52"/>
       <use x="63.623047" xlink:href="#DejaVuSans-48"/>
      </g>
     </g>
    </g>
    <g id="ytick_6">
     <g id="line2d_12">
      <g>
       <use style="stroke:#000000;stroke-width:0.8;" x="26.925" xlink:href="#m1cd057acfe" y="69.830686"/>
      </g>
     </g>
     <g id="text_12">
      <!-- 50 -->
      <g transform="translate(7.2 73.629905)scale(0.1 -0.1)">
       <defs>
        <path d="M 10.796875 72.90625 
L 49.515625 72.90625 
L 49.515625 64.59375 
L 19.828125 64.59375 
L 19.828125 46.734375 
Q 21.96875 47.46875 24.109375 47.828125 
Q 26.265625 48.1875 28.421875 48.1875 
Q 40.625 48.1875 47.75 41.5 
Q 54.890625 34.8125 54.890625 23.390625 
Q 54.890625 11.625 47.5625 5.09375 
Q 40.234375 -1.421875 26.90625 -1.421875 
Q 22.3125 -1.421875 17.546875 -0.640625 
Q 12.796875 0.140625 7.71875 1.703125 
L 7.71875 11.625 
Q 12.109375 9.234375 16.796875 8.0625 
Q 21.484375 6.890625 26.703125 6.890625 
Q 35.15625 6.890625 40.078125 11.328125 
Q 45.015625 15.765625 45.015625 23.390625 
Q 45.015625 31 40.078125 35.4375 
Q 35.15625 39.890625 26.703125 39.890625 
Q 22.75 39.890625 18.8125 39.015625 
Q 14.890625 38.140625 10.796875 36.28125 
z
" id="DejaVuSans-53"/>
       </defs>
       <use xlink:href="#DejaVuSans-53"/>
       <use x="63.623047" xlink:href="#DejaVuSans-48"/>
      </g>
     </g>
    </g>
    <g id="ytick_7">
     <g id="line2d_13">
      <g>
       <use style="stroke:#000000;stroke-width:0.8;" x="26.925" xlink:href="#m1cd057acfe" y="40.843694"/>
      </g>
     </g>
     <g id="text_13">
      <!-- 60 -->
      <g transform="translate(7.2 44.642913)scale(0.1 -0.1)">
       <use xlink:href="#DejaVuSans-54"/>
       <use x="63.623047" xlink:href="#DejaVuSans-48"/>
      </g>
     </g>
    </g>
    <g id="ytick_8">
     <g id="line2d_14">
      <g>
       <use style="stroke:#000000;stroke-width:0.8;" x="26.925" xlink:href="#m1cd057acfe" y="11.856703"/>
      </g>
     </g>
     <g id="text_14">
      <!-- 70 -->
      <g transform="translate(7.2 15.655921)scale(0.1 -0.1)">
       <defs>
        <path d="M 8.203125 72.90625 
L 55.078125 72.90625 
L 55.078125 68.703125 
L 28.609375 0 
L 18.3125 0 
L 43.21875 64.59375 
L 8.203125 64.59375 
z
" id="DejaVuSans-55"/>
       </defs>
       <use xlink:href="#DejaVuSans-55"/>
       <use x="63.623047" xlink:href="#DejaVuSans-48"/>
      </g>
     </g>
    </g>
   </g>
   <g id="line2d_15">
    <path clip-path="url(#pc692db8607)" d="M 42.143182 147.08198 
L 42.44785 109.092776 
L 42.752518 17.083636 
L 43.057187 44.376396 
L 43.361855 133.054957 
L 43.666523 107.276743 
L 43.971192 136.590561 
L 44.27586 132.682364 
L 44.580528 145.431751 
L 44.885197 142.141793 
L 45.189865 155.012467 
L 45.494533 149.464635 
L 45.799201 126.293148 
L 46.10387 148.521748 
L 46.408538 148.103885 
L 46.713206 145.052424 
L 47.017875 52.021474 
L 47.322543 142.727954 
L 47.627211 122.573644 
L 47.93188 138.413543 
L 48.236548 139.721222 
L 48.541216 146.202111 
L 48.845885 57.256092 
L 49.150553 110.057977 
L 49.455221 69.960326 
L 49.759889 96.400495 
L 50.064558 86.301601 
L 50.369226 54.93729 
L 50.673894 57.963661 
L 50.978563 139.080314 
L 51.283231 44.849896 
L 51.587899 151.84829 
L 51.892568 126.942222 
L 52.197236 149.167532 
L 52.501904 125.743605 
L 52.806572 163.615664 
L 53.415909 110.849197 
L 53.720577 137.915932 
L 54.025246 130.272192 
L 54.329914 93.618477 
L 54.634582 105.330009 
L 54.939251 60.160685 
L 55.243919 170.320896 
L 55.853256 82.484442 
L 56.157924 150.734939 
L 56.462592 121.269095 
L 56.76726 160.861101 
L 57.071929 121.134291 
L 57.376597 109.113962 
L 57.681265 109.531102 
L 57.985934 144.669398 
L 58.290602 121.052697 
L 58.59527 144.612473 
L 58.899939 99.20683 
L 59.204607 132.925765 
L 59.509275 143.285366 
L 59.813943 135.881101 
L 60.118612 154.813938 
L 60.42328 107.624496 
L 61.032617 164.418914 
L 61.337285 104.628025 
L 61.641953 161.109384 
L 61.946622 118.842425 
L 62.25129 162.345288 
L 62.555958 91.548748 
L 62.860627 155.444761 
L 63.165295 110.462997 
L 63.469963 91.757086 
L 64.0793 169.064713 
L 64.383968 163.823913 
L 64.688636 144.688278 
L 64.993305 142.220159 
L 65.297973 149.323495 
L 65.602641 164.947078 
L 65.90731 174.680035 
L 66.211978 31.520241 
L 66.516646 160.919193 
L 66.821314 105.949957 
L 67.125983 139.797746 
L 67.430651 116.541138 
L 67.735319 150.717849 
L 68.039988 105.906821 
L 68.344656 123.175762 
L 68.649324 166.038425 
L 68.953993 162.303678 
L 69.258661 150.336863 
L 69.563329 82.738436 
L 69.867998 142.963953 
L 70.172666 155.704389 
L 70.477334 161.724422 
L 70.782002 150.714476 
L 71.086671 164.522071 
L 71.391339 138.410115 
L 71.696007 128.311818 
L 72.000676 104.964365 
L 72.305344 139.387341 
L 72.610012 158.812045 
L 72.914681 167.664708 
L 73.219349 150.129089 
L 73.524017 111.794638 
L 73.828686 166.18072 
L 74.133354 139.867576 
L 74.438022 154.070227 
L 74.74269 118.28063 
L 75.047359 172.736057 
L 75.352027 153.337386 
L 75.656695 151.078539 
L 75.961364 140.054373 
L 76.266032 162.673358 
L 76.5707 176.954958 
L 77.180037 118.826414 
L 77.789373 172.184225 
L 78.094042 168.708169 
L 78.39871 122.640394 
L 78.703378 105.605842 
L 79.008047 109.581823 
L 79.312715 168.083434 
L 79.617383 142.396888 
L 79.922052 127.810801 
L 80.22672 183.244246 
L 80.836057 134.55071 
L 81.140725 182.923767 
L 81.445393 159.717988 
L 81.750061 157.581261 
L 82.05473 157.101193 
L 82.359398 161.309489 
L 82.664066 186.717418 
L 82.968735 177.144746 
L 83.578071 186.398114 
L 83.88274 126.154115 
L 84.187408 169.750011 
L 84.492076 136.844992 
L 84.796744 181.305343 
L 85.101413 177.919056 
L 85.406081 188.605325 
L 85.710749 164.143285 
L 86.015418 163.105292 
L 86.320086 166.962513 
L 86.624754 177.072374 
L 86.929423 132.043264 
L 87.538759 189.075267 
L 87.843428 126.827919 
L 88.452764 154.437955 
L 88.757432 153.948267 
L 89.062101 174.621311 
L 89.366769 185.459197 
L 89.671437 179.16374 
L 89.976106 188.947305 
L 90.585442 149.071076 
L 90.890111 193.094439 
L 91.194779 178.720139 
L 91.499447 116.950283 
L 92.108784 192.599013 
L 92.413452 151.005735 
L 92.71812 194.923698 
L 93.022789 186.643669 
L 93.327457 190.27674 
L 93.632125 181.413045 
L 93.936794 191.672275 
L 94.241462 185.004503 
L 94.54613 169.922972 
L 94.850799 183.383951 
L 95.155467 165.934781 
L 95.460135 185.588486 
L 95.764803 194.688892 
L 96.069472 192.777134 
L 96.37414 167.070845 
L 96.678808 189.63805 
L 96.983477 165.816332 
L 97.288145 158.596188 
L 97.592813 167.351505 
L 97.897482 191.485622 
L 98.20215 186.732185 
L 98.506818 184.627056 
L 98.811486 157.561689 
L 99.116155 161.274011 
L 99.420823 156.560523 
L 100.03016 198.04396 
L 100.334828 171.760971 
L 100.639496 199.802106 
L 100.944165 186.140976 
L 101.248833 190.627912 
L 101.553501 202.653582 
L 101.85817 192.54562 
L 102.162838 171.946043 
L 102.467506 181.912074 
L 102.772174 181.660861 
L 103.076843 192.826248 
L 103.381511 188.09123 
L 103.686179 190.168242 
L 103.990848 178.251239 
L 104.295516 173.24738 
L 104.600184 190.61806 
L 105.209521 169.702958 
L 105.514189 202.500773 
L 105.818857 181.385414 
L 106.123526 190.136789 
L 106.428194 193.135075 
L 106.732862 159.342818 
L 107.037531 184.431238 
L 107.646867 204.503639 
L 107.951536 171.625116 
L 108.256204 191.940364 
L 108.560872 200.606304 
L 108.865541 191.026223 
L 109.170209 172.175495 
L 109.474877 183.732928 
L 109.779545 204.834088 
L 110.084214 207.21983 
L 110.388882 185.402408 
L 110.69355 181.995916 
L 111.302887 204.497292 
L 111.607555 195.021094 
L 111.912224 194.652194 
L 112.216892 206.767451 
L 112.52156 175.42705 
L 113.130897 198.046614 
L 113.435565 201.62349 
L 113.740233 197.309079 
L 114.044902 171.295684 
L 114.654238 202.474098 
L 114.958907 206.29828 
L 115.263575 181.815281 
L 115.568243 207.218615 
L 115.872912 178.169059 
L 116.17758 190.26281 
L 116.482248 211.901748 
L 116.786916 199.090837 
L 117.091585 193.309368 
L 117.396253 191.131224 
L 117.700921 197.068096 
L 118.00559 187.083963 
L 118.310258 182.213782 
L 118.614926 208.038356 
L 118.919595 202.026057 
L 119.224263 192.975061 
L 119.528931 199.945009 
L 119.8336 197.331602 
L 120.138268 200.118109 
L 120.442936 209.578547 
L 120.747604 189.059966 
L 121.052273 197.11977 
L 121.356941 194.914551 
L 121.661609 203.766021 
L 121.966278 183.777172 
L 122.270946 181.245712 
L 122.575614 190.758865 
L 122.880283 205.651129 
L 123.184951 208.733508 
L 123.489619 208.901823 
L 123.794287 201.57456 
L 124.098956 209.001633 
L 124.403624 205.265265 
L 125.012961 206.675783 
L 125.317629 202.518583 
L 125.622297 176.769203 
L 126.231634 209.561382 
L 126.840971 195.912845 
L 127.145639 213.361123 
L 127.450307 198.889213 
L 127.754975 198.7666 
L 128.059644 179.160127 
L 128.66898 212.882545 
L 128.973649 212.784388 
L 129.582985 198.74142 
L 129.887654 209.712378 
L 130.192322 212.54561 
L 130.49699 209.859256 
L 130.801658 211.554631 
L 131.106327 211.446542 
L 131.410995 212.73082 
L 131.715663 212.722774 
L 132.020332 195.656744 
L 132.325 210.658142 
L 132.629668 192.597697 
L 132.934337 212.153527 
L 133.239005 208.006707 
L 133.543673 202.177636 
L 133.848342 210.345312 
L 134.457678 188.131176 
L 134.762346 208.483823 
L 135.067015 202.598668 
L 135.371683 211.134455 
L 135.676351 195.664053 
L 135.98102 192.614862 
L 136.285688 183.994223 
L 136.590356 207.283444 
L 136.895025 212.199009 
L 137.504361 209.211759 
L 137.809029 184.504446 
L 138.113698 204.604885 
L 138.418366 196.689034 
L 138.723034 196.44254 
L 139.027703 209.890912 
L 139.332371 207.779629 
L 139.637039 212.07959 
L 139.941708 209.794013 
L 140.246376 210.830556 
L 140.551044 212.520263 
L 140.855713 202.097081 
L 141.160381 209.199929 
L 141.465049 206.057115 
L 141.769717 214.42162 
L 142.074386 212.923161 
L 142.379054 201.957993 
L 142.988391 213.6764 
L 143.293059 213.559425 
L 143.597727 212.030793 
L 143.902396 211.926364 
L 144.207064 213.764048 
L 144.511732 207.863903 
L 144.8164 205.809425 
L 145.121069 205.140487 
L 145.425737 211.204149 
L 145.730405 211.186302 
L 146.035074 205.306073 
L 146.339742 211.786749 
L 146.64441 211.463263 
L 146.949079 197.320606 
L 147.253747 206.191883 
L 147.863084 214.06469 
L 148.167752 197.620257 
L 148.47242 202.869713 
L 148.777088 202.019035 
L 149.081757 205.404145 
L 149.386425 214.53006 
L 149.691093 204.419539 
L 149.995762 213.971032 
L 150.605098 199.796505 
L 150.909767 213.806987 
L 151.214435 213.827155 
L 151.519103 214.045238 
L 151.823771 213.277738 
L 152.12844 211.414159 
L 152.433108 213.785801 
L 152.737776 212.774668 
L 153.042445 205.495417 
L 153.347113 210.230988 
L 153.651781 212.646083 
L 153.95645 204.810747 
L 154.261118 213.499499 
L 154.565786 205.138959 
L 154.870455 213.363846 
L 155.175123 213.448705 
L 155.479791 212.092345 
L 155.784459 213.613088 
L 156.089128 213.229384 
L 156.393796 209.398038 
L 156.698464 210.576722 
L 157.003133 212.758917 
L 157.307801 209.587567 
L 157.612469 213.918088 
L 158.221806 200.155051 
L 158.526474 211.818714 
L 158.831143 213.120534 
L 159.135811 213.132031 
L 159.440479 210.956987 
L 159.745147 191.724836 
L 160.049816 214.000243 
L 160.354484 209.872065 
L 160.659152 212.007265 
L 160.963821 207.151994 
L 161.268489 209.220141 
L 161.573157 213.288536 
L 161.877826 208.079795 
L 162.182494 214.239455 
L 162.487162 211.714992 
L 162.79183 212.678688 
L 163.096499 200.102693 
L 163.401167 214.664362 
L 163.705835 204.206173 
L 164.010504 198.237794 
L 164.315172 212.735043 
L 164.61984 207.980408 
L 164.924509 214.281754 
L 165.229177 206.226573 
L 165.533845 214.314845 
L 165.838514 212.493089 
L 166.143182 199.914711 
L 166.44785 212.670745 
L 166.752518 209.199629 
L 167.057187 209.799577 
L 167.361855 213.937855 
L 167.666523 211.960716 
L 167.971192 203.821251 
L 168.27586 212.591669 
L 168.580528 208.381917 
L 168.885197 206.765648 
L 169.189865 213.496011 
L 169.494533 213.442389 
L 169.799201 213.664838 
L 170.408538 209.839098 
L 170.713206 213.768723 
L 171.017875 210.454896 
L 171.322543 214.120471 
L 171.627211 213.899598 
L 171.93188 213.494266 
L 172.236548 212.685845 
L 172.541216 209.383776 
L 172.845885 213.732119 
L 173.150553 213.998612 
L 173.455221 212.737428 
L 173.759889 213.798385 
L 174.064558 211.475338 
L 174.369226 212.235222 
L 174.673894 207.429323 
L 174.978563 212.390074 
L 175.283231 210.337911 
L 175.587899 211.658955 
L 175.892568 214.407981 
L 176.197236 205.445726 
L 176.806572 213.52507 
L 177.111241 213.312208 
L 177.415909 209.726369 
L 177.720577 211.078233 
L 178.025246 211.504286 
L 178.329914 211.278518 
L 178.634582 208.444393 
L 178.939251 200.916812 
L 179.243919 209.939882 
L 179.548587 213.240561 
L 179.853256 212.697292 
L 180.157924 203.052458 
L 180.462592 212.748651 
L 181.071929 210.358361 
L 181.376597 204.694326 
L 181.681265 213.504967 
L 181.985934 212.423779 
L 182.290602 211.834043 
L 182.59527 212.738939 
L 182.899939 208.185999 
L 183.204607 206.030582 
L 183.509275 207.432185 
L 183.813943 212.206898 
L 184.118612 214.543068 
L 184.727948 208.933056 
L 185.032617 214.329067 
L 185.337285 210.325299 
L 185.641953 210.467975 
L 185.946622 209.691869 
L 186.25129 212.206191 
L 186.555958 203.916173 
L 186.860627 209.687087 
L 187.165295 210.497605 
L 187.469963 214.003984 
L 187.774631 207.845626 
L 188.0793 210.543274 
L 188.383968 204.659045 
L 188.688636 206.605774 
L 188.993305 213.095875 
L 189.297973 213.984348 
L 189.602641 211.873023 
L 189.90731 212.653207 
L 190.211978 213.939566 
L 190.516646 211.902121 
L 190.821314 207.010294 
L 191.125983 212.975177 
L 191.430651 209.831057 
L 191.735319 208.307892 
L 192.039988 212.80544 
L 192.344656 212.478798 
L 192.649324 212.958896 
L 192.953993 207.950419 
L 193.258661 212.322719 
L 193.563329 207.95364 
L 193.867998 208.40306 
L 194.782002 214.52322 
L 195.086671 212.909039 
L 195.391339 209.527368 
L 195.696007 208.005872 
L 196.000676 213.449299 
L 196.305344 200.299899 
L 196.610012 213.951722 
L 196.914681 213.915984 
L 197.219349 207.55141 
L 197.524017 213.032122 
L 197.828686 212.737608 
L 198.133354 210.27816 
L 198.438022 212.546644 
L 198.74269 213.326746 
L 199.047359 212.844104 
L 199.352027 212.031406 
L 199.656695 210.108167 
L 199.961364 211.983959 
L 200.266032 210.647788 
L 200.5707 213.765937 
L 200.875369 213.198794 
L 201.180037 213.773595 
L 201.789373 212.510593 
L 202.094042 214.375102 
L 202.39871 212.943562 
L 202.703378 202.880218 
L 203.312715 214.155524 
L 203.617383 210.688658 
L 203.922052 212.223796 
L 204.22672 207.249512 
L 204.531388 209.642994 
L 204.836057 213.66679 
L 205.140725 211.96541 
L 205.445393 212.051485 
L 205.750061 212.407441 
L 206.05473 208.847864 
L 206.664066 214.065604 
L 206.968735 214.400534 
L 207.578071 210.370951 
L 207.88274 210.548956 
L 208.187408 209.188168 
L 208.492076 212.897711 
L 208.796744 212.616161 
L 209.101413 213.473775 
L 209.406081 212.790789 
L 209.710749 213.460814 
L 210.015418 205.4801 
L 210.320086 213.834037 
L 210.624754 204.988427 
L 210.929423 210.373267 
L 211.234091 213.566871 
L 211.538759 201.596699 
L 211.843428 205.718898 
L 212.148096 212.297413 
L 212.452764 213.897288 
L 212.757432 208.782865 
L 213.062101 213.387966 
L 213.366769 214.122556 
L 213.671437 206.053905 
L 213.976106 205.760179 
L 214.280774 209.874731 
L 214.585442 208.915723 
L 214.890111 214.009245 
L 215.194779 206.47734 
L 215.499447 213.62612 
L 215.804115 210.8346 
L 216.108784 212.908214 
L 216.413452 213.751482 
L 216.71812 210.310881 
L 217.022789 210.292937 
L 217.327457 208.662718 
L 217.632125 201.77972 
L 217.936794 203.344973 
L 218.241462 213.156017 
L 218.54613 212.084268 
L 218.850799 211.440702 
L 219.155467 213.757414 
L 219.460135 214.015148 
L 219.764803 213.102019 
L 220.069472 210.440359 
L 220.37414 212.794911 
L 220.678808 213.121305 
L 220.983477 211.939454 
L 221.288145 212.369469 
L 221.592813 209.585368 
L 221.897482 214.036766 
L 222.20215 212.739273 
L 222.506818 213.762971 
L 222.811486 212.263125 
L 223.116155 213.575645 
L 223.420823 213.100067 
L 223.725491 206.042289 
L 224.03016 208.09953 
L 224.334828 214.432557 
L 224.944165 211.907579 
L 225.248833 213.323955 
L 225.553501 212.271551 
L 225.85817 213.256678 
L 226.162838 209.987615 
L 226.467506 210.638201 
L 226.772174 201.939982 
L 227.076843 213.347903 
L 227.381511 214.267315 
L 227.686179 207.223596 
L 227.990848 213.275914 
L 228.295516 209.27381 
L 228.600184 201.946137 
L 228.904853 210.334857 
L 229.209521 214.095924 
L 229.818857 210.811459 
L 230.123526 212.125103 
L 230.428194 208.902806 
L 230.732862 214.5504 
L 231.037531 211.96903 
L 231.342199 214.232941 
L 231.951536 208.612747 
L 232.256204 211.428865 
L 232.560872 211.961658 
L 232.865541 210.957935 
L 233.170209 209.561376 
L 233.474877 212.98987 
L 233.779545 211.656507 
L 234.084214 213.731782 
L 234.388882 208.945418 
L 234.69355 208.880379 
L 234.998219 208.001143 
L 235.302887 213.941042 
L 235.607555 214.269675 
L 235.912224 212.398898 
L 236.216892 212.656135 
L 236.826229 214.007715 
L 237.130897 214.441266 
L 237.435565 212.172043 
L 237.740233 213.684719 
L 238.044902 211.764134 
L 238.34957 213.926947 
L 238.654238 207.823408 
L 238.958907 209.555777 
L 239.263575 210.118006 
L 239.568243 213.017618 
L 239.872912 214.102845 
L 240.17758 209.66771 
L 240.482248 214.212047 
L 240.786916 202.927332 
L 241.091585 212.437499 
L 241.396253 211.95385 
L 241.700921 209.50557 
L 242.00559 214.229499 
L 242.310258 213.38345 
L 242.614926 214.231312 
L 242.919595 214.452526 
L 243.224263 209.506318 
L 243.528931 213.093476 
L 243.8336 212.303235 
L 244.138268 213.864197 
L 244.442936 210.65993 
L 244.747604 211.138064 
L 245.052273 214.206165 
L 245.661609 212.275026 
L 245.966278 199.01195 
L 246.270946 212.80341 
L 246.575614 212.64111 
L 246.880283 213.008521 
L 247.184951 214.270157 
L 247.489619 200.27591 
L 247.794287 213.325316 
L 248.098956 210.272829 
L 248.403624 213.465234 
L 248.708292 212.647708 
L 249.012961 212.992773 
L 249.317629 199.078111 
L 249.622297 201.942909 
L 249.926966 213.020218 
L 250.231634 211.910556 
L 250.536302 211.485982 
L 250.840971 214.27489 
L 251.145639 206.085885 
L 251.450307 213.465566 
L 251.754975 213.791449 
L 252.059644 207.466044 
L 252.364312 212.643965 
L 252.66898 201.956558 
L 252.973649 212.55885 
L 253.278317 214.547044 
L 253.582985 212.582994 
L 253.887654 212.736084 
L 254.192322 213.268146 
L 254.49699 210.976848 
L 254.801658 213.418475 
L 255.106327 202.348884 
L 255.410995 209.312476 
L 255.715663 213.554272 
L 256.020332 211.945755 
L 256.325 210.970397 
L 256.629668 213.026531 
L 256.934337 209.498203 
L 257.239005 203.311116 
L 257.543673 213.687045 
L 257.848342 213.010916 
L 258.15301 206.629098 
L 258.457678 209.141562 
L 258.762346 207.606098 
L 259.067015 213.502141 
L 259.371683 203.034347 
L 259.676351 212.830402 
L 259.98102 212.791422 
L 260.285688 214.221993 
L 260.590356 211.951851 
L 260.895025 212.579088 
L 261.199693 207.753331 
L 261.504361 212.134329 
L 261.809029 212.875659 
L 262.113698 213.284034 
L 262.418366 214.70053 
L 262.723034 209.696185 
L 263.027703 213.53033 
L 263.332371 212.262081 
L 263.637039 213.990807 
L 263.941708 208.887908 
L 264.246376 208.651301 
L 264.551044 213.042667 
L 264.855713 212.832306 
L 265.160381 213.218635 
L 265.465049 209.015577 
L 265.769717 207.739163 
L 266.074386 212.710014 
L 266.379054 211.311802 
L 266.683722 210.845962 
L 266.988391 212.484149 
L 267.293059 212.87538 
L 267.597727 211.007802 
L 267.902396 214.163243 
L 268.207064 212.45552 
L 268.511732 213.615234 
L 268.8164 213.108265 
L 269.121069 213.021562 
L 269.425737 210.991507 
L 269.730405 214.573471 
L 270.035074 214.433733 
L 270.339742 205.624209 
L 270.64441 209.628838 
L 271.253747 213.454646 
L 271.558415 210.799043 
L 271.863084 211.946084 
L 272.47242 209.299227 
L 273.081757 214.250462 
L 273.386425 211.566556 
L 273.691093 212.747407 
L 273.995762 211.611606 
L 274.30043 211.576179 
L 274.605098 210.734018 
L 274.909767 208.02928 
L 275.214435 212.557774 
L 275.519103 213.285093 
L 275.823771 212.14618 
L 276.12844 207.700671 
L 276.433108 214.609771 
L 276.737776 208.703025 
L 277.347113 212.689467 
L 277.651781 212.1218 
L 277.95645 212.124609 
L 278.261118 213.148636 
L 278.565786 200.207927 
L 278.870455 202.883621 
L 279.175123 212.436666 
L 279.479791 212.938138 
L 279.784459 211.685435 
L 280.089128 214.361999 
L 280.393796 207.148468 
L 280.698464 212.387905 
L 281.003133 210.113481 
L 281.307801 198.886242 
L 281.612469 211.181208 
L 281.917138 213.042186 
L 282.221806 210.270988 
L 282.526474 212.357556 
L 282.831143 211.758205 
L 283.135811 214.485254 
L 283.440479 214.154916 
L 283.745147 211.61703 
L 284.049816 210.072301 
L 284.354484 211.326191 
L 284.659152 211.696621 
L 284.963821 213.257564 
L 285.268489 204.025666 
L 285.573157 211.417565 
L 285.877826 213.455614 
L 286.182494 207.657193 
L 286.487162 212.2331 
L 286.79183 213.521385 
L 287.096499 206.114504 
L 287.401167 214.575242 
L 287.705835 210.831602 
L 288.010504 211.638069 
L 288.315172 213.394517 
L 288.61984 210.227128 
L 288.924509 210.333827 
L 289.229177 210.011996 
L 289.533845 212.056474 
L 289.838514 207.116165 
L 290.143182 213.073184 
L 290.44785 212.638114 
L 290.752518 213.732623 
L 291.057187 213.409609 
L 291.361855 212.795032 
L 291.666523 197.49336 
L 291.971192 206.994072 
L 292.27586 213.021649 
L 292.580528 202.432452 
L 292.885197 214.246752 
L 293.189865 211.023918 
L 293.494533 213.373996 
L 293.799201 213.395695 
L 294.10387 212.594606 
L 294.408538 210.484878 
L 294.713206 214.060486 
L 295.017875 213.055291 
L 295.322543 211.325878 
L 295.627211 211.962161 
L 295.93188 211.779294 
L 296.236548 212.030465 
L 296.541216 214.127373 
L 296.845885 213.753313 
L 297.150553 212.891232 
L 297.455221 212.941225 
L 297.759889 213.127085 
L 298.064558 214.103287 
L 298.369226 213.738346 
L 298.673894 212.990788 
L 298.978563 211.457294 
L 299.283231 206.818623 
L 299.587899 213.825677 
L 299.892568 214.1981 
L 300.197236 214.079427 
L 300.501904 213.596465 
L 300.806572 212.171697 
L 301.111241 207.15412 
L 301.415909 213.075188 
L 301.720577 210.313806 
L 302.025246 212.12108 
L 302.329914 212.250472 
L 302.634582 207.230302 
L 302.939251 214.695011 
L 303.243919 211.450855 
L 303.548587 210.884521 
L 303.853256 213.731077 
L 304.462592 201.747864 
L 304.76726 210.637643 
L 305.071929 209.934455 
L 305.376597 202.002889 
L 305.681265 212.637755 
L 305.985934 213.386908 
L 306.290602 210.088155 
L 306.59527 201.753738 
L 306.899939 213.152641 
L 307.204607 212.407615 
L 307.509275 212.208644 
L 307.813943 214.520214 
L 308.42328 211.110267 
L 308.727948 212.680494 
L 309.032617 212.890316 
L 309.337285 207.965665 
L 309.641953 212.750058 
L 309.946622 211.035455 
L 310.25129 202.22462 
L 310.555958 212.652362 
L 310.860627 214.723867 
L 311.165295 201.784322 
L 311.469963 208.990373 
L 312.0793 212.557776 
L 312.993305 208.04252 
L 313.297973 211.609393 
L 313.602641 210.444727 
L 313.90731 200.884147 
L 314.211978 211.657163 
L 314.516646 212.786779 
L 314.821314 210.049762 
L 315.125983 211.956066 
L 315.735319 213.077054 
L 316.039988 211.563624 
L 316.344656 212.281703 
L 316.649324 214.072596 
L 316.953993 212.462829 
L 317.258661 212.218837 
L 317.563329 213.975658 
L 317.867998 208.16102 
L 318.172666 213.188426 
L 318.477334 214.265798 
L 318.782002 208.497163 
L 319.086671 207.67324 
L 319.391339 212.552901 
L 319.696007 211.542654 
L 320.000676 211.231735 
L 320.305344 211.910961 
L 320.610012 214.568493 
L 320.914681 211.977472 
L 321.828686 214.19275 
L 322.133354 212.010787 
L 322.438022 214.170698 
L 322.74269 214.621212 
L 323.047359 212.640228 
L 323.352027 198.963591 
L 323.656695 214.384007 
L 323.961364 209.164686 
L 324.5707 213.784937 
L 324.875369 213.25595 
L 325.180037 209.065127 
L 325.484705 191.740186 
L 325.789373 212.497639 
L 326.39871 210.148942 
L 326.703378 212.850381 
L 327.008047 214.377819 
L 327.312715 211.903475 
L 327.617383 202.809435 
L 327.922052 212.282475 
L 328.22672 212.797812 
L 328.531388 212.723838 
L 329.140725 214.746476 
L 329.445393 214.324383 
L 329.750061 211.538906 
L 330.05473 212.542371 
L 330.359398 212.558579 
L 330.968735 209.734766 
L 331.273403 206.207694 
L 331.578071 212.08187 
L 331.88274 214.062426 
L 332.187408 213.249323 
L 332.492076 202.909796 
L 332.796744 205.260237 
L 333.101413 214.113094 
L 333.406081 214.345078 
L 333.710749 209.033608 
L 334.015418 214.18148 
L 334.320086 213.726438 
L 334.624754 210.749774 
L 334.929423 214.565144 
L 335.538759 207.35352 
L 335.843428 208.834552 
L 336.148096 212.022443 
L 336.452764 212.413598 
L 336.757432 212.385332 
L 337.062101 213.406747 
L 337.366769 213.287628 
L 337.671437 213.724864 
L 337.976106 214.756364 
L 338.280774 206.285021 
L 338.585442 212.167516 
L 338.890111 213.060482 
L 339.194779 212.205672 
L 339.499447 209.463137 
L 340.108784 213.601188 
L 341.022789 211.33481 
L 341.327457 214.196984 
L 341.632125 214.446219 
L 341.936794 210.89918 
L 342.241462 213.385735 
L 342.54613 210.661486 
L 342.850799 213.935152 
L 343.155467 206.308982 
L 343.460135 213.74724 
L 343.764803 212.795467 
L 344.069472 212.854268 
L 344.37414 213.574257 
L 344.983477 213.077908 
L 345.592813 210.816158 
L 345.897482 210.895561 
L 346.20215 213.256485 
L 346.506818 213.232847 
L 346.506818 213.232847 
" style="fill:none;stroke:#1f77b4;stroke-linecap:square;stroke-width:1.5;"/>
   </g>
   <g id="patch_3">
    <path d="M 26.925 224.64 
L 26.925 7.2 
" style="fill:none;stroke:#000000;stroke-linecap:square;stroke-linejoin:miter;stroke-width:0.8;"/>
   </g>
   <g id="patch_4">
    <path d="M 361.725 224.64 
L 361.725 7.2 
" style="fill:none;stroke:#000000;stroke-linecap:square;stroke-linejoin:miter;stroke-width:0.8;"/>
   </g>
   <g id="patch_5">
    <path d="M 26.925 224.64 
L 361.725 224.64 
" style="fill:none;stroke:#000000;stroke-linecap:square;stroke-linejoin:miter;stroke-width:0.8;"/>
   </g>
   <g id="patch_6">
    <path d="M 26.925 7.2 
L 361.725 7.2 
" style="fill:none;stroke:#000000;stroke-linecap:square;stroke-linejoin:miter;stroke-width:0.8;"/>
   </g>
  </g>
 </g>
 <defs>
  <clipPath id="pc692db8607">
   <rect height="217.44" width="334.8" x="26.925" y="7.2"/>
  </clipPath>
 </defs>
</svg>
