<?xml version="1.0" encoding="utf-8" standalone="no"?>
<!DOCTYPE svg PUBLIC "-//W3C//DTD SVG 1.1//EN"
  "http://www.w3.org/Graphics/SVG/1.1/DTD/svg11.dtd">
<!-- Created with matplotlib (https://matplotlib.org/) -->
<svg height="248.518125pt" version="1.1" viewBox="0 0 370.942187 248.518125" width="370.942187pt" xmlns="http://www.w3.org/2000/svg" xmlns:xlink="http://www.w3.org/1999/xlink">
 <metadata>
  <rdf:RDF xmlns:cc="http://creativecommons.org/ns#" xmlns:dc="http://purl.org/dc/elements/1.1/" xmlns:rdf="http://www.w3.org/1999/02/22-rdf-syntax-ns#">
   <cc:Work>
    <dc:type rdf:resource="http://purl.org/dc/dcmitype/StillImage"/>
    <dc:date>2020-10-16T22:00:05.894846</dc:date>
    <dc:format>image/svg+xml</dc:format>
    <dc:creator>
     <cc:Agent>
      <dc:title>Matplotlib v3.3.2, https://matplotlib.org/</dc:title>
     </cc:Agent>
    </dc:creator>
   </cc:Work>
  </rdf:RDF>
 </metadata>
 <defs>
  <style type="text/css">*{stroke-linecap:butt;stroke-linejoin:round;}</style>
 </defs>
 <g id="figure_1">
  <g id="patch_1">
   <path d="M 0 248.518125 
L 370.942187 248.518125 
L 370.942187 0 
L 0 0 
z
" style="fill:none;"/>
  </g>
  <g id="axes_1">
   <g id="patch_2">
    <path d="M 28.942188 224.64 
L 363.742188 224.64 
L 363.742188 7.2 
L 28.942188 7.2 
z
" style="fill:#ffffff;"/>
   </g>
   <g id="patch_3">
    <path clip-path="url(#p9bdd4deb7e)" d="M 44.160369 134.643215 
L 47.137031 134.643215 
L 47.137031 183.728897 
L 44.160369 183.728897 
z
" style="fill:#1f77b4;"/>
   </g>
   <g id="patch_4">
    <path clip-path="url(#p9bdd4deb7e)" d="M 47.881196 134.643215 
L 50.857858 134.643215 
L 50.857858 42.660758 
L 47.881196 42.660758 
z
" style="fill:#1f77b4;"/>
   </g>
   <g id="patch_5">
    <path clip-path="url(#p9bdd4deb7e)" d="M 51.602023 134.643215 
L 54.578684 134.643215 
L 54.578684 167.618787 
L 51.602023 167.618787 
z
" style="fill:#1f77b4;"/>
   </g>
   <g id="patch_6">
    <path clip-path="url(#p9bdd4deb7e)" d="M 55.32285 134.643215 
L 58.299511 134.643215 
L 58.299511 94.953204 
L 55.32285 94.953204 
z
" style="fill:#1f77b4;"/>
   </g>
   <g id="patch_7">
    <path clip-path="url(#p9bdd4deb7e)" d="M 59.043677 134.643215 
L 62.020338 134.643215 
L 62.020338 100.922711 
L 59.043677 100.922711 
z
" style="fill:#1f77b4;"/>
   </g>
   <g id="patch_8">
    <path clip-path="url(#p9bdd4deb7e)" d="M 62.764504 134.643215 
L 65.741165 134.643215 
L 65.741165 75.469511 
L 62.764504 75.469511 
z
" style="fill:#1f77b4;"/>
   </g>
   <g id="patch_9">
    <path clip-path="url(#p9bdd4deb7e)" d="M 66.48533 134.643215 
L 69.461992 134.643215 
L 69.461992 198.904584 
L 66.48533 198.904584 
z
" style="fill:#1f77b4;"/>
   </g>
   <g id="patch_10">
    <path clip-path="url(#p9bdd4deb7e)" d="M 70.206157 134.643215 
L 73.182819 134.643215 
L 73.182819 157.251863 
L 70.206157 157.251863 
z
" style="fill:#1f77b4;"/>
   </g>
   <g id="patch_11">
    <path clip-path="url(#p9bdd4deb7e)" d="M 73.926984 134.643215 
L 76.903646 134.643215 
L 76.903646 179.581124 
L 73.926984 179.581124 
z
" style="fill:#1f77b4;"/>
   </g>
   <g id="patch_12">
    <path clip-path="url(#p9bdd4deb7e)" d="M 77.647811 134.643215 
L 80.624472 134.643215 
L 80.624472 160.920904 
L 77.647811 160.920904 
z
" style="fill:#1f77b4;"/>
   </g>
   <g id="patch_13">
    <path clip-path="url(#p9bdd4deb7e)" d="M 81.368638 134.643215 
L 84.345299 134.643215 
L 84.345299 125.928221 
L 81.368638 125.928221 
z
" style="fill:#1f77b4;"/>
   </g>
   <g id="patch_14">
    <path clip-path="url(#p9bdd4deb7e)" d="M 85.089465 134.643215 
L 88.066126 134.643215 
L 88.066126 107.940993 
L 85.089465 107.940993 
z
" style="fill:#1f77b4;"/>
   </g>
   <g id="patch_15">
    <path clip-path="url(#p9bdd4deb7e)" d="M 88.810292 134.643215 
L 91.786953 134.643215 
L 91.786953 129.594911 
L 88.810292 129.594911 
z
" style="fill:#1f77b4;"/>
   </g>
   <g id="patch_16">
    <path clip-path="url(#p9bdd4deb7e)" d="M 92.531118 134.643215 
L 95.50778 134.643215 
L 95.50778 173.794974 
L 92.531118 173.794974 
z
" style="fill:#1f77b4;"/>
   </g>
   <g id="patch_17">
    <path clip-path="url(#p9bdd4deb7e)" d="M 96.251945 134.643215 
L 99.228607 134.643215 
L 99.228607 197.891218 
L 96.251945 197.891218 
z
" style="fill:#1f77b4;"/>
   </g>
   <g id="patch_18">
    <path clip-path="url(#p9bdd4deb7e)" d="M 99.972772 134.643215 
L 102.949434 134.643215 
L 102.949434 121.382441 
L 99.972772 121.382441 
z
" style="fill:#1f77b4;"/>
   </g>
   <g id="patch_19">
    <path clip-path="url(#p9bdd4deb7e)" d="M 103.693599 134.643215 
L 106.67026 134.643215 
L 106.67026 176.834236 
L 103.693599 176.834236 
z
" style="fill:#1f77b4;"/>
   </g>
   <g id="patch_20">
    <path clip-path="url(#p9bdd4deb7e)" d="M 107.414426 134.643215 
L 110.391087 134.643215 
L 110.391087 69.286722 
L 107.414426 69.286722 
z
" style="fill:#1f77b4;"/>
   </g>
   <g id="patch_21">
    <path clip-path="url(#p9bdd4deb7e)" d="M 111.135253 134.643215 
L 114.111914 134.643215 
L 114.111914 145.526683 
L 111.135253 145.526683 
z
" style="fill:#1f77b4;"/>
   </g>
   <g id="patch_22">
    <path clip-path="url(#p9bdd4deb7e)" d="M 114.856079 134.643215 
L 117.832741 134.643215 
L 117.832741 75.879089 
L 114.856079 75.879089 
z
" style="fill:#1f77b4;"/>
   </g>
   <g id="patch_23">
    <path clip-path="url(#p9bdd4deb7e)" d="M 118.576906 134.643215 
L 121.553568 134.643215 
L 121.553568 209.731167 
L 118.576906 209.731167 
z
" style="fill:#1f77b4;"/>
   </g>
   <g id="patch_24">
    <path clip-path="url(#p9bdd4deb7e)" d="M 122.297733 134.643215 
L 125.274395 134.643215 
L 125.274395 119.453457 
L 122.297733 119.453457 
z
" style="fill:#1f77b4;"/>
   </g>
   <g id="patch_25">
    <path clip-path="url(#p9bdd4deb7e)" d="M 126.01856 134.643215 
L 128.995222 134.643215 
L 128.995222 163.559858 
L 126.01856 163.559858 
z
" style="fill:#1f77b4;"/>
   </g>
   <g id="patch_26">
    <path clip-path="url(#p9bdd4deb7e)" d="M 129.739387 134.643215 
L 132.716048 134.643215 
L 132.716048 17.083636 
L 129.739387 17.083636 
z
" style="fill:#1f77b4;"/>
   </g>
   <g id="patch_27">
    <path clip-path="url(#p9bdd4deb7e)" d="M 133.460214 134.643215 
L 136.436875 134.643215 
L 136.436875 127.089599 
L 133.460214 127.089599 
z
" style="fill:#1f77b4;"/>
   </g>
   <g id="patch_28">
    <path clip-path="url(#p9bdd4deb7e)" d="M 137.181041 134.643215 
L 140.157702 134.643215 
L 140.157702 152.027605 
L 137.181041 152.027605 
z
" style="fill:#1f77b4;"/>
   </g>
   <g id="patch_29">
    <path clip-path="url(#p9bdd4deb7e)" d="M 140.901867 134.643215 
L 143.878529 134.643215 
L 143.878529 118.617714 
L 140.901867 118.617714 
z
" style="fill:#1f77b4;"/>
   </g>
   <g id="patch_30">
    <path clip-path="url(#p9bdd4deb7e)" d="M 144.622694 134.643215 
L 147.599356 134.643215 
L 147.599356 93.280167 
L 144.622694 93.280167 
z
" style="fill:#1f77b4;"/>
   </g>
   <g id="patch_31">
    <path clip-path="url(#p9bdd4deb7e)" d="M 148.343521 134.643215 
L 151.320183 134.643215 
L 151.320183 161.806446 
L 148.343521 161.806446 
z
" style="fill:#1f77b4;"/>
   </g>
   <g id="patch_32">
    <path clip-path="url(#p9bdd4deb7e)" d="M 152.064348 134.643215 
L 155.041009 134.643215 
L 155.041009 82.870046 
L 152.064348 82.870046 
z
" style="fill:#1f77b4;"/>
   </g>
   <g id="patch_33">
    <path clip-path="url(#p9bdd4deb7e)" d="M 155.785175 134.643215 
L 158.761836 134.643215 
L 158.761836 118.859806 
L 155.785175 118.859806 
z
" style="fill:#1f77b4;"/>
   </g>
   <g id="patch_34">
    <path clip-path="url(#p9bdd4deb7e)" d="M 159.506002 134.643215 
L 162.482663 134.643215 
L 162.482663 172.755568 
L 159.506002 172.755568 
z
" style="fill:#1f77b4;"/>
   </g>
   <g id="patch_35">
    <path clip-path="url(#p9bdd4deb7e)" d="M 163.226829 134.643215 
L 166.20349 134.643215 
L 166.20349 114.522874 
L 163.226829 114.522874 
z
" style="fill:#1f77b4;"/>
   </g>
   <g id="patch_36">
    <path clip-path="url(#p9bdd4deb7e)" d="M 166.947655 134.643215 
L 169.924317 134.643215 
L 169.924317 158.760965 
L 166.947655 158.760965 
z
" style="fill:#1f77b4;"/>
   </g>
   <g id="patch_37">
    <path clip-path="url(#p9bdd4deb7e)" d="M 170.668482 134.643215 
L 173.645144 134.643215 
L 173.645144 130.167489 
L 170.668482 130.167489 
z
" style="fill:#1f77b4;"/>
   </g>
   <g id="patch_38">
    <path clip-path="url(#p9bdd4deb7e)" d="M 174.389309 134.643215 
L 177.365971 134.643215 
L 177.365971 171.911239 
L 174.389309 171.911239 
z
" style="fill:#1f77b4;"/>
   </g>
   <g id="patch_39">
    <path clip-path="url(#p9bdd4deb7e)" d="M 178.110136 134.643215 
L 181.086797 134.643215 
L 181.086797 112.350298 
L 178.110136 112.350298 
z
" style="fill:#1f77b4;"/>
   </g>
   <g id="patch_40">
    <path clip-path="url(#p9bdd4deb7e)" d="M 181.830963 134.643215 
L 184.807624 134.643215 
L 184.807624 184.515925 
L 181.830963 184.515925 
z
" style="fill:#1f77b4;"/>
   </g>
   <g id="patch_41">
    <path clip-path="url(#p9bdd4deb7e)" d="M 185.55179 134.643215 
L 188.528451 134.643215 
L 188.528451 88.17788 
L 185.55179 88.17788 
z
" style="fill:#1f77b4;"/>
   </g>
   <g id="patch_42">
    <path clip-path="url(#p9bdd4deb7e)" d="M 189.272616 134.643215 
L 192.249278 134.643215 
L 192.249278 193.617439 
L 189.272616 193.617439 
z
" style="fill:#1f77b4;"/>
   </g>
   <g id="patch_43">
    <path clip-path="url(#p9bdd4deb7e)" d="M 192.993443 134.643215 
L 195.970105 134.643215 
L 195.970105 135.515503 
L 192.993443 135.515503 
z
" style="fill:#1f77b4;"/>
   </g>
   <g id="patch_44">
    <path clip-path="url(#p9bdd4deb7e)" d="M 196.71427 134.643215 
L 199.690932 134.643215 
L 199.690932 143.171984 
L 196.71427 143.171984 
z
" style="fill:#1f77b4;"/>
   </g>
   <g id="patch_45">
    <path clip-path="url(#p9bdd4deb7e)" d="M 200.435097 134.643215 
L 203.411759 134.643215 
L 203.411759 109.200302 
L 200.435097 109.200302 
z
" style="fill:#1f77b4;"/>
   </g>
   <g id="patch_46">
    <path clip-path="url(#p9bdd4deb7e)" d="M 204.155924 134.643215 
L 207.132585 134.643215 
L 207.132585 187.391286 
L 204.155924 187.391286 
z
" style="fill:#1f77b4;"/>
   </g>
   <g id="patch_47">
    <path clip-path="url(#p9bdd4deb7e)" d="M 207.876751 134.643215 
L 210.853412 134.643215 
L 210.853412 143.184054 
L 207.876751 143.184054 
z
" style="fill:#1f77b4;"/>
   </g>
   <g id="patch_48">
    <path clip-path="url(#p9bdd4deb7e)" d="M 211.597578 134.643215 
L 214.574239 134.643215 
L 214.574239 139.038882 
L 211.597578 139.038882 
z
" style="fill:#1f77b4;"/>
   </g>
   <g id="patch_49">
    <path clip-path="url(#p9bdd4deb7e)" d="M 215.318404 134.643215 
L 218.295066 134.643215 
L 218.295066 130.363584 
L 215.318404 130.363584 
z
" style="fill:#1f77b4;"/>
   </g>
   <g id="patch_50">
    <path clip-path="url(#p9bdd4deb7e)" d="M 219.039231 134.643215 
L 222.015893 134.643215 
L 222.015893 106.478922 
L 219.039231 106.478922 
z
" style="fill:#1f77b4;"/>
   </g>
   <g id="patch_51">
    <path clip-path="url(#p9bdd4deb7e)" d="M 222.760058 134.643215 
L 225.73672 134.643215 
L 225.73672 184.094894 
L 222.760058 184.094894 
z
" style="fill:#1f77b4;"/>
   </g>
   <g id="patch_52">
    <path clip-path="url(#p9bdd4deb7e)" d="M 226.480885 134.643215 
L 229.457546 134.643215 
L 229.457546 126.268027 
L 226.480885 126.268027 
z
" style="fill:#1f77b4;"/>
   </g>
   <g id="patch_53">
    <path clip-path="url(#p9bdd4deb7e)" d="M 230.201712 134.643215 
L 233.178373 134.643215 
L 233.178373 109.531488 
L 230.201712 109.531488 
z
" style="fill:#1f77b4;"/>
   </g>
   <g id="patch_54">
    <path clip-path="url(#p9bdd4deb7e)" d="M 233.922539 134.643215 
L 236.8992 134.643215 
L 236.8992 132.981481 
L 233.922539 132.981481 
z
" style="fill:#1f77b4;"/>
   </g>
   <g id="patch_55">
    <path clip-path="url(#p9bdd4deb7e)" d="M 237.643366 134.643215 
L 240.620027 134.643215 
L 240.620027 149.194874 
L 237.643366 149.194874 
z
" style="fill:#1f77b4;"/>
   </g>
   <g id="patch_56">
    <path clip-path="url(#p9bdd4deb7e)" d="M 241.364192 134.643215 
L 244.340854 134.643215 
L 244.340854 148.027494 
L 241.364192 148.027494 
z
" style="fill:#1f77b4;"/>
   </g>
   <g id="patch_57">
    <path clip-path="url(#p9bdd4deb7e)" d="M 245.085019 134.643215 
L 248.061681 134.643215 
L 248.061681 168.963188 
L 245.085019 168.963188 
z
" style="fill:#1f77b4;"/>
   </g>
   <g id="patch_58">
    <path clip-path="url(#p9bdd4deb7e)" d="M 248.805846 134.643215 
L 251.782508 134.643215 
L 251.782508 121.706825 
L 248.805846 121.706825 
z
" style="fill:#1f77b4;"/>
   </g>
   <g id="patch_59">
    <path clip-path="url(#p9bdd4deb7e)" d="M 252.526673 134.643215 
L 255.503334 134.643215 
L 255.503334 196.91163 
L 252.526673 196.91163 
z
" style="fill:#1f77b4;"/>
   </g>
   <g id="patch_60">
    <path clip-path="url(#p9bdd4deb7e)" d="M 256.2475 134.643215 
L 259.224161 134.643215 
L 259.224161 154.583066 
L 256.2475 154.583066 
z
" style="fill:#1f77b4;"/>
   </g>
   <g id="patch_61">
    <path clip-path="url(#p9bdd4deb7e)" d="M 259.968327 134.643215 
L 262.944988 134.643215 
L 262.944988 145.588569 
L 259.968327 145.588569 
z
" style="fill:#1f77b4;"/>
   </g>
   <g id="patch_62">
    <path clip-path="url(#p9bdd4deb7e)" d="M 263.689153 134.643215 
L 266.665815 134.643215 
L 266.665815 147.002292 
L 263.689153 147.002292 
z
" style="fill:#1f77b4;"/>
   </g>
   <g id="patch_63">
    <path clip-path="url(#p9bdd4deb7e)" d="M 267.40998 134.643215 
L 270.386642 134.643215 
L 270.386642 98.352211 
L 267.40998 98.352211 
z
" style="fill:#1f77b4;"/>
   </g>
   <g id="patch_64">
    <path clip-path="url(#p9bdd4deb7e)" d="M 271.130807 134.643215 
L 274.107469 134.643215 
L 274.107469 80.055054 
L 271.130807 80.055054 
z
" style="fill:#1f77b4;"/>
   </g>
   <g id="patch_65">
    <path clip-path="url(#p9bdd4deb7e)" d="M 274.851634 134.643215 
L 277.828296 134.643215 
L 277.828296 149.85898 
L 274.851634 149.85898 
z
" style="fill:#1f77b4;"/>
   </g>
   <g id="patch_66">
    <path clip-path="url(#p9bdd4deb7e)" d="M 278.572461 134.643215 
L 281.549122 134.643215 
L 281.549122 152.849844 
L 278.572461 152.849844 
z
" style="fill:#1f77b4;"/>
   </g>
   <g id="patch_67">
    <path clip-path="url(#p9bdd4deb7e)" d="M 282.293288 134.643215 
L 285.269949 134.643215 
L 285.269949 167.837955 
L 282.293288 167.837955 
z
" style="fill:#1f77b4;"/>
   </g>
   <g id="patch_68">
    <path clip-path="url(#p9bdd4deb7e)" d="M 286.014115 134.643215 
L 288.990776 134.643215 
L 288.990776 163.961166 
L 286.014115 163.961166 
z
" style="fill:#1f77b4;"/>
   </g>
   <g id="patch_69">
    <path clip-path="url(#p9bdd4deb7e)" d="M 289.734941 134.643215 
L 292.711603 134.643215 
L 292.711603 167.81013 
L 289.734941 167.81013 
z
" style="fill:#1f77b4;"/>
   </g>
   <g id="patch_70">
    <path clip-path="url(#p9bdd4deb7e)" d="M 293.455768 134.643215 
L 296.43243 134.643215 
L 296.43243 123.418991 
L 293.455768 123.418991 
z
" style="fill:#1f77b4;"/>
   </g>
   <g id="patch_71">
    <path clip-path="url(#p9bdd4deb7e)" d="M 297.176595 134.643215 
L 300.153257 134.643215 
L 300.153257 153.309053 
L 297.176595 153.309053 
z
" style="fill:#1f77b4;"/>
   </g>
   <g id="patch_72">
    <path clip-path="url(#p9bdd4deb7e)" d="M 300.897422 134.643215 
L 303.874083 134.643215 
L 303.874083 214.756364 
L 300.897422 214.756364 
z
" style="fill:#1f77b4;"/>
   </g>
   <g id="patch_73">
    <path clip-path="url(#p9bdd4deb7e)" d="M 304.618249 134.643215 
L 307.59491 134.643215 
L 307.59491 95.143197 
L 304.618249 95.143197 
z
" style="fill:#1f77b4;"/>
   </g>
   <g id="patch_74">
    <path clip-path="url(#p9bdd4deb7e)" d="M 308.339076 134.643215 
L 311.315737 134.643215 
L 311.315737 98.708772 
L 308.339076 98.708772 
z
" style="fill:#1f77b4;"/>
   </g>
   <g id="patch_75">
    <path clip-path="url(#p9bdd4deb7e)" d="M 312.059903 134.643215 
L 315.036564 134.643215 
L 315.036564 136.498592 
L 312.059903 136.498592 
z
" style="fill:#1f77b4;"/>
   </g>
   <g id="patch_76">
    <path clip-path="url(#p9bdd4deb7e)" d="M 315.780729 134.643215 
L 318.757391 134.643215 
L 318.757391 140.239939 
L 315.780729 140.239939 
z
" style="fill:#1f77b4;"/>
   </g>
   <g id="patch_77">
    <path clip-path="url(#p9bdd4deb7e)" d="M 319.501556 134.643215 
L 322.478218 134.643215 
L 322.478218 170.029537 
L 319.501556 170.029537 
z
" style="fill:#1f77b4;"/>
   </g>
   <g id="patch_78">
    <path clip-path="url(#p9bdd4deb7e)" d="M 323.222383 134.643215 
L 326.199045 134.643215 
L 326.199045 102.783573 
L 323.222383 102.783573 
z
" style="fill:#1f77b4;"/>
   </g>
   <g id="patch_79">
    <path clip-path="url(#p9bdd4deb7e)" d="M 326.94321 134.643215 
L 329.919871 134.643215 
L 329.919871 137.024722 
L 326.94321 137.024722 
z
" style="fill:#1f77b4;"/>
   </g>
   <g id="patch_80">
    <path clip-path="url(#p9bdd4deb7e)" d="M 330.664037 134.643215 
L 333.640698 134.643215 
L 333.640698 90.547334 
L 330.664037 90.547334 
z
" style="fill:#1f77b4;"/>
   </g>
   <g id="patch_81">
    <path clip-path="url(#p9bdd4deb7e)" d="M 334.384864 134.643215 
L 337.361525 134.643215 
L 337.361525 162.993498 
L 334.384864 162.993498 
z
" style="fill:#1f77b4;"/>
   </g>
   <g id="patch_82">
    <path clip-path="url(#p9bdd4deb7e)" d="M 338.105691 134.643215 
L 341.082352 134.643215 
L 341.082352 152.304691 
L 338.105691 152.304691 
z
" style="fill:#1f77b4;"/>
   </g>
   <g id="patch_83">
    <path clip-path="url(#p9bdd4deb7e)" d="M 341.826517 134.643215 
L 344.803179 134.643215 
L 344.803179 130.385624 
L 341.826517 130.385624 
z
" style="fill:#1f77b4;"/>
   </g>
   <g id="patch_84">
    <path clip-path="url(#p9bdd4deb7e)" d="M 345.547344 134.643215 
L 348.524006 134.643215 
L 348.524006 143.515774 
L 345.547344 143.515774 
z
" style="fill:#1f77b4;"/>
   </g>
   <g id="matplotlib.axis_1">
    <g id="xtick_1">
     <g id="line2d_1">
      <defs>
       <path d="M 0 0 
L 0 3.5 
" id="mcdb561ec26" style="stroke:#000000;stroke-width:0.8;"/>
      </defs>
      <g>
       <use style="stroke:#000000;stroke-width:0.8;" x="45.6487" xlink:href="#mcdb561ec26" y="224.64"/>
      </g>
     </g>
     <g id="text_1">
      <!-- 0 -->
      <g transform="translate(42.46745 239.238437)scale(0.1 -0.1)">
       <defs>
        <path d="M 31.78125 66.40625 
Q 24.171875 66.40625 20.328125 58.90625 
Q 16.5 51.421875 16.5 36.375 
Q 16.5 21.390625 20.328125 13.890625 
Q 24.171875 6.390625 31.78125 6.390625 
Q 39.453125 6.390625 43.28125 13.890625 
Q 47.125 21.390625 47.125 36.375 
Q 47.125 51.421875 43.28125 58.90625 
Q 39.453125 66.40625 31.78125 66.40625 
z
M 31.78125 74.21875 
Q 44.046875 74.21875 50.515625 64.515625 
Q 56.984375 54.828125 56.984375 36.375 
Q 56.984375 17.96875 50.515625 8.265625 
Q 44.046875 -1.421875 31.78125 -1.421875 
Q 19.53125 -1.421875 13.0625 8.265625 
Q 6.59375 17.96875 6.59375 36.375 
Q 6.59375 54.828125 13.0625 64.515625 
Q 19.53125 74.21875 31.78125 74.21875 
z
" id="DejaVuSans-48"/>
       </defs>
       <use xlink:href="#DejaVuSans-48"/>
      </g>
     </g>
    </g>
    <g id="xtick_2">
     <g id="line2d_2">
      <g>
       <use style="stroke:#000000;stroke-width:0.8;" x="82.856969" xlink:href="#mcdb561ec26" y="224.64"/>
      </g>
     </g>
     <g id="text_2">
      <!-- 10 -->
      <g transform="translate(76.494469 239.238437)scale(0.1 -0.1)">
       <defs>
        <path d="M 12.40625 8.296875 
L 28.515625 8.296875 
L 28.515625 63.921875 
L 10.984375 60.40625 
L 10.984375 69.390625 
L 28.421875 72.90625 
L 38.28125 72.90625 
L 38.28125 8.296875 
L 54.390625 8.296875 
L 54.390625 0 
L 12.40625 0 
z
" id="DejaVuSans-49"/>
       </defs>
       <use xlink:href="#DejaVuSans-49"/>
       <use x="63.623047" xlink:href="#DejaVuSans-48"/>
      </g>
     </g>
    </g>
    <g id="xtick_3">
     <g id="line2d_3">
      <g>
       <use style="stroke:#000000;stroke-width:0.8;" x="120.065237" xlink:href="#mcdb561ec26" y="224.64"/>
      </g>
     </g>
     <g id="text_3">
      <!-- 20 -->
      <g transform="translate(113.702737 239.238437)scale(0.1 -0.1)">
       <defs>
        <path d="M 19.1875 8.296875 
L 53.609375 8.296875 
L 53.609375 0 
L 7.328125 0 
L 7.328125 8.296875 
Q 12.9375 14.109375 22.625 23.890625 
Q 32.328125 33.6875 34.8125 36.53125 
Q 39.546875 41.84375 41.421875 45.53125 
Q 43.3125 49.21875 43.3125 52.78125 
Q 43.3125 58.59375 39.234375 62.25 
Q 35.15625 65.921875 28.609375 65.921875 
Q 23.96875 65.921875 18.8125 64.3125 
Q 13.671875 62.703125 7.8125 59.421875 
L 7.8125 69.390625 
Q 13.765625 71.78125 18.9375 73 
Q 24.125 74.21875 28.421875 74.21875 
Q 39.75 74.21875 46.484375 68.546875 
Q 53.21875 62.890625 53.21875 53.421875 
Q 53.21875 48.921875 51.53125 44.890625 
Q 49.859375 40.875 45.40625 35.40625 
Q 44.1875 33.984375 37.640625 27.21875 
Q 31.109375 20.453125 19.1875 8.296875 
z
" id="DejaVuSans-50"/>
       </defs>
       <use xlink:href="#DejaVuSans-50"/>
       <use x="63.623047" xlink:href="#DejaVuSans-48"/>
      </g>
     </g>
    </g>
    <g id="xtick_4">
     <g id="line2d_4">
      <g>
       <use style="stroke:#000000;stroke-width:0.8;" x="157.273506" xlink:href="#mcdb561ec26" y="224.64"/>
      </g>
     </g>
     <g id="text_4">
      <!-- 30 -->
      <g transform="translate(150.911006 239.238437)scale(0.1 -0.1)">
       <defs>
        <path d="M 40.578125 39.3125 
Q 47.65625 37.796875 51.625 33 
Q 55.609375 28.21875 55.609375 21.1875 
Q 55.609375 10.40625 48.1875 4.484375 
Q 40.765625 -1.421875 27.09375 -1.421875 
Q 22.515625 -1.421875 17.65625 -0.515625 
Q 12.796875 0.390625 7.625 2.203125 
L 7.625 11.71875 
Q 11.71875 9.328125 16.59375 8.109375 
Q 21.484375 6.890625 26.8125 6.890625 
Q 36.078125 6.890625 40.9375 10.546875 
Q 45.796875 14.203125 45.796875 21.1875 
Q 45.796875 27.640625 41.28125 31.265625 
Q 36.765625 34.90625 28.71875 34.90625 
L 20.21875 34.90625 
L 20.21875 43.015625 
L 29.109375 43.015625 
Q 36.375 43.015625 40.234375 45.921875 
Q 44.09375 48.828125 44.09375 54.296875 
Q 44.09375 59.90625 40.109375 62.90625 
Q 36.140625 65.921875 28.71875 65.921875 
Q 24.65625 65.921875 20.015625 65.03125 
Q 15.375 64.15625 9.8125 62.3125 
L 9.8125 71.09375 
Q 15.4375 72.65625 20.34375 73.4375 
Q 25.25 74.21875 29.59375 74.21875 
Q 40.828125 74.21875 47.359375 69.109375 
Q 53.90625 64.015625 53.90625 55.328125 
Q 53.90625 49.265625 50.4375 45.09375 
Q 46.96875 40.921875 40.578125 39.3125 
z
" id="DejaVuSans-51"/>
       </defs>
       <use xlink:href="#DejaVuSans-51"/>
       <use x="63.623047" xlink:href="#DejaVuSans-48"/>
      </g>
     </g>
    </g>
    <g id="xtick_5">
     <g id="line2d_5">
      <g>
       <use style="stroke:#000000;stroke-width:0.8;" x="194.481774" xlink:href="#mcdb561ec26" y="224.64"/>
      </g>
     </g>
     <g id="text_5">
      <!-- 40 -->
      <g transform="translate(188.119274 239.238437)scale(0.1 -0.1)">
       <defs>
        <path d="M 37.796875 64.3125 
L 12.890625 25.390625 
L 37.796875 25.390625 
z
M 35.203125 72.90625 
L 47.609375 72.90625 
L 47.609375 25.390625 
L 58.015625 25.390625 
L 58.015625 17.1875 
L 47.609375 17.1875 
L 47.609375 0 
L 37.796875 0 
L 37.796875 17.1875 
L 4.890625 17.1875 
L 4.890625 26.703125 
z
" id="DejaVuSans-52"/>
       </defs>
       <use xlink:href="#DejaVuSans-52"/>
       <use x="63.623047" xlink:href="#DejaVuSans-48"/>
      </g>
     </g>
    </g>
    <g id="xtick_6">
     <g id="line2d_6">
      <g>
       <use style="stroke:#000000;stroke-width:0.8;" x="231.690043" xlink:href="#mcdb561ec26" y="224.64"/>
      </g>
     </g>
     <g id="text_6">
      <!-- 50 -->
      <g transform="translate(225.327543 239.238437)scale(0.1 -0.1)">
       <defs>
        <path d="M 10.796875 72.90625 
L 49.515625 72.90625 
L 49.515625 64.59375 
L 19.828125 64.59375 
L 19.828125 46.734375 
Q 21.96875 47.46875 24.109375 47.828125 
Q 26.265625 48.1875 28.421875 48.1875 
Q 40.625 48.1875 47.75 41.5 
Q 54.890625 34.8125 54.890625 23.390625 
Q 54.890625 11.625 47.5625 5.09375 
Q 40.234375 -1.421875 26.90625 -1.421875 
Q 22.3125 -1.421875 17.546875 -0.640625 
Q 12.796875 0.140625 7.71875 1.703125 
L 7.71875 11.625 
Q 12.109375 9.234375 16.796875 8.0625 
Q 21.484375 6.890625 26.703125 6.890625 
Q 35.15625 6.890625 40.078125 11.328125 
Q 45.015625 15.765625 45.015625 23.390625 
Q 45.015625 31 40.078125 35.4375 
Q 35.15625 39.890625 26.703125 39.890625 
Q 22.75 39.890625 18.8125 39.015625 
Q 14.890625 38.140625 10.796875 36.28125 
z
" id="DejaVuSans-53"/>
       </defs>
       <use xlink:href="#DejaVuSans-53"/>
       <use x="63.623047" xlink:href="#DejaVuSans-48"/>
      </g>
     </g>
    </g>
    <g id="xtick_7">
     <g id="line2d_7">
      <g>
       <use style="stroke:#000000;stroke-width:0.8;" x="268.898311" xlink:href="#mcdb561ec26" y="224.64"/>
      </g>
     </g>
     <g id="text_7">
      <!-- 60 -->
      <g transform="translate(262.535811 239.238437)scale(0.1 -0.1)">
       <defs>
        <path d="M 33.015625 40.375 
Q 26.375 40.375 22.484375 35.828125 
Q 18.609375 31.296875 18.609375 23.390625 
Q 18.609375 15.53125 22.484375 10.953125 
Q 26.375 6.390625 33.015625 6.390625 
Q 39.65625 6.390625 43.53125 10.953125 
Q 47.40625 15.53125 47.40625 23.390625 
Q 47.40625 31.296875 43.53125 35.828125 
Q 39.65625 40.375 33.015625 40.375 
z
M 52.59375 71.296875 
L 52.59375 62.3125 
Q 48.875 64.0625 45.09375 64.984375 
Q 41.3125 65.921875 37.59375 65.921875 
Q 27.828125 65.921875 22.671875 59.328125 
Q 17.53125 52.734375 16.796875 39.40625 
Q 19.671875 43.65625 24.015625 45.921875 
Q 28.375 48.1875 33.59375 48.1875 
Q 44.578125 48.1875 50.953125 41.515625 
Q 57.328125 34.859375 57.328125 23.390625 
Q 57.328125 12.15625 50.6875 5.359375 
Q 44.046875 -1.421875 33.015625 -1.421875 
Q 20.359375 -1.421875 13.671875 8.265625 
Q 6.984375 17.96875 6.984375 36.375 
Q 6.984375 53.65625 15.1875 63.9375 
Q 23.390625 74.21875 37.203125 74.21875 
Q 40.921875 74.21875 44.703125 73.484375 
Q 48.484375 72.75 52.59375 71.296875 
z
" id="DejaVuSans-54"/>
       </defs>
       <use xlink:href="#DejaVuSans-54"/>
       <use x="63.623047" xlink:href="#DejaVuSans-48"/>
      </g>
     </g>
    </g>
    <g id="xtick_8">
     <g id="line2d_8">
      <g>
       <use style="stroke:#000000;stroke-width:0.8;" x="306.10658" xlink:href="#mcdb561ec26" y="224.64"/>
      </g>
     </g>
     <g id="text_8">
      <!-- 70 -->
      <g transform="translate(299.74408 239.238437)scale(0.1 -0.1)">
       <defs>
        <path d="M 8.203125 72.90625 
L 55.078125 72.90625 
L 55.078125 68.703125 
L 28.609375 0 
L 18.3125 0 
L 43.21875 64.59375 
L 8.203125 64.59375 
z
" id="DejaVuSans-55"/>
       </defs>
       <use xlink:href="#DejaVuSans-55"/>
       <use x="63.623047" xlink:href="#DejaVuSans-48"/>
      </g>
     </g>
    </g>
    <g id="xtick_9">
     <g id="line2d_9">
      <g>
       <use style="stroke:#000000;stroke-width:0.8;" x="343.314848" xlink:href="#mcdb561ec26" y="224.64"/>
      </g>
     </g>
     <g id="text_9">
      <!-- 80 -->
      <g transform="translate(336.952348 239.238437)scale(0.1 -0.1)">
       <defs>
        <path d="M 31.78125 34.625 
Q 24.75 34.625 20.71875 30.859375 
Q 16.703125 27.09375 16.703125 20.515625 
Q 16.703125 13.921875 20.71875 10.15625 
Q 24.75 6.390625 31.78125 6.390625 
Q 38.8125 6.390625 42.859375 10.171875 
Q 46.921875 13.96875 46.921875 20.515625 
Q 46.921875 27.09375 42.890625 30.859375 
Q 38.875 34.625 31.78125 34.625 
z
M 21.921875 38.8125 
Q 15.578125 40.375 12.03125 44.71875 
Q 8.5 49.078125 8.5 55.328125 
Q 8.5 64.0625 14.71875 69.140625 
Q 20.953125 74.21875 31.78125 74.21875 
Q 42.671875 74.21875 48.875 69.140625 
Q 55.078125 64.0625 55.078125 55.328125 
Q 55.078125 49.078125 51.53125 44.71875 
Q 48 40.375 41.703125 38.8125 
Q 48.828125 37.15625 52.796875 32.3125 
Q 56.78125 27.484375 56.78125 20.515625 
Q 56.78125 9.90625 50.3125 4.234375 
Q 43.84375 -1.421875 31.78125 -1.421875 
Q 19.734375 -1.421875 13.25 4.234375 
Q 6.78125 9.90625 6.78125 20.515625 
Q 6.78125 27.484375 10.78125 32.3125 
Q 14.796875 37.15625 21.921875 38.8125 
z
M 18.3125 54.390625 
Q 18.3125 48.734375 21.84375 45.5625 
Q 25.390625 42.390625 31.78125 42.390625 
Q 38.140625 42.390625 41.71875 45.5625 
Q 45.3125 48.734375 45.3125 54.390625 
Q 45.3125 60.0625 41.71875 63.234375 
Q 38.140625 66.40625 31.78125 66.40625 
Q 25.390625 66.40625 21.84375 63.234375 
Q 18.3125 60.0625 18.3125 54.390625 
z
" id="DejaVuSans-56"/>
       </defs>
       <use xlink:href="#DejaVuSans-56"/>
       <use x="63.623047" xlink:href="#DejaVuSans-48"/>
      </g>
     </g>
    </g>
   </g>
   <g id="matplotlib.axis_2">
    <g id="ytick_1">
     <g id="line2d_10">
      <defs>
       <path d="M 0 0 
L -3.5 0 
" id="m70391dabfe" style="stroke:#000000;stroke-width:0.8;"/>
      </defs>
      <g>
       <use style="stroke:#000000;stroke-width:0.8;" x="28.942188" xlink:href="#m70391dabfe" y="204.570029"/>
      </g>
     </g>
     <g id="text_10">
      <!-- −2 -->
      <g transform="translate(7.2 208.369248)scale(0.1 -0.1)">
       <defs>
        <path d="M 10.59375 35.5 
L 73.1875 35.5 
L 73.1875 27.203125 
L 10.59375 27.203125 
z
" id="DejaVuSans-8722"/>
       </defs>
       <use xlink:href="#DejaVuSans-8722"/>
       <use x="83.789062" xlink:href="#DejaVuSans-50"/>
      </g>
     </g>
    </g>
    <g id="ytick_2">
     <g id="line2d_11">
      <g>
       <use style="stroke:#000000;stroke-width:0.8;" x="28.942188" xlink:href="#m70391dabfe" y="169.606622"/>
      </g>
     </g>
     <g id="text_11">
      <!-- −1 -->
      <g transform="translate(7.2 173.405841)scale(0.1 -0.1)">
       <use xlink:href="#DejaVuSans-8722"/>
       <use x="83.789062" xlink:href="#DejaVuSans-49"/>
      </g>
     </g>
    </g>
    <g id="ytick_3">
     <g id="line2d_12">
      <g>
       <use style="stroke:#000000;stroke-width:0.8;" x="28.942188" xlink:href="#m70391dabfe" y="134.643215"/>
      </g>
     </g>
     <g id="text_12">
      <!-- 0 -->
      <g transform="translate(15.579688 138.442433)scale(0.1 -0.1)">
       <use xlink:href="#DejaVuSans-48"/>
      </g>
     </g>
    </g>
    <g id="ytick_4">
     <g id="line2d_13">
      <g>
       <use style="stroke:#000000;stroke-width:0.8;" x="28.942188" xlink:href="#m70391dabfe" y="99.679808"/>
      </g>
     </g>
     <g id="text_13">
      <!-- 1 -->
      <g transform="translate(15.579688 103.479026)scale(0.1 -0.1)">
       <use xlink:href="#DejaVuSans-49"/>
      </g>
     </g>
    </g>
    <g id="ytick_5">
     <g id="line2d_14">
      <g>
       <use style="stroke:#000000;stroke-width:0.8;" x="28.942188" xlink:href="#m70391dabfe" y="64.7164"/>
      </g>
     </g>
     <g id="text_14">
      <!-- 2 -->
      <g transform="translate(15.579688 68.515619)scale(0.1 -0.1)">
       <use xlink:href="#DejaVuSans-50"/>
      </g>
     </g>
    </g>
    <g id="ytick_6">
     <g id="line2d_15">
      <g>
       <use style="stroke:#000000;stroke-width:0.8;" x="28.942188" xlink:href="#m70391dabfe" y="29.752993"/>
      </g>
     </g>
     <g id="text_15">
      <!-- 3 -->
      <g transform="translate(15.579688 33.552212)scale(0.1 -0.1)">
       <use xlink:href="#DejaVuSans-51"/>
      </g>
     </g>
    </g>
   </g>
   <g id="patch_85">
    <path d="M 28.942188 224.64 
L 28.942188 7.2 
" style="fill:none;stroke:#000000;stroke-linecap:square;stroke-linejoin:miter;stroke-width:0.8;"/>
   </g>
   <g id="patch_86">
    <path d="M 363.742188 224.64 
L 363.742188 7.2 
" style="fill:none;stroke:#000000;stroke-linecap:square;stroke-linejoin:miter;stroke-width:0.8;"/>
   </g>
   <g id="patch_87">
    <path d="M 28.942188 224.64 
L 363.742188 224.64 
" style="fill:none;stroke:#000000;stroke-linecap:square;stroke-linejoin:miter;stroke-width:0.8;"/>
   </g>
   <g id="patch_88">
    <path d="M 28.942188 7.2 
L 363.742188 7.2 
" style="fill:none;stroke:#000000;stroke-linecap:square;stroke-linejoin:miter;stroke-width:0.8;"/>
   </g>
  </g>
 </g>
 <defs>
  <clipPath id="p9bdd4deb7e">
   <rect height="217.44" width="334.8" x="28.942188" y="7.2"/>
  </clipPath>
 </defs>
</svg>
