<?xml version="1.0" encoding="utf-8" standalone="no"?>
<!DOCTYPE svg PUBLIC "-//W3C//DTD SVG 1.1//EN"
  "http://www.w3.org/Graphics/SVG/1.1/DTD/svg11.dtd">
<!-- Created with matplotlib (https://matplotlib.org/) -->
<svg height="248.518125pt" version="1.1" viewBox="0 0 368.925 248.518125" width="368.925pt" xmlns="http://www.w3.org/2000/svg" xmlns:xlink="http://www.w3.org/1999/xlink">
 <metadata>
  <rdf:RDF xmlns:cc="http://creativecommons.org/ns#" xmlns:dc="http://purl.org/dc/elements/1.1/" xmlns:rdf="http://www.w3.org/1999/02/22-rdf-syntax-ns#">
   <cc:Work>
    <dc:type rdf:resource="http://purl.org/dc/dcmitype/StillImage"/>
    <dc:date>2020-10-16T21:59:55.110738</dc:date>
    <dc:format>image/svg+xml</dc:format>
    <dc:creator>
     <cc:Agent>
      <dc:title>Matplotlib v3.3.2, https://matplotlib.org/</dc:title>
     </cc:Agent>
    </dc:creator>
   </cc:Work>
  </rdf:RDF>
 </metadata>
 <defs>
  <style type="text/css">*{stroke-linecap:butt;stroke-linejoin:round;}</style>
 </defs>
 <g id="figure_1">
  <g id="patch_1">
   <path d="M -0 248.518125 
L 368.925 248.518125 
L 368.925 0 
L -0 0 
z
" style="fill:none;"/>
  </g>
  <g id="axes_1">
   <g id="patch_2">
    <path d="M 26.925 224.64 
L 361.725 224.64 
L 361.725 7.2 
L 26.925 7.2 
z
" style="fill:#ffffff;"/>
   </g>
   <g id="matplotlib.axis_1">
    <g id="xtick_1">
     <g id="line2d_1">
      <defs>
       <path d="M 0 0 
L 0 3.5 
" id="mbdc96eea4c" style="stroke:#000000;stroke-width:0.8;"/>
      </defs>
      <g>
       <use style="stroke:#000000;stroke-width:0.8;" x="42.143182" xlink:href="#mbdc96eea4c" y="224.64"/>
      </g>
     </g>
     <g id="text_1">
      <!-- 0 -->
      <g transform="translate(38.961932 239.238438)scale(0.1 -0.1)">
       <defs>
        <path d="M 31.78125 66.40625 
Q 24.171875 66.40625 20.328125 58.90625 
Q 16.5 51.421875 16.5 36.375 
Q 16.5 21.390625 20.328125 13.890625 
Q 24.171875 6.390625 31.78125 6.390625 
Q 39.453125 6.390625 43.28125 13.890625 
Q 47.125 21.390625 47.125 36.375 
Q 47.125 51.421875 43.28125 58.90625 
Q 39.453125 66.40625 31.78125 66.40625 
z
M 31.78125 74.21875 
Q 44.046875 74.21875 50.515625 64.515625 
Q 56.984375 54.828125 56.984375 36.375 
Q 56.984375 17.96875 50.515625 8.265625 
Q 44.046875 -1.421875 31.78125 -1.421875 
Q 19.53125 -1.421875 13.0625 8.265625 
Q 6.59375 17.96875 6.59375 36.375 
Q 6.59375 54.828125 13.0625 64.515625 
Q 19.53125 74.21875 31.78125 74.21875 
z
" id="DejaVuSans-48"/>
       </defs>
       <use xlink:href="#DejaVuSans-48"/>
      </g>
     </g>
    </g>
    <g id="xtick_2">
     <g id="line2d_2">
      <g>
       <use style="stroke:#000000;stroke-width:0.8;" x="103.076843" xlink:href="#mbdc96eea4c" y="224.64"/>
      </g>
     </g>
     <g id="text_2">
      <!-- 200 -->
      <g transform="translate(93.533093 239.238438)scale(0.1 -0.1)">
       <defs>
        <path d="M 19.1875 8.296875 
L 53.609375 8.296875 
L 53.609375 0 
L 7.328125 0 
L 7.328125 8.296875 
Q 12.9375 14.109375 22.625 23.890625 
Q 32.328125 33.6875 34.8125 36.53125 
Q 39.546875 41.84375 41.421875 45.53125 
Q 43.3125 49.21875 43.3125 52.78125 
Q 43.3125 58.59375 39.234375 62.25 
Q 35.15625 65.921875 28.609375 65.921875 
Q 23.96875 65.921875 18.8125 64.3125 
Q 13.671875 62.703125 7.8125 59.421875 
L 7.8125 69.390625 
Q 13.765625 71.78125 18.9375 73 
Q 24.125 74.21875 28.421875 74.21875 
Q 39.75 74.21875 46.484375 68.546875 
Q 53.21875 62.890625 53.21875 53.421875 
Q 53.21875 48.921875 51.53125 44.890625 
Q 49.859375 40.875 45.40625 35.40625 
Q 44.1875 33.984375 37.640625 27.21875 
Q 31.109375 20.453125 19.1875 8.296875 
z
" id="DejaVuSans-50"/>
       </defs>
       <use xlink:href="#DejaVuSans-50"/>
       <use x="63.623047" xlink:href="#DejaVuSans-48"/>
       <use x="127.246094" xlink:href="#DejaVuSans-48"/>
      </g>
     </g>
    </g>
    <g id="xtick_3">
     <g id="line2d_3">
      <g>
       <use style="stroke:#000000;stroke-width:0.8;" x="164.010504" xlink:href="#mbdc96eea4c" y="224.64"/>
      </g>
     </g>
     <g id="text_3">
      <!-- 400 -->
      <g transform="translate(154.466754 239.238438)scale(0.1 -0.1)">
       <defs>
        <path d="M 37.796875 64.3125 
L 12.890625 25.390625 
L 37.796875 25.390625 
z
M 35.203125 72.90625 
L 47.609375 72.90625 
L 47.609375 25.390625 
L 58.015625 25.390625 
L 58.015625 17.1875 
L 47.609375 17.1875 
L 47.609375 0 
L 37.796875 0 
L 37.796875 17.1875 
L 4.890625 17.1875 
L 4.890625 26.703125 
z
" id="DejaVuSans-52"/>
       </defs>
       <use xlink:href="#DejaVuSans-52"/>
       <use x="63.623047" xlink:href="#DejaVuSans-48"/>
       <use x="127.246094" xlink:href="#DejaVuSans-48"/>
      </g>
     </g>
    </g>
    <g id="xtick_4">
     <g id="line2d_4">
      <g>
       <use style="stroke:#000000;stroke-width:0.8;" x="224.944165" xlink:href="#mbdc96eea4c" y="224.64"/>
      </g>
     </g>
     <g id="text_4">
      <!-- 600 -->
      <g transform="translate(215.400415 239.238438)scale(0.1 -0.1)">
       <defs>
        <path d="M 33.015625 40.375 
Q 26.375 40.375 22.484375 35.828125 
Q 18.609375 31.296875 18.609375 23.390625 
Q 18.609375 15.53125 22.484375 10.953125 
Q 26.375 6.390625 33.015625 6.390625 
Q 39.65625 6.390625 43.53125 10.953125 
Q 47.40625 15.53125 47.40625 23.390625 
Q 47.40625 31.296875 43.53125 35.828125 
Q 39.65625 40.375 33.015625 40.375 
z
M 52.59375 71.296875 
L 52.59375 62.3125 
Q 48.875 64.0625 45.09375 64.984375 
Q 41.3125 65.921875 37.59375 65.921875 
Q 27.828125 65.921875 22.671875 59.328125 
Q 17.53125 52.734375 16.796875 39.40625 
Q 19.671875 43.65625 24.015625 45.921875 
Q 28.375 48.1875 33.59375 48.1875 
Q 44.578125 48.1875 50.953125 41.515625 
Q 57.328125 34.859375 57.328125 23.390625 
Q 57.328125 12.15625 50.6875 5.359375 
Q 44.046875 -1.421875 33.015625 -1.421875 
Q 20.359375 -1.421875 13.671875 8.265625 
Q 6.984375 17.96875 6.984375 36.375 
Q 6.984375 53.65625 15.1875 63.9375 
Q 23.390625 74.21875 37.203125 74.21875 
Q 40.921875 74.21875 44.703125 73.484375 
Q 48.484375 72.75 52.59375 71.296875 
z
" id="DejaVuSans-54"/>
       </defs>
       <use xlink:href="#DejaVuSans-54"/>
       <use x="63.623047" xlink:href="#DejaVuSans-48"/>
       <use x="127.246094" xlink:href="#DejaVuSans-48"/>
      </g>
     </g>
    </g>
    <g id="xtick_5">
     <g id="line2d_5">
      <g>
       <use style="stroke:#000000;stroke-width:0.8;" x="285.877826" xlink:href="#mbdc96eea4c" y="224.64"/>
      </g>
     </g>
     <g id="text_5">
      <!-- 800 -->
      <g transform="translate(276.334076 239.238438)scale(0.1 -0.1)">
       <defs>
        <path d="M 31.78125 34.625 
Q 24.75 34.625 20.71875 30.859375 
Q 16.703125 27.09375 16.703125 20.515625 
Q 16.703125 13.921875 20.71875 10.15625 
Q 24.75 6.390625 31.78125 6.390625 
Q 38.8125 6.390625 42.859375 10.171875 
Q 46.921875 13.96875 46.921875 20.515625 
Q 46.921875 27.09375 42.890625 30.859375 
Q 38.875 34.625 31.78125 34.625 
z
M 21.921875 38.8125 
Q 15.578125 40.375 12.03125 44.71875 
Q 8.5 49.078125 8.5 55.328125 
Q 8.5 64.0625 14.71875 69.140625 
Q 20.953125 74.21875 31.78125 74.21875 
Q 42.671875 74.21875 48.875 69.140625 
Q 55.078125 64.0625 55.078125 55.328125 
Q 55.078125 49.078125 51.53125 44.71875 
Q 48 40.375 41.703125 38.8125 
Q 48.828125 37.15625 52.796875 32.3125 
Q 56.78125 27.484375 56.78125 20.515625 
Q 56.78125 9.90625 50.3125 4.234375 
Q 43.84375 -1.421875 31.78125 -1.421875 
Q 19.734375 -1.421875 13.25 4.234375 
Q 6.78125 9.90625 6.78125 20.515625 
Q 6.78125 27.484375 10.78125 32.3125 
Q 14.796875 37.15625 21.921875 38.8125 
z
M 18.3125 54.390625 
Q 18.3125 48.734375 21.84375 45.5625 
Q 25.390625 42.390625 31.78125 42.390625 
Q 38.140625 42.390625 41.71875 45.5625 
Q 45.3125 48.734375 45.3125 54.390625 
Q 45.3125 60.0625 41.71875 63.234375 
Q 38.140625 66.40625 31.78125 66.40625 
Q 25.390625 66.40625 21.84375 63.234375 
Q 18.3125 60.0625 18.3125 54.390625 
z
" id="DejaVuSans-56"/>
       </defs>
       <use xlink:href="#DejaVuSans-56"/>
       <use x="63.623047" xlink:href="#DejaVuSans-48"/>
       <use x="127.246094" xlink:href="#DejaVuSans-48"/>
      </g>
     </g>
    </g>
    <g id="xtick_6">
     <g id="line2d_6">
      <g>
       <use style="stroke:#000000;stroke-width:0.8;" x="346.811486" xlink:href="#mbdc96eea4c" y="224.64"/>
      </g>
     </g>
     <g id="text_6">
      <!-- 1000 -->
      <g transform="translate(334.086486 239.238438)scale(0.1 -0.1)">
       <defs>
        <path d="M 12.40625 8.296875 
L 28.515625 8.296875 
L 28.515625 63.921875 
L 10.984375 60.40625 
L 10.984375 69.390625 
L 28.421875 72.90625 
L 38.28125 72.90625 
L 38.28125 8.296875 
L 54.390625 8.296875 
L 54.390625 0 
L 12.40625 0 
z
" id="DejaVuSans-49"/>
       </defs>
       <use xlink:href="#DejaVuSans-49"/>
       <use x="63.623047" xlink:href="#DejaVuSans-48"/>
       <use x="127.246094" xlink:href="#DejaVuSans-48"/>
       <use x="190.869141" xlink:href="#DejaVuSans-48"/>
      </g>
     </g>
    </g>
   </g>
   <g id="matplotlib.axis_2">
    <g id="ytick_1">
     <g id="line2d_7">
      <defs>
       <path d="M 0 0 
L -3.5 0 
" id="m2021d7ecb3" style="stroke:#000000;stroke-width:0.8;"/>
      </defs>
      <g>
       <use style="stroke:#000000;stroke-width:0.8;" x="26.925" xlink:href="#m2021d7ecb3" y="214.76836"/>
      </g>
     </g>
     <g id="text_7">
      <!-- 0 -->
      <g transform="translate(13.5625 218.567578)scale(0.1 -0.1)">
       <use xlink:href="#DejaVuSans-48"/>
      </g>
     </g>
    </g>
    <g id="ytick_2">
     <g id="line2d_8">
      <g>
       <use style="stroke:#000000;stroke-width:0.8;" x="26.925" xlink:href="#m2021d7ecb3" y="181.824766"/>
      </g>
     </g>
     <g id="text_8">
      <!-- 10 -->
      <g transform="translate(7.2 185.623985)scale(0.1 -0.1)">
       <use xlink:href="#DejaVuSans-49"/>
       <use x="63.623047" xlink:href="#DejaVuSans-48"/>
      </g>
     </g>
    </g>
    <g id="ytick_3">
     <g id="line2d_9">
      <g>
       <use style="stroke:#000000;stroke-width:0.8;" x="26.925" xlink:href="#m2021d7ecb3" y="148.881172"/>
      </g>
     </g>
     <g id="text_9">
      <!-- 20 -->
      <g transform="translate(7.2 152.680391)scale(0.1 -0.1)">
       <use xlink:href="#DejaVuSans-50"/>
       <use x="63.623047" xlink:href="#DejaVuSans-48"/>
      </g>
     </g>
    </g>
    <g id="ytick_4">
     <g id="line2d_10">
      <g>
       <use style="stroke:#000000;stroke-width:0.8;" x="26.925" xlink:href="#m2021d7ecb3" y="115.937578"/>
      </g>
     </g>
     <g id="text_10">
      <!-- 30 -->
      <g transform="translate(7.2 119.736797)scale(0.1 -0.1)">
       <defs>
        <path d="M 40.578125 39.3125 
Q 47.65625 37.796875 51.625 33 
Q 55.609375 28.21875 55.609375 21.1875 
Q 55.609375 10.40625 48.1875 4.484375 
Q 40.765625 -1.421875 27.09375 -1.421875 
Q 22.515625 -1.421875 17.65625 -0.515625 
Q 12.796875 0.390625 7.625 2.203125 
L 7.625 11.71875 
Q 11.71875 9.328125 16.59375 8.109375 
Q 21.484375 6.890625 26.8125 6.890625 
Q 36.078125 6.890625 40.9375 10.546875 
Q 45.796875 14.203125 45.796875 21.1875 
Q 45.796875 27.640625 41.28125 31.265625 
Q 36.765625 34.90625 28.71875 34.90625 
L 20.21875 34.90625 
L 20.21875 43.015625 
L 29.109375 43.015625 
Q 36.375 43.015625 40.234375 45.921875 
Q 44.09375 48.828125 44.09375 54.296875 
Q 44.09375 59.90625 40.109375 62.90625 
Q 36.140625 65.921875 28.71875 65.921875 
Q 24.65625 65.921875 20.015625 65.03125 
Q 15.375 64.15625 9.8125 62.3125 
L 9.8125 71.09375 
Q 15.4375 72.65625 20.34375 73.4375 
Q 25.25 74.21875 29.59375 74.21875 
Q 40.828125 74.21875 47.359375 69.109375 
Q 53.90625 64.015625 53.90625 55.328125 
Q 53.90625 49.265625 50.4375 45.09375 
Q 46.96875 40.921875 40.578125 39.3125 
z
" id="DejaVuSans-51"/>
       </defs>
       <use xlink:href="#DejaVuSans-51"/>
       <use x="63.623047" xlink:href="#DejaVuSans-48"/>
      </g>
     </g>
    </g>
    <g id="ytick_5">
     <g id="line2d_11">
      <g>
       <use style="stroke:#000000;stroke-width:0.8;" x="26.925" xlink:href="#m2021d7ecb3" y="82.993985"/>
      </g>
     </g>
     <g id="text_11">
      <!-- 40 -->
      <g transform="translate(7.2 86.793204)scale(0.1 -0.1)">
       <use xlink:href="#DejaVuSans-52"/>
       <use x="63.623047" xlink:href="#DejaVuSans-48"/>
      </g>
     </g>
    </g>
    <g id="ytick_6">
     <g id="line2d_12">
      <g>
       <use style="stroke:#000000;stroke-width:0.8;" x="26.925" xlink:href="#m2021d7ecb3" y="50.050391"/>
      </g>
     </g>
     <g id="text_12">
      <!-- 50 -->
      <g transform="translate(7.2 53.84961)scale(0.1 -0.1)">
       <defs>
        <path d="M 10.796875 72.90625 
L 49.515625 72.90625 
L 49.515625 64.59375 
L 19.828125 64.59375 
L 19.828125 46.734375 
Q 21.96875 47.46875 24.109375 47.828125 
Q 26.265625 48.1875 28.421875 48.1875 
Q 40.625 48.1875 47.75 41.5 
Q 54.890625 34.8125 54.890625 23.390625 
Q 54.890625 11.625 47.5625 5.09375 
Q 40.234375 -1.421875 26.90625 -1.421875 
Q 22.3125 -1.421875 17.546875 -0.640625 
Q 12.796875 0.140625 7.71875 1.703125 
L 7.71875 11.625 
Q 12.109375 9.234375 16.796875 8.0625 
Q 21.484375 6.890625 26.703125 6.890625 
Q 35.15625 6.890625 40.078125 11.328125 
Q 45.015625 15.765625 45.015625 23.390625 
Q 45.015625 31 40.078125 35.4375 
Q 35.15625 39.890625 26.703125 39.890625 
Q 22.75 39.890625 18.8125 39.015625 
Q 14.890625 38.140625 10.796875 36.28125 
z
" id="DejaVuSans-53"/>
       </defs>
       <use xlink:href="#DejaVuSans-53"/>
       <use x="63.623047" xlink:href="#DejaVuSans-48"/>
      </g>
     </g>
    </g>
    <g id="ytick_7">
     <g id="line2d_13">
      <g>
       <use style="stroke:#000000;stroke-width:0.8;" x="26.925" xlink:href="#m2021d7ecb3" y="17.106797"/>
      </g>
     </g>
     <g id="text_13">
      <!-- 60 -->
      <g transform="translate(7.2 20.906016)scale(0.1 -0.1)">
       <use xlink:href="#DejaVuSans-54"/>
       <use x="63.623047" xlink:href="#DejaVuSans-48"/>
      </g>
     </g>
    </g>
   </g>
   <g id="line2d_14">
    <path clip-path="url(#p647e26b87a)" d="M 42.143182 109.078896 
L 42.44785 66.975303 
L 42.752518 104.648418 
L 43.057187 119.863272 
L 43.361855 143.712743 
L 43.666523 107.652505 
L 43.971192 121.457871 
L 44.27586 80.34768 
L 44.580528 129.36268 
L 44.885197 74.664048 
L 45.189865 135.465169 
L 45.494533 130.710753 
L 45.799201 44.409989 
L 46.10387 17.083636 
L 46.408538 114.424419 
L 46.713206 57.236783 
L 47.017875 109.153732 
L 47.322543 27.829161 
L 47.627211 86.409528 
L 47.93188 123.281454 
L 48.236548 91.622287 
L 48.541216 155.293752 
L 48.845885 103.085789 
L 49.150553 151.900013 
L 49.455221 103.692963 
L 50.064558 128.678269 
L 50.369226 102.601822 
L 50.673894 150.448979 
L 50.978563 97.361151 
L 51.283231 98.662022 
L 51.587899 135.738344 
L 51.892568 125.553885 
L 52.197236 141.077302 
L 52.501904 131.025355 
L 52.806572 131.673585 
L 53.111241 94.932896 
L 53.415909 94.178713 
L 53.720577 118.404584 
L 54.025246 53.681985 
L 54.634582 124.989828 
L 54.939251 109.820071 
L 55.243919 154.364405 
L 55.548587 57.70719 
L 55.853256 91.284286 
L 56.157924 72.454621 
L 56.462592 126.168429 
L 56.76726 131.820794 
L 57.071929 95.033909 
L 57.376597 145.233077 
L 57.681265 110.377587 
L 57.985934 134.195898 
L 58.290602 117.441312 
L 58.59527 134.633926 
L 58.899939 41.960571 
L 59.204607 114.659742 
L 59.509275 32.983309 
L 59.813943 159.274815 
L 60.118612 102.73605 
L 60.42328 150.845976 
L 60.727948 81.496893 
L 61.032617 137.455026 
L 61.337285 138.518758 
L 61.641953 77.92239 
L 62.25129 128.881239 
L 62.555958 106.771107 
L 62.860627 111.879574 
L 63.165295 96.859779 
L 63.469963 137.817583 
L 63.774631 96.375208 
L 64.0793 121.406309 
L 64.383968 160.35344 
L 64.688636 38.527208 
L 64.993305 71.513228 
L 65.297973 126.341087 
L 65.602641 144.792548 
L 65.90731 92.322155 
L 66.211978 124.308446 
L 66.516646 169.914668 
L 66.821314 94.847126 
L 67.125983 144.276435 
L 67.430651 49.389003 
L 67.735319 135.080733 
L 68.039988 106.551248 
L 68.344656 133.662008 
L 68.649324 47.905571 
L 68.953993 140.026645 
L 69.258661 130.92901 
L 69.563329 55.792837 
L 70.172666 169.197721 
L 70.477334 109.57587 
L 70.782002 127.036732 
L 71.086671 159.140883 
L 71.391339 93.421879 
L 71.696007 151.099176 
L 72.000676 115.440856 
L 72.305344 118.158322 
L 72.610012 111.916829 
L 72.914681 142.850472 
L 73.219349 134.186818 
L 73.524017 153.220992 
L 73.828686 130.210901 
L 74.133354 135.833357 
L 74.438022 152.10089 
L 74.74269 123.960423 
L 75.047359 137.647351 
L 75.656695 126.079518 
L 76.266032 153.431822 
L 76.5707 117.733181 
L 76.875369 147.883046 
L 77.180037 110.947858 
L 77.484705 131.045405 
L 77.789373 63.273334 
L 78.094042 147.149762 
L 78.703378 117.951343 
L 79.008047 150.443462 
L 79.312715 151.212612 
L 79.617383 157.785163 
L 79.922052 181.06764 
L 80.22672 132.263705 
L 80.531388 133.984565 
L 80.836057 147.160683 
L 81.140725 119.255055 
L 81.445393 150.799554 
L 81.750061 126.337713 
L 82.05473 112.071472 
L 82.359398 141.331155 
L 82.664066 154.669299 
L 82.968735 117.511116 
L 83.273403 158.013178 
L 83.578071 102.73502 
L 83.88274 179.145639 
L 84.187408 123.111064 
L 84.492076 106.886372 
L 84.796744 165.299066 
L 85.101413 143.892149 
L 85.406081 157.324068 
L 85.710749 142.291674 
L 86.015418 121.446825 
L 86.320086 169.829379 
L 86.624754 143.528416 
L 86.929423 178.207294 
L 87.234091 179.400158 
L 87.538759 159.944812 
L 87.843428 164.882863 
L 88.148096 144.897916 
L 88.452764 110.179569 
L 88.757432 176.081639 
L 89.062101 145.233027 
L 89.671437 181.427272 
L 89.976106 145.954045 
L 90.280774 151.284727 
L 90.585442 138.258709 
L 90.890111 174.842936 
L 91.194779 166.073598 
L 91.499447 165.54072 
L 91.804115 180.663881 
L 92.108784 148.1605 
L 92.413452 177.660096 
L 92.71812 166.35644 
L 93.022789 186.205305 
L 93.327457 196.784288 
L 93.632125 128.239977 
L 93.936794 133.456526 
L 94.241462 180.059805 
L 94.54613 167.542643 
L 94.850799 106.014537 
L 95.155467 135.084654 
L 95.460135 177.697291 
L 95.764803 167.118429 
L 96.069472 196.433539 
L 96.37414 151.183708 
L 96.678808 180.737392 
L 96.983477 171.907534 
L 97.288145 169.433704 
L 97.592813 192.289958 
L 98.20215 150.686627 
L 98.506818 182.751989 
L 98.811486 182.204801 
L 99.116155 184.108793 
L 99.420823 167.851703 
L 99.725491 166.076391 
L 100.03016 193.430375 
L 100.639496 156.524192 
L 100.944165 149.646979 
L 101.248833 151.980486 
L 101.553501 191.341832 
L 101.85817 169.46744 
L 102.162838 190.426583 
L 102.467506 182.659833 
L 102.772174 168.12807 
L 103.076843 187.178524 
L 103.381511 174.678903 
L 103.686179 170.162501 
L 103.990848 200.727602 
L 104.295516 197.554988 
L 104.600184 145.795481 
L 104.904853 190.632274 
L 105.209521 145.098127 
L 105.514189 193.123098 
L 106.123526 160.172877 
L 106.428194 181.330202 
L 106.732862 176.82267 
L 107.037531 166.336596 
L 107.342199 169.37125 
L 107.646867 192.096784 
L 107.951536 187.858341 
L 108.256204 200.723246 
L 108.560872 180.212683 
L 108.865541 208.695371 
L 109.170209 191.083961 
L 109.779545 197.454821 
L 110.084214 169.319602 
L 110.388882 205.392589 
L 110.69355 161.398271 
L 110.998219 205.314093 
L 111.302887 171.349145 
L 111.607555 190.359022 
L 112.216892 205.48319 
L 112.52156 171.437994 
L 113.130897 204.100144 
L 113.435565 195.145786 
L 113.740233 204.920541 
L 114.044902 179.622361 
L 114.34957 197.823102 
L 114.958907 152.729817 
L 115.263575 202.657642 
L 115.568243 197.765939 
L 115.872912 177.531919 
L 116.17758 194.168629 
L 116.482248 195.186735 
L 116.786916 184.220602 
L 117.091585 200.657502 
L 117.396253 203.411272 
L 118.00559 186.019405 
L 118.310258 181.469485 
L 118.614926 154.515925 
L 118.919595 185.532595 
L 119.224263 192.926328 
L 119.528931 197.57915 
L 119.8336 205.516146 
L 120.138268 182.615565 
L 120.442936 179.841812 
L 121.052273 210.184181 
L 121.356941 206.833933 
L 121.661609 187.874088 
L 121.966278 187.64917 
L 122.575614 208.483462 
L 122.880283 174.627302 
L 123.489619 212.504682 
L 123.794287 192.895294 
L 124.098956 181.749251 
L 124.403624 195.830463 
L 124.708292 199.351016 
L 125.012961 206.026486 
L 125.317629 203.469054 
L 125.622297 187.580567 
L 125.926966 205.089973 
L 126.231634 198.989552 
L 126.536302 178.921733 
L 126.840971 205.785244 
L 127.145639 205.04822 
L 127.450307 195.531759 
L 127.754975 210.552827 
L 128.059644 181.276836 
L 128.364312 200.831339 
L 128.66898 207.820776 
L 128.973649 184.389772 
L 129.278317 182.186884 
L 129.582985 214.047883 
L 129.887654 193.390136 
L 130.192322 182.337078 
L 130.49699 187.365763 
L 130.801658 205.370065 
L 131.106327 198.710109 
L 131.410995 209.885238 
L 131.715663 211.400065 
L 132.020332 198.896773 
L 132.325 207.746995 
L 132.629668 198.229177 
L 133.543673 211.463728 
L 133.848342 209.584755 
L 134.15301 187.813747 
L 134.457678 206.756861 
L 134.762346 211.303425 
L 135.067015 210.913347 
L 135.371683 184.284866 
L 135.676351 187.029332 
L 135.98102 191.781243 
L 136.285688 214.54486 
L 136.590356 211.71321 
L 136.895025 211.264151 
L 137.199693 209.661914 
L 137.504361 202.231171 
L 137.809029 210.600651 
L 138.113698 210.346763 
L 138.418366 204.42621 
L 138.723034 191.955841 
L 139.027703 209.913955 
L 139.332371 202.15846 
L 139.637039 199.172794 
L 139.941708 198.309456 
L 140.246376 210.110264 
L 140.551044 186.944558 
L 140.855713 213.418864 
L 141.160381 208.788107 
L 141.465049 200.973611 
L 141.769717 203.369333 
L 142.074386 211.743996 
L 142.379054 212.04249 
L 142.683722 186.703093 
L 142.988391 214.075478 
L 143.293059 212.611262 
L 143.597727 181.921353 
L 143.902396 203.404843 
L 144.207064 210.427299 
L 144.511732 209.045387 
L 144.8164 210.30631 
L 145.121069 214.129286 
L 145.425737 209.65904 
L 145.730405 201.933914 
L 146.035074 214.469632 
L 146.339742 213.965403 
L 146.64441 209.396273 
L 146.949079 213.033368 
L 147.253747 205.120308 
L 147.558415 214.268266 
L 147.863084 209.250543 
L 148.167752 212.901094 
L 148.47242 213.762526 
L 148.777088 204.79888 
L 149.081757 208.66374 
L 149.386425 214.689171 
L 149.691093 207.255698 
L 149.995762 212.843601 
L 150.30043 197.223562 
L 150.605098 212.48301 
L 150.909767 203.190987 
L 151.519103 214.083735 
L 151.823771 211.432501 
L 152.12844 199.721412 
L 152.433108 213.737101 
L 152.737776 206.576671 
L 153.042445 206.593294 
L 153.347113 207.595638 
L 153.651781 213.172383 
L 153.95645 205.770884 
L 154.261118 213.508197 
L 154.565786 214.042556 
L 154.870455 208.160837 
L 155.175123 206.902252 
L 155.784459 213.141226 
L 156.089128 211.461518 
L 156.393796 189.756631 
L 156.698464 206.864515 
L 157.003133 212.205578 
L 157.307801 214.138581 
L 157.612469 207.829235 
L 157.917138 192.902083 
L 158.221806 209.302224 
L 158.526474 212.927355 
L 159.135811 214.257334 
L 159.440479 208.334817 
L 159.745147 208.438314 
L 160.049816 213.163532 
L 160.659152 213.947861 
L 160.963821 198.140055 
L 161.573157 200.537759 
L 161.877826 214.251541 
L 162.182494 213.049264 
L 162.487162 207.54195 
L 162.79183 206.919148 
L 163.096499 207.46348 
L 163.401167 212.013873 
L 163.705835 212.095911 
L 164.010504 191.559824 
L 164.315172 209.852872 
L 164.61984 214.138149 
L 164.924509 208.369327 
L 165.229177 213.650345 
L 165.533845 210.281893 
L 165.838514 212.599397 
L 166.143182 214.047328 
L 166.44785 207.379719 
L 166.752518 211.909716 
L 167.057187 212.129976 
L 167.361855 199.150621 
L 167.666523 209.3812 
L 167.971192 210.577412 
L 168.27586 207.89042 
L 168.580528 209.717788 
L 168.885197 213.355102 
L 169.189865 213.516863 
L 169.494533 210.069939 
L 169.799201 213.659158 
L 170.10387 202.875563 
L 170.408538 212.488606 
L 170.713206 199.728234 
L 171.017875 213.259434 
L 171.322543 199.953788 
L 171.627211 211.17877 
L 172.236548 209.019784 
L 172.541216 205.218573 
L 172.845885 211.979621 
L 173.150553 210.784772 
L 173.455221 212.817525 
L 173.759889 208.583127 
L 174.064558 209.931844 
L 174.369226 212.009346 
L 174.673894 211.810449 
L 175.283231 203.993545 
L 175.587899 209.994366 
L 175.892568 205.137483 
L 176.197236 211.92874 
L 176.806572 212.903023 
L 177.111241 214.179645 
L 177.415909 209.570855 
L 177.720577 214.433314 
L 178.025246 203.015098 
L 178.329914 209.517919 
L 178.634582 210.48549 
L 178.939251 200.600578 
L 179.243919 209.217907 
L 179.548587 202.410207 
L 179.853256 213.321102 
L 180.157924 213.729134 
L 180.462592 202.660668 
L 180.76726 213.031631 
L 181.071929 212.308002 
L 181.376597 213.367164 
L 181.681265 212.582684 
L 181.985934 207.292834 
L 182.290602 213.047734 
L 182.59527 212.333573 
L 182.899939 209.768409 
L 183.204607 214.614254 
L 183.509275 211.799754 
L 183.813943 212.85486 
L 184.118612 211.880783 
L 184.42328 212.395441 
L 184.727948 209.661442 
L 185.032617 213.285772 
L 185.337285 204.771582 
L 185.946622 213.233839 
L 186.25129 210.572249 
L 186.555958 210.979644 
L 186.860627 213.736105 
L 187.469963 204.227274 
L 187.774631 213.201324 
L 188.0793 211.241412 
L 188.383968 212.669845 
L 188.688636 209.502113 
L 188.993305 214.139336 
L 189.297973 199.20892 
L 189.602641 214.756364 
L 189.90731 210.694805 
L 190.211978 213.569225 
L 190.516646 211.580846 
L 190.821314 205.643682 
L 191.125983 213.166009 
L 191.430651 188.159421 
L 191.735319 209.159511 
L 192.039988 212.663105 
L 192.344656 209.150286 
L 192.649324 213.604349 
L 193.258661 210.162277 
L 193.563329 214.180474 
L 193.867998 209.358803 
L 194.172666 209.39289 
L 194.477334 213.430888 
L 194.782002 213.963055 
L 195.391339 214.242186 
L 195.696007 213.100231 
L 196.000676 213.418633 
L 196.305344 210.023892 
L 196.610012 210.495695 
L 196.914681 214.561351 
L 197.219349 213.121169 
L 197.524017 207.516759 
L 198.438022 214.047224 
L 198.74269 214.27415 
L 199.047359 213.675667 
L 199.352027 213.542099 
L 199.656695 207.161957 
L 199.961364 213.589687 
L 200.266032 203.34139 
L 200.5707 212.772577 
L 200.875369 214.049436 
L 201.180037 213.172334 
L 201.484705 213.461917 
L 201.789373 214.705842 
L 202.094042 213.240227 
L 202.39871 213.243603 
L 202.703378 211.034666 
L 203.008047 214.665609 
L 203.312715 212.177104 
L 203.617383 213.334581 
L 203.922052 208.833629 
L 204.22672 209.243681 
L 204.531388 214.34643 
L 204.836057 207.868777 
L 205.140725 208.81257 
L 205.445393 200.657574 
L 205.750061 213.726054 
L 206.05473 214.675312 
L 206.359398 210.073183 
L 206.664066 214.151737 
L 206.968735 212.7871 
L 207.273403 206.018578 
L 207.578071 213.452958 
L 207.88274 210.617855 
L 208.187408 212.652118 
L 208.492076 212.103586 
L 208.796744 213.960646 
L 209.101413 210.485576 
L 209.406081 214.648352 
L 209.710749 214.400712 
L 210.015418 200.194798 
L 210.320086 211.367583 
L 210.624754 209.347971 
L 210.929423 208.826286 
L 211.234091 214.397612 
L 211.538759 210.310377 
L 211.843428 212.577919 
L 212.148096 212.067854 
L 212.452764 212.627758 
L 212.757432 201.6906 
L 213.062101 208.765107 
L 213.366769 207.177272 
L 213.671437 212.810627 
L 213.976106 207.811591 
L 214.280774 214.187099 
L 214.890111 212.873258 
L 215.194779 209.35373 
L 215.499447 209.255317 
L 215.804115 211.580062 
L 216.108784 201.485037 
L 216.413452 204.134247 
L 216.71812 200.894733 
L 217.022789 213.791101 
L 217.327457 209.832256 
L 217.632125 210.481218 
L 217.936794 214.218489 
L 218.241462 212.321153 
L 218.54613 213.503399 
L 219.155467 206.047076 
L 219.460135 213.204505 
L 219.764803 214.324071 
L 220.069472 211.221138 
L 220.37414 200.167205 
L 220.678808 212.69738 
L 220.983477 209.283322 
L 221.288145 202.350932 
L 221.592813 211.099135 
L 221.897482 207.195733 
L 222.20215 213.652887 
L 222.506818 210.87684 
L 222.811486 213.921763 
L 223.116155 213.018552 
L 223.420823 214.235743 
L 223.725491 209.419779 
L 224.03016 213.056205 
L 224.334828 212.803168 
L 224.639496 208.106794 
L 224.944165 212.044522 
L 225.248833 203.673532 
L 225.85817 213.618349 
L 226.162838 208.696392 
L 226.467506 213.552386 
L 227.076843 204.247585 
L 227.381511 207.015592 
L 227.686179 213.342143 
L 227.990848 209.187993 
L 228.295516 211.857388 
L 228.600184 212.620652 
L 228.904853 204.776138 
L 229.209521 212.829675 
L 229.514189 200.222177 
L 229.818857 212.760573 
L 230.123526 208.064549 
L 230.428194 213.16632 
L 230.732862 214.456683 
L 231.037531 209.080495 
L 231.342199 210.984749 
L 231.646867 214.444774 
L 232.256204 213.946796 
L 232.560872 204.583251 
L 233.170209 211.527576 
L 233.474877 212.711891 
L 233.779545 209.834725 
L 234.084214 213.198525 
L 234.388882 212.927385 
L 234.69355 201.50069 
L 234.998219 213.138115 
L 235.302887 213.788777 
L 235.607555 212.71119 
L 235.912224 205.247683 
L 236.52156 213.831154 
L 236.826229 212.491315 
L 237.130897 203.616123 
L 237.435565 214.431245 
L 237.740233 211.919143 
L 238.044902 213.601782 
L 238.34957 212.984299 
L 238.654238 213.161378 
L 238.958907 212.534208 
L 239.263575 209.411493 
L 239.568243 212.988031 
L 239.872912 213.333948 
L 240.17758 208.484532 
L 240.482248 211.010319 
L 240.786916 204.559684 
L 241.091585 214.11652 
L 241.396253 209.630632 
L 241.700921 214.505755 
L 242.00559 213.457726 
L 242.614926 213.933396 
L 242.919595 207.983114 
L 243.224263 214.134074 
L 243.528931 214.337764 
L 243.8336 202.399057 
L 244.138268 214.11147 
L 244.747604 213.250837 
L 245.052273 209.670712 
L 245.356941 213.350528 
L 245.661609 208.277404 
L 245.966278 211.127105 
L 246.270946 210.879368 
L 246.575614 214.736864 
L 246.880283 209.95575 
L 247.184951 214.512128 
L 247.489619 208.455571 
L 248.098956 213.789874 
L 248.403624 203.613361 
L 248.708292 210.002437 
L 249.012961 213.724724 
L 249.317629 210.937648 
L 249.622297 213.922797 
L 249.926966 209.497734 
L 250.231634 212.608265 
L 250.536302 209.552107 
L 250.840971 211.143765 
L 251.145639 205.534325 
L 251.754975 209.65733 
L 252.059644 204.214527 
L 252.364312 212.371412 
L 252.66898 201.744495 
L 252.973649 212.952578 
L 253.278317 209.610407 
L 253.582985 212.374474 
L 253.887654 202.512287 
L 254.192322 212.991748 
L 254.49699 212.623568 
L 254.801658 214.499558 
L 255.106327 206.395933 
L 255.410995 212.907347 
L 255.715663 210.751394 
L 256.020332 199.216317 
L 256.325 211.517762 
L 256.629668 208.852889 
L 256.934337 202.393066 
L 257.239005 210.542686 
L 257.543673 214.579624 
L 257.848342 211.223063 
L 258.15301 212.49007 
L 258.457678 209.09871 
L 258.762346 213.78571 
L 259.067015 212.99434 
L 259.371683 207.721234 
L 259.676351 211.778343 
L 259.98102 207.265195 
L 260.285688 213.095578 
L 260.590356 210.035828 
L 260.895025 213.473311 
L 261.199693 213.392406 
L 261.504361 210.823292 
L 261.809029 202.641286 
L 262.113698 207.525251 
L 262.418366 214.715936 
L 262.723034 212.939951 
L 263.027703 213.518734 
L 263.332371 212.750066 
L 263.637039 213.332319 
L 263.941708 205.49446 
L 264.246376 213.420158 
L 264.551044 211.91057 
L 264.855713 214.375741 
L 265.160381 214.584425 
L 265.465049 213.983411 
L 265.769717 212.289067 
L 266.074386 211.574766 
L 266.379054 184.101335 
L 266.683722 209.05068 
L 266.988391 205.723252 
L 267.293059 210.645361 
L 267.597727 206.801178 
L 267.902396 212.908915 
L 268.207064 210.176866 
L 268.511732 214.094441 
L 268.8164 201.065468 
L 269.121069 214.42496 
L 269.425737 200.997674 
L 269.730405 212.342034 
L 270.035074 213.083435 
L 270.339742 212.835227 
L 270.64441 213.993592 
L 270.949079 208.35884 
L 271.253747 205.763267 
L 271.558415 213.380811 
L 271.863084 214.387998 
L 272.167752 208.12316 
L 272.47242 208.097344 
L 272.777088 210.803838 
L 273.386425 206.886241 
L 273.691093 213.080601 
L 274.30043 211.572883 
L 274.909767 214.542164 
L 275.214435 211.282603 
L 275.519103 210.454333 
L 275.823771 212.157739 
L 276.12844 211.898525 
L 276.433108 208.205087 
L 276.737776 206.739125 
L 277.042445 206.814141 
L 277.651781 210.975468 
L 277.95645 214.007531 
L 278.261118 214.064125 
L 278.565786 211.150305 
L 279.175123 213.16008 
L 279.479791 209.750488 
L 279.784459 212.683486 
L 280.089128 214.451439 
L 280.393796 212.565727 
L 280.698464 213.199068 
L 281.003133 214.106817 
L 281.307801 214.46535 
L 281.612469 211.790591 
L 281.917138 213.106077 
L 282.221806 212.312202 
L 282.526474 210.567152 
L 282.831143 205.830455 
L 283.135811 212.024888 
L 283.440479 214.360669 
L 283.745147 212.395839 
L 284.049816 211.913775 
L 284.354484 206.661327 
L 284.659152 211.063501 
L 284.963821 213.032615 
L 285.268489 213.377608 
L 285.573157 213.266946 
L 285.877826 205.707888 
L 286.182494 210.587712 
L 286.79183 208.488663 
L 287.096499 211.94603 
L 287.401167 204.611075 
L 287.705835 214.590393 
L 288.010504 212.334116 
L 288.315172 213.48703 
L 288.61984 204.309283 
L 289.229177 213.471365 
L 289.533845 211.428866 
L 289.838514 213.447372 
L 290.143182 203.454687 
L 290.44785 214.61324 
L 290.752518 212.511208 
L 291.057187 214.561364 
L 291.361855 214.592236 
L 291.666523 212.803615 
L 291.971192 202.797862 
L 292.27586 211.374885 
L 292.580528 201.898299 
L 292.885197 214.28714 
L 293.189865 209.128116 
L 293.799201 208.356112 
L 294.10387 213.315919 
L 294.408538 201.516796 
L 294.713206 214.114111 
L 295.322543 211.926223 
L 295.627211 209.73248 
L 296.236548 214.632065 
L 296.541216 214.672502 
L 296.845885 213.782766 
L 297.150553 202.053509 
L 297.455221 211.620762 
L 297.759889 214.030034 
L 298.064558 209.755714 
L 298.369226 210.39941 
L 298.673894 210.405118 
L 298.978563 212.817322 
L 299.283231 212.840046 
L 299.587899 214.100502 
L 299.892568 210.452823 
L 300.197236 204.030743 
L 300.806572 211.507887 
L 301.111241 214.062565 
L 301.415909 206.932257 
L 301.720577 209.673512 
L 302.025246 214.264436 
L 302.329914 210.430071 
L 302.634582 213.75961 
L 302.939251 211.799396 
L 303.243919 213.64457 
L 303.548587 207.357671 
L 303.853256 210.87823 
L 304.157924 210.162512 
L 304.462592 207.513563 
L 304.76726 214.35645 
L 305.071929 212.591163 
L 305.376597 209.555919 
L 305.681265 208.868729 
L 305.985934 213.761795 
L 306.290602 208.401046 
L 306.59527 213.323618 
L 306.899939 201.922737 
L 307.204607 209.876468 
L 307.509275 203.789783 
L 308.118612 213.658093 
L 308.42328 211.332336 
L 309.032617 214.153292 
L 309.337285 213.601273 
L 309.641953 203.744742 
L 309.946622 213.158968 
L 310.25129 211.821778 
L 310.860627 208.035456 
L 311.165295 214.315366 
L 311.469963 205.687716 
L 311.774631 211.74907 
L 312.0793 208.357734 
L 312.383968 207.008207 
L 312.688636 211.978207 
L 312.993305 210.645621 
L 313.297973 212.168707 
L 313.602641 212.598003 
L 313.90731 206.824024 
L 314.211978 213.885965 
L 314.516646 213.208486 
L 314.821314 212.945018 
L 315.125983 210.488845 
L 315.430651 192.871748 
L 315.735319 212.744758 
L 316.344656 206.112004 
L 316.649324 206.833561 
L 316.953993 211.910025 
L 317.258661 208.605062 
L 317.563329 210.908814 
L 317.867998 211.697772 
L 318.172666 208.658075 
L 318.477334 213.513656 
L 318.782002 214.397252 
L 319.086671 214.717075 
L 319.391339 213.10716 
L 319.696007 214.219491 
L 320.000676 214.46751 
L 320.305344 209.825433 
L 320.610012 210.800899 
L 321.219349 214.354772 
L 321.524017 209.265469 
L 321.828686 208.94365 
L 322.133354 213.170679 
L 322.438022 212.905351 
L 322.74269 214.01731 
L 323.047359 207.991608 
L 323.352027 209.344498 
L 323.656695 213.742324 
L 323.961364 214.344698 
L 324.266032 212.593242 
L 324.5707 209.549586 
L 325.180037 213.329397 
L 325.484705 214.379197 
L 325.789373 213.90778 
L 326.094042 211.724827 
L 326.703378 210.355888 
L 327.008047 211.113874 
L 327.312715 204.480854 
L 327.617383 211.470238 
L 327.922052 209.740395 
L 328.22672 213.468293 
L 328.531388 212.533878 
L 328.836057 213.3883 
L 329.140725 203.298339 
L 329.445393 212.413915 
L 329.750061 213.988163 
L 330.05473 212.616962 
L 330.359398 197.047568 
L 330.664066 205.232401 
L 330.968735 204.430026 
L 331.578071 212.234061 
L 331.88274 204.060671 
L 332.187408 214.606816 
L 332.492076 213.198171 
L 332.796744 213.197511 
L 333.101413 211.263442 
L 333.406081 213.927793 
L 333.710749 210.71794 
L 334.015418 213.859744 
L 334.320086 212.934875 
L 334.624754 210.085061 
L 334.929423 213.399858 
L 335.234091 213.583171 
L 335.538759 211.418901 
L 335.843428 214.110505 
L 336.148096 209.593086 
L 336.452764 209.57426 
L 336.757432 203.109432 
L 337.062101 202.238924 
L 337.366769 211.942024 
L 337.671437 209.956943 
L 337.976106 204.358694 
L 338.280774 211.859393 
L 338.585442 212.427557 
L 338.890111 211.421133 
L 339.194779 213.843035 
L 339.499447 210.159115 
L 339.804115 209.029502 
L 340.108784 213.764335 
L 340.413452 213.020227 
L 340.71812 206.498153 
L 341.022789 203.605528 
L 341.327457 210.546856 
L 341.632125 207.496928 
L 341.936794 214.712146 
L 342.241462 212.33816 
L 342.54613 214.159971 
L 342.850799 214.083304 
L 343.155467 200.362215 
L 343.460135 211.777886 
L 344.069472 213.991828 
L 344.37414 214.454405 
L 344.678808 213.222131 
L 344.983477 213.854107 
L 345.288145 207.328968 
L 345.592813 209.634271 
L 345.897482 214.138268 
L 346.20215 207.468405 
L 346.506818 211.500405 
L 346.506818 211.500405 
" style="fill:none;stroke:#1f77b4;stroke-linecap:square;stroke-width:1.5;"/>
   </g>
   <g id="patch_3">
    <path d="M 26.925 224.64 
L 26.925 7.2 
" style="fill:none;stroke:#000000;stroke-linecap:square;stroke-linejoin:miter;stroke-width:0.8;"/>
   </g>
   <g id="patch_4">
    <path d="M 361.725 224.64 
L 361.725 7.2 
" style="fill:none;stroke:#000000;stroke-linecap:square;stroke-linejoin:miter;stroke-width:0.8;"/>
   </g>
   <g id="patch_5">
    <path d="M 26.925 224.64 
L 361.725 224.64 
" style="fill:none;stroke:#000000;stroke-linecap:square;stroke-linejoin:miter;stroke-width:0.8;"/>
   </g>
   <g id="patch_6">
    <path d="M 26.925 7.2 
L 361.725 7.2 
" style="fill:none;stroke:#000000;stroke-linecap:square;stroke-linejoin:miter;stroke-width:0.8;"/>
   </g>
  </g>
 </g>
 <defs>
  <clipPath id="p647e26b87a">
   <rect height="217.44" width="334.8" x="26.925" y="7.2"/>
  </clipPath>
 </defs>
</svg>
